M48
; DRILL file {KiCad 9.0.7} date 2026-02-22T10:44:39+0530
; FORMAT={-:-/ absolute / metric / decimal}
; #@! TF.CreationDate,2026-02-22T10:44:39+05:30
; #@! TF.GenerationSoftware,Kicad,Pcbnew,9.0.7
; #@! TF.FileFunction,Plated,1,2,PTH
FMAT,2
METRIC
; #@! TA.AperFunction,Plated,PTH,ViaDrill
T1C0.300
; #@! TA.AperFunction,Plated,PTH,ComponentDrill
T2C0.800
; #@! TA.AperFunction,Plated,PTH,ComponentDrill
T3C1.000
; #@! TA.AperFunction,Plated,PTH,ComponentDrill
T4C1.500
%
G90
G05
T1
X61.53Y-166.78
X62.16Y-152.12
X63.35Y-146.05
X65.15Y-149.02
X65.94Y-155.9
X66.45Y-137.98
X68.41Y-139.23
X68.82Y-135.64
X73.69Y-141.61
X79.01Y-170.77
X82.84Y-144.62
X84.47Y-158.27
X85.14Y-142.41
X88.11Y-156.7
X93.31Y-170.69
X94.54Y-158.15
X95.3Y-139.36
X95.73Y-133.8
X98.9Y-158.16
X100.02Y-146.52
X100.93Y-158.95
X101.16Y-138.59
X104.62Y-157.84
X112.2Y-155.5
T2
X67.26Y-146.13
X67.26Y-153.75
X67.27Y-165.26
X67.27Y-172.88
X86.4Y-164.81
X86.4Y-172.43
X86.42Y-145.93
X86.42Y-153.55
X105.49Y-164.88
X105.49Y-172.5
X105.51Y-145.74
X105.51Y-153.36
X135.45Y-150.77
X135.45Y-158.39
T3
X50.88Y-117.68
X50.88Y-120.22
X50.88Y-122.76
X50.88Y-125.3
X50.88Y-127.84
X50.88Y-130.38
X50.88Y-132.92
X66.13Y-117.68
X66.13Y-120.22
X66.13Y-122.76
X66.13Y-125.3
X66.13Y-127.84
X66.13Y-130.38
X66.13Y-132.92
X115.73Y-150.99
X115.73Y-153.49
X115.73Y-155.99
X130.21Y-120.39
X130.21Y-122.93
X130.21Y-125.47
X130.21Y-128.01
X130.23Y-150.99
X130.23Y-155.99
T4
X53.86Y-147.4
X53.9Y-166.51
X60.21Y-144.86
X60.25Y-163.97
X73.01Y-147.4
X73.04Y-166.46
X79.36Y-144.86
X79.39Y-163.92
X92.17Y-147.44
X92.17Y-166.46
X98.52Y-144.9
X98.52Y-163.92
T4
G00X122.58Y-147.89
M15
G01X123.88Y-147.89
M16
G05
G00X122.58Y-159.09
M15
G01X123.88Y-159.09
M16
G05
M30
