%TF.GenerationSoftware,KiCad,Pcbnew,9.0.7*%
%TF.CreationDate,2026-02-26T06:36:32+05:30*%
%TF.ProjectId,Pomopad,506f6d6f-7061-4642-9e6b-696361645f70,rev?*%
%TF.SameCoordinates,Original*%
%TF.FileFunction,Copper,L1,Top*%
%TF.FilePolarity,Positive*%
%FSLAX46Y46*%
G04 Gerber Fmt 4.6, Leading zero omitted, Abs format (unit mm)*
G04 Created by KiCad (PCBNEW 9.0.7) date 2026-02-26 06:36:32*
%MOMM*%
%LPD*%
G01*
G04 APERTURE LIST*
G04 Aperture macros list*
%AMRoundRect*
0 Rectangle with rounded corners*
0 $1 Rounding radius*
0 $2 $3 $4 $5 $6 $7 $8 $9 X,Y pos of 4 corners*
0 Add a 4 corners polygon primitive as box body*
4,1,4,$2,$3,$4,$5,$6,$7,$8,$9,$2,$3,0*
0 Add four circle primitives for the rounded corners*
1,1,$1+$1,$2,$3*
1,1,$1+$1,$4,$5*
1,1,$1+$1,$6,$7*
1,1,$1+$1,$8,$9*
0 Add four rect primitives between the rounded corners*
20,1,$1+$1,$2,$3,$4,$5,0*
20,1,$1+$1,$4,$5,$6,$7,0*
20,1,$1+$1,$6,$7,$8,$9,0*
20,1,$1+$1,$8,$9,$2,$3,0*%
G04 Aperture macros list end*
%ADD10C,0.300000*%
%TA.AperFunction,NonConductor*%
%ADD11C,0.300000*%
%TD*%
%TA.AperFunction,ComponentPad*%
%ADD12C,2.200000*%
%TD*%
%TA.AperFunction,ComponentPad*%
%ADD13R,2.000000X2.000000*%
%TD*%
%TA.AperFunction,ComponentPad*%
%ADD14C,2.000000*%
%TD*%
%TA.AperFunction,ComponentPad*%
%ADD15R,3.200000X2.000000*%
%TD*%
%TA.AperFunction,ComponentPad*%
%ADD16R,3.500000X1.700000*%
%TD*%
%TA.AperFunction,ComponentPad*%
%ADD17O,3.600000X1.700000*%
%TD*%
%TA.AperFunction,ComponentPad*%
%ADD18O,3.700000X1.700000*%
%TD*%
%TA.AperFunction,ComponentPad*%
%ADD19R,1.700000X1.700000*%
%TD*%
%TA.AperFunction,ComponentPad*%
%ADD20O,1.700000X1.700000*%
%TD*%
%TA.AperFunction,ComponentPad*%
%ADD21RoundRect,0.250000X0.550000X-0.550000X0.550000X0.550000X-0.550000X0.550000X-0.550000X-0.550000X0*%
%TD*%
%TA.AperFunction,ComponentPad*%
%ADD22C,1.600000*%
%TD*%
%TA.AperFunction,ViaPad*%
%ADD23C,0.600000*%
%TD*%
%TA.AperFunction,Conductor*%
%ADD24C,0.200000*%
%TD*%
G04 APERTURE END LIST*
D10*
D11*
X226572082Y-110135257D02*
X227286368Y-110135257D01*
X226429225Y-110563828D02*
X226929225Y-109063828D01*
X226929225Y-109063828D02*
X227429225Y-110563828D01*
X227929224Y-110563828D02*
X227929224Y-109063828D01*
X228572082Y-110563828D02*
X228572082Y-109778114D01*
X228572082Y-109778114D02*
X228500653Y-109635257D01*
X228500653Y-109635257D02*
X228357796Y-109563828D01*
X228357796Y-109563828D02*
X228143510Y-109563828D01*
X228143510Y-109563828D02*
X228000653Y-109635257D01*
X228000653Y-109635257D02*
X227929224Y-109706685D01*
X229286367Y-110563828D02*
X229286367Y-109563828D01*
X229286367Y-109706685D02*
X229357796Y-109635257D01*
X229357796Y-109635257D02*
X229500653Y-109563828D01*
X229500653Y-109563828D02*
X229714939Y-109563828D01*
X229714939Y-109563828D02*
X229857796Y-109635257D01*
X229857796Y-109635257D02*
X229929225Y-109778114D01*
X229929225Y-109778114D02*
X229929225Y-110563828D01*
X229929225Y-109778114D02*
X230000653Y-109635257D01*
X230000653Y-109635257D02*
X230143510Y-109563828D01*
X230143510Y-109563828D02*
X230357796Y-109563828D01*
X230357796Y-109563828D02*
X230500653Y-109635257D01*
X230500653Y-109635257D02*
X230572082Y-109778114D01*
X230572082Y-109778114D02*
X230572082Y-110563828D01*
X231857796Y-110492400D02*
X231714939Y-110563828D01*
X231714939Y-110563828D02*
X231429225Y-110563828D01*
X231429225Y-110563828D02*
X231286367Y-110492400D01*
X231286367Y-110492400D02*
X231214939Y-110349542D01*
X231214939Y-110349542D02*
X231214939Y-109778114D01*
X231214939Y-109778114D02*
X231286367Y-109635257D01*
X231286367Y-109635257D02*
X231429225Y-109563828D01*
X231429225Y-109563828D02*
X231714939Y-109563828D01*
X231714939Y-109563828D02*
X231857796Y-109635257D01*
X231857796Y-109635257D02*
X231929225Y-109778114D01*
X231929225Y-109778114D02*
X231929225Y-109920971D01*
X231929225Y-109920971D02*
X231214939Y-110063828D01*
X233214939Y-110563828D02*
X233214939Y-109063828D01*
X233214939Y-110492400D02*
X233072081Y-110563828D01*
X233072081Y-110563828D02*
X232786367Y-110563828D01*
X232786367Y-110563828D02*
X232643510Y-110492400D01*
X232643510Y-110492400D02*
X232572081Y-110420971D01*
X232572081Y-110420971D02*
X232500653Y-110278114D01*
X232500653Y-110278114D02*
X232500653Y-109849542D01*
X232500653Y-109849542D02*
X232572081Y-109706685D01*
X232572081Y-109706685D02*
X232643510Y-109635257D01*
X232643510Y-109635257D02*
X232786367Y-109563828D01*
X232786367Y-109563828D02*
X233072081Y-109563828D01*
X233072081Y-109563828D02*
X233214939Y-109635257D01*
X234000653Y-109063828D02*
X233857796Y-109349542D01*
X234572082Y-110492400D02*
X234714939Y-110563828D01*
X234714939Y-110563828D02*
X235000653Y-110563828D01*
X235000653Y-110563828D02*
X235143510Y-110492400D01*
X235143510Y-110492400D02*
X235214939Y-110349542D01*
X235214939Y-110349542D02*
X235214939Y-110278114D01*
X235214939Y-110278114D02*
X235143510Y-110135257D01*
X235143510Y-110135257D02*
X235000653Y-110063828D01*
X235000653Y-110063828D02*
X234786368Y-110063828D01*
X234786368Y-110063828D02*
X234643510Y-109992400D01*
X234643510Y-109992400D02*
X234572082Y-109849542D01*
X234572082Y-109849542D02*
X234572082Y-109778114D01*
X234572082Y-109778114D02*
X234643510Y-109635257D01*
X234643510Y-109635257D02*
X234786368Y-109563828D01*
X234786368Y-109563828D02*
X235000653Y-109563828D01*
X235000653Y-109563828D02*
X235143510Y-109635257D01*
X237000653Y-110563828D02*
X237000653Y-109063828D01*
X237000653Y-109063828D02*
X237572082Y-109063828D01*
X237572082Y-109063828D02*
X237714939Y-109135257D01*
X237714939Y-109135257D02*
X237786368Y-109206685D01*
X237786368Y-109206685D02*
X237857796Y-109349542D01*
X237857796Y-109349542D02*
X237857796Y-109563828D01*
X237857796Y-109563828D02*
X237786368Y-109706685D01*
X237786368Y-109706685D02*
X237714939Y-109778114D01*
X237714939Y-109778114D02*
X237572082Y-109849542D01*
X237572082Y-109849542D02*
X237000653Y-109849542D01*
X238714939Y-110563828D02*
X238572082Y-110492400D01*
X238572082Y-110492400D02*
X238500653Y-110420971D01*
X238500653Y-110420971D02*
X238429225Y-110278114D01*
X238429225Y-110278114D02*
X238429225Y-109849542D01*
X238429225Y-109849542D02*
X238500653Y-109706685D01*
X238500653Y-109706685D02*
X238572082Y-109635257D01*
X238572082Y-109635257D02*
X238714939Y-109563828D01*
X238714939Y-109563828D02*
X238929225Y-109563828D01*
X238929225Y-109563828D02*
X239072082Y-109635257D01*
X239072082Y-109635257D02*
X239143511Y-109706685D01*
X239143511Y-109706685D02*
X239214939Y-109849542D01*
X239214939Y-109849542D02*
X239214939Y-110278114D01*
X239214939Y-110278114D02*
X239143511Y-110420971D01*
X239143511Y-110420971D02*
X239072082Y-110492400D01*
X239072082Y-110492400D02*
X238929225Y-110563828D01*
X238929225Y-110563828D02*
X238714939Y-110563828D01*
X239857796Y-110563828D02*
X239857796Y-109563828D01*
X239857796Y-109706685D02*
X239929225Y-109635257D01*
X239929225Y-109635257D02*
X240072082Y-109563828D01*
X240072082Y-109563828D02*
X240286368Y-109563828D01*
X240286368Y-109563828D02*
X240429225Y-109635257D01*
X240429225Y-109635257D02*
X240500654Y-109778114D01*
X240500654Y-109778114D02*
X240500654Y-110563828D01*
X240500654Y-109778114D02*
X240572082Y-109635257D01*
X240572082Y-109635257D02*
X240714939Y-109563828D01*
X240714939Y-109563828D02*
X240929225Y-109563828D01*
X240929225Y-109563828D02*
X241072082Y-109635257D01*
X241072082Y-109635257D02*
X241143511Y-109778114D01*
X241143511Y-109778114D02*
X241143511Y-110563828D01*
X242072082Y-110563828D02*
X241929225Y-110492400D01*
X241929225Y-110492400D02*
X241857796Y-110420971D01*
X241857796Y-110420971D02*
X241786368Y-110278114D01*
X241786368Y-110278114D02*
X241786368Y-109849542D01*
X241786368Y-109849542D02*
X241857796Y-109706685D01*
X241857796Y-109706685D02*
X241929225Y-109635257D01*
X241929225Y-109635257D02*
X242072082Y-109563828D01*
X242072082Y-109563828D02*
X242286368Y-109563828D01*
X242286368Y-109563828D02*
X242429225Y-109635257D01*
X242429225Y-109635257D02*
X242500654Y-109706685D01*
X242500654Y-109706685D02*
X242572082Y-109849542D01*
X242572082Y-109849542D02*
X242572082Y-110278114D01*
X242572082Y-110278114D02*
X242500654Y-110420971D01*
X242500654Y-110420971D02*
X242429225Y-110492400D01*
X242429225Y-110492400D02*
X242286368Y-110563828D01*
X242286368Y-110563828D02*
X242072082Y-110563828D01*
X243214939Y-110563828D02*
X243214939Y-109063828D01*
X243214939Y-109063828D02*
X243786368Y-109063828D01*
X243786368Y-109063828D02*
X243929225Y-109135257D01*
X243929225Y-109135257D02*
X244000654Y-109206685D01*
X244000654Y-109206685D02*
X244072082Y-109349542D01*
X244072082Y-109349542D02*
X244072082Y-109563828D01*
X244072082Y-109563828D02*
X244000654Y-109706685D01*
X244000654Y-109706685D02*
X243929225Y-109778114D01*
X243929225Y-109778114D02*
X243786368Y-109849542D01*
X243786368Y-109849542D02*
X243214939Y-109849542D01*
X245357797Y-110563828D02*
X245357797Y-109778114D01*
X245357797Y-109778114D02*
X245286368Y-109635257D01*
X245286368Y-109635257D02*
X245143511Y-109563828D01*
X245143511Y-109563828D02*
X244857797Y-109563828D01*
X244857797Y-109563828D02*
X244714939Y-109635257D01*
X245357797Y-110492400D02*
X245214939Y-110563828D01*
X245214939Y-110563828D02*
X244857797Y-110563828D01*
X244857797Y-110563828D02*
X244714939Y-110492400D01*
X244714939Y-110492400D02*
X244643511Y-110349542D01*
X244643511Y-110349542D02*
X244643511Y-110206685D01*
X244643511Y-110206685D02*
X244714939Y-110063828D01*
X244714939Y-110063828D02*
X244857797Y-109992400D01*
X244857797Y-109992400D02*
X245214939Y-109992400D01*
X245214939Y-109992400D02*
X245357797Y-109920971D01*
X246714940Y-110563828D02*
X246714940Y-109063828D01*
X246714940Y-110492400D02*
X246572082Y-110563828D01*
X246572082Y-110563828D02*
X246286368Y-110563828D01*
X246286368Y-110563828D02*
X246143511Y-110492400D01*
X246143511Y-110492400D02*
X246072082Y-110420971D01*
X246072082Y-110420971D02*
X246000654Y-110278114D01*
X246000654Y-110278114D02*
X246000654Y-109849542D01*
X246000654Y-109849542D02*
X246072082Y-109706685D01*
X246072082Y-109706685D02*
X246143511Y-109635257D01*
X246143511Y-109635257D02*
X246286368Y-109563828D01*
X246286368Y-109563828D02*
X246572082Y-109563828D01*
X246572082Y-109563828D02*
X246714940Y-109635257D01*
D12*
%TO.P,SW7,1,1*%
%TO.N,C2*%
X209169000Y-95673000D03*
%TO.P,SW7,2,2*%
%TO.N,Net-(D17-A)*%
X202819000Y-98213000D03*
%TD*%
%TO.P,SW6,1,1*%
%TO.N,C2*%
X209169000Y-76653000D03*
%TO.P,SW6,2,2*%
%TO.N,Net-(D16-A)*%
X202819000Y-79193000D03*
%TD*%
%TO.P,SW5,1,1*%
%TO.N,C1*%
X190039000Y-95673000D03*
%TO.P,SW5,2,2*%
%TO.N,Net-(D15-A)*%
X183689000Y-98213000D03*
%TD*%
D13*
%TO.P,SW1,A,A*%
%TO.N,A*%
X226379000Y-82743000D03*
D14*
%TO.P,SW1,B,B*%
%TO.N,B*%
X226379000Y-87743000D03*
%TO.P,SW1,C,C*%
%TO.N,GND*%
X226379000Y-85243000D03*
D15*
%TO.P,SW1,MP*%
%TO.N,N/C*%
X233879000Y-79643000D03*
X233879000Y-90843000D03*
D14*
%TO.P,SW1,S1,S1*%
%TO.N,Net-(D7-A)*%
X240879000Y-87743000D03*
%TO.P,SW1,S2,S2*%
%TO.N,C0*%
X240879000Y-82743000D03*
%TD*%
D16*
%TO.P,U1,1,PA02_A0_D0*%
%TO.N,C0*%
X160529000Y-49433000D03*
D17*
%TO.P,U1,2,PA4_A1_D1*%
%TO.N,C1*%
X160529000Y-51973000D03*
%TO.P,U1,3,PA10_A2_D2*%
%TO.N,A*%
X160529000Y-54513000D03*
%TO.P,U1,4,PA11_A3_D3*%
%TO.N,B*%
X160529000Y-57053000D03*
%TO.P,U1,5,PA8_A4_D4_SDA*%
%TO.N,SDA*%
X160529000Y-59593000D03*
%TO.P,U1,6,PA9_A5_D5_SCL*%
%TO.N,SCL*%
X160529000Y-62133000D03*
%TO.P,U1,7,PB08_A6_D6_TX*%
%TO.N,C2*%
X160529000Y-64673000D03*
%TO.P,U1,8,PB09_A7_D7_RX*%
%TO.N,C0*%
X177779000Y-64673000D03*
%TO.P,U1,9,PA7_A8_D8_SCK*%
X177779000Y-62133000D03*
%TO.P,U1,10,PA5_A9_D9_MISO*%
X177779000Y-59593000D03*
D18*
%TO.P,U1,11,PA6_A10_D10_MOSI*%
%TO.N,LED*%
X177779000Y-57053000D03*
%TO.P,U1,12,3V3*%
%TO.N,unconnected-(U1-3V3-Pad12)*%
X177779000Y-54513000D03*
%TO.P,U1,13,GND*%
%TO.N,GND*%
X177779000Y-51973000D03*
%TO.P,U1,14,5V*%
%TO.N,+5V*%
X177779000Y-49433000D03*
%TD*%
D12*
%TO.P,SW3,1,1*%
%TO.N,C0*%
X170899000Y-95723000D03*
%TO.P,SW3,2,2*%
%TO.N,Net-(D13-A)*%
X164549000Y-98263000D03*
%TD*%
%TO.P,SW4,1,1*%
%TO.N,C1*%
X190009000Y-76613000D03*
%TO.P,SW4,2,2*%
%TO.N,Net-(D14-A)*%
X183659000Y-79153000D03*
%TD*%
D19*
%TO.P,J1,1,GND*%
%TO.N,GND*%
X240859000Y-52143000D03*
D20*
%TO.P,J1,2,VCC*%
%TO.N,+5V*%
X240859000Y-54683000D03*
%TO.P,J1,3,SCl*%
%TO.N,SCL*%
X240859000Y-57223000D03*
%TO.P,J1,4,SDA*%
%TO.N,SDA*%
X240859000Y-59763000D03*
%TD*%
D12*
%TO.P,SW2,1,1*%
%TO.N,C0*%
X170859000Y-76613000D03*
%TO.P,SW2,2,2*%
%TO.N,Net-(D12-A)*%
X164509000Y-79153000D03*
%TD*%
D21*
%TO.P,D12,1,K*%
%TO.N,C0*%
X177909000Y-85503000D03*
D22*
%TO.P,D12,2,A*%
%TO.N,Net-(D12-A)*%
X177909000Y-77883000D03*
%TD*%
D21*
%TO.P,D15,1,K*%
%TO.N,C0*%
X197049000Y-104183000D03*
D22*
%TO.P,D15,2,A*%
%TO.N,Net-(D15-A)*%
X197049000Y-96563000D03*
%TD*%
D21*
%TO.P,D17,1,K*%
%TO.N,C0*%
X216139000Y-104253000D03*
D22*
%TO.P,D17,2,A*%
%TO.N,Net-(D17-A)*%
X216139000Y-96633000D03*
%TD*%
D21*
%TO.P,D16,1,K*%
%TO.N,C0*%
X216159000Y-85113000D03*
D22*
%TO.P,D16,2,A*%
%TO.N,Net-(D16-A)*%
X216159000Y-77493000D03*
%TD*%
D21*
%TO.P,D14,1,K*%
%TO.N,C0*%
X197069000Y-85303000D03*
D22*
%TO.P,D14,2,A*%
%TO.N,Net-(D14-A)*%
X197069000Y-77683000D03*
%TD*%
D21*
%TO.P,D13,1,K*%
%TO.N,C0*%
X177919000Y-104633000D03*
D22*
%TO.P,D13,2,A*%
%TO.N,Net-(D13-A)*%
X177919000Y-97013000D03*
%TD*%
D21*
%TO.P,D11,1,K*%
%TO.N,R2*%
X246099000Y-90143000D03*
D22*
%TO.P,D11,2,A*%
%TO.N,C0*%
X246099000Y-82523000D03*
%TD*%
D23*
%TO.N,GND*%
X205189000Y-89903000D03*
X222849000Y-87253000D03*
X215269000Y-89593000D03*
X195119000Y-90023000D03*
X209549000Y-89913000D03*
X211579000Y-90703000D03*
%TO.N,+5V*%
X203959000Y-102443000D03*
X195789000Y-74163000D03*
X189659000Y-102523000D03*
X206379000Y-65553000D03*
%TO.N,C0*%
X173999000Y-77803000D03*
X198759000Y-88453000D03*
X175799000Y-80773000D03*
X179469000Y-67393000D03*
%TO.N,B*%
X177099000Y-69733000D03*
%TO.N,A*%
X188329000Y-50823000D03*
X164809000Y-57353000D03*
%TO.N,C2*%
X181039000Y-73283000D03*
X210669000Y-78273000D03*
%TO.N,SDA*%
X211809000Y-70343000D03*
X205949000Y-71113000D03*
X179059000Y-70983000D03*
%TO.N,Net-(D13-A)*%
X172179000Y-98533000D03*
%TO.N,Net-(D14-A)*%
X193489000Y-76373000D03*
%TO.N,LED*%
X184339000Y-73363000D03*
%TO.N,Net-(D1-DOUT)*%
X176589000Y-87653000D03*
X172809000Y-83873000D03*
%TD*%
D24*
%TO.N,GND*%
X223109000Y-86993000D02*
X224629000Y-86993000D01*
X195119000Y-90023000D02*
X205069000Y-90023000D01*
X242010000Y-68310000D02*
X227680000Y-82640000D01*
X205069000Y-90023000D02*
X205189000Y-89903000D01*
X222849000Y-87253000D02*
X223109000Y-86993000D01*
X210339000Y-90703000D02*
X209549000Y-89913000D01*
X240859000Y-52143000D02*
X242010000Y-53294000D01*
X211579000Y-90703000D02*
X210339000Y-90703000D01*
X242010000Y-53294000D02*
X242010000Y-68310000D01*
X195119000Y-69225240D02*
X195119000Y-90023000D01*
X177866760Y-51973000D02*
X195119000Y-69225240D01*
X209549000Y-89913000D02*
X214949000Y-89913000D01*
X214949000Y-89913000D02*
X215269000Y-89593000D01*
X227680000Y-82640000D02*
X227680000Y-83942000D01*
X227680000Y-83942000D02*
X226379000Y-85243000D01*
X176779000Y-51973000D02*
X177866760Y-51973000D01*
X224629000Y-86993000D02*
X226379000Y-85243000D01*
%TO.N,+5V*%
X176779000Y-49433000D02*
X177889000Y-49433000D01*
X204599000Y-67333000D02*
X206379000Y-65553000D01*
X189659000Y-102523000D02*
X203879000Y-102523000D01*
X195789000Y-67333000D02*
X204599000Y-67333000D01*
X177889000Y-49433000D02*
X195789000Y-67333000D01*
X203879000Y-102523000D02*
X203959000Y-102443000D01*
X195789000Y-67333000D02*
X195789000Y-74163000D01*
%TO.N,C0*%
X176779000Y-64673000D02*
X176779000Y-64703000D01*
X245879000Y-82743000D02*
X246099000Y-82523000D01*
X217240000Y-86194000D02*
X217240000Y-103152000D01*
X197119000Y-104253000D02*
X197049000Y-104183000D01*
X175799000Y-80773000D02*
X177909000Y-82883000D01*
X177919000Y-104633000D02*
X196599000Y-104633000D01*
X217240000Y-103152000D02*
X216139000Y-104253000D01*
X197069000Y-86763000D02*
X198759000Y-88453000D01*
X166619000Y-51973000D02*
X166619000Y-49433000D01*
X176779000Y-59593000D02*
X176779000Y-62133000D01*
X176779000Y-64673000D02*
X176779000Y-62133000D01*
X196599000Y-104633000D02*
X197049000Y-104183000D01*
X240879000Y-82743000D02*
X245879000Y-82743000D01*
X170899000Y-95723000D02*
X177909000Y-88713000D01*
X240879000Y-82743000D02*
X234578000Y-89044000D01*
X177909000Y-82883000D02*
X177909000Y-85503000D01*
X176779000Y-64703000D02*
X179469000Y-67393000D01*
X197069000Y-85303000D02*
X197069000Y-86763000D01*
X240879000Y-83310100D02*
X241045100Y-83144000D01*
X170899000Y-95723000D02*
X177919000Y-102743000D01*
X216139000Y-104253000D02*
X197119000Y-104253000D01*
X177909000Y-88713000D02*
X177909000Y-85503000D01*
X216159000Y-85113000D02*
X217240000Y-86194000D01*
X176779000Y-59593000D02*
X178589000Y-59593000D01*
X172809000Y-76613000D02*
X173999000Y-77803000D01*
X220090000Y-89044000D02*
X216159000Y-85113000D01*
X161529000Y-49433000D02*
X166619000Y-49433000D01*
X170859000Y-76613000D02*
X172809000Y-76613000D01*
X177919000Y-102743000D02*
X177919000Y-104633000D01*
X176779000Y-62133000D02*
X166619000Y-51973000D01*
X234578000Y-89044000D02*
X220090000Y-89044000D01*
%TO.N,Net-(D12-A)*%
X176639000Y-79153000D02*
X177909000Y-77883000D01*
X164509000Y-79153000D02*
X176639000Y-79153000D01*
%TO.N,B*%
X174209000Y-69733000D02*
X177099000Y-69733000D01*
X161529000Y-57053000D02*
X174209000Y-69733000D01*
%TO.N,A*%
X161529000Y-54513000D02*
X161969000Y-54513000D01*
X161969000Y-54513000D02*
X164809000Y-57353000D01*
X158428000Y-48332000D02*
X158478000Y-48282000D01*
X191918000Y-48282000D02*
X226379000Y-82743000D01*
X158428000Y-52449760D02*
X158428000Y-48332000D01*
X188329000Y-50823000D02*
X189377000Y-50823000D01*
X161529000Y-54513000D02*
X160491240Y-54513000D01*
X189377000Y-50823000D02*
X191918000Y-48282000D01*
X160491240Y-54513000D02*
X158428000Y-52449760D01*
%TO.N,C1*%
X161529000Y-51973000D02*
X186169000Y-76613000D01*
X194090000Y-76124057D02*
X194090000Y-91622000D01*
X191108999Y-75513001D02*
X193478944Y-75513001D01*
X186169000Y-76613000D02*
X190009000Y-76613000D01*
X193478944Y-75513001D02*
X194090000Y-76124057D01*
X194090000Y-91622000D02*
X190039000Y-95673000D01*
X190009000Y-76613000D02*
X191108999Y-75513001D01*
%TO.N,C2*%
X210669000Y-78153000D02*
X210669000Y-78273000D01*
X209169000Y-76653000D02*
X210669000Y-78153000D01*
X170139000Y-73283000D02*
X181039000Y-73283000D01*
X161529000Y-64673000D02*
X170139000Y-73283000D01*
%TO.N,SDA*%
X211039000Y-71113000D02*
X211809000Y-70343000D01*
X205949000Y-71113000D02*
X211039000Y-71113000D01*
X161529000Y-59593000D02*
X172919000Y-70983000D01*
X172919000Y-70983000D02*
X179059000Y-70983000D01*
%TO.N,SCL*%
X161529000Y-62133000D02*
X160491240Y-62133000D01*
X160491240Y-62133000D02*
X158027000Y-59668760D01*
X158027000Y-48165900D02*
X158311900Y-47881000D01*
X158027000Y-59668760D02*
X158027000Y-48165900D01*
X158311900Y-47881000D02*
X231517000Y-47881000D01*
X231517000Y-47881000D02*
X240859000Y-57223000D01*
%TO.N,Net-(D13-A)*%
X171909000Y-98263000D02*
X172179000Y-98533000D01*
X164549000Y-98263000D02*
X171909000Y-98263000D01*
%TO.N,Net-(D14-A)*%
X190709000Y-79153000D02*
X193489000Y-76373000D01*
X183659000Y-79153000D02*
X190709000Y-79153000D01*
%TO.N,Net-(D15-A)*%
X183689000Y-98213000D02*
X195399000Y-98213000D01*
X195399000Y-98213000D02*
X197049000Y-96563000D01*
%TO.N,Net-(D16-A)*%
X202819000Y-79193000D02*
X214459000Y-79193000D01*
X214459000Y-79193000D02*
X216159000Y-77493000D01*
%TO.N,Net-(D17-A)*%
X202819000Y-98213000D02*
X214559000Y-98213000D01*
X214559000Y-98213000D02*
X216139000Y-96633000D01*
%TO.N,LED*%
X184339000Y-63575240D02*
X184339000Y-73363000D01*
X176779000Y-57053000D02*
X178939000Y-57053000D01*
X176779000Y-57053000D02*
X177816760Y-57053000D01*
X177816760Y-57053000D02*
X184339000Y-63575240D01*
%TO.N,Net-(D1-DOUT)*%
X172809000Y-83873000D02*
X176589000Y-87653000D01*
%TD*%
M02*
