%TF.GenerationSoftware,KiCad,Pcbnew,9.0.7*%
%TF.CreationDate,2026-02-22T10:45:32+05:30*%
%TF.ProjectId,Pomopad,506f6d6f-7061-4642-9e6b-696361645f70,rev?*%
%TF.SameCoordinates,Original*%
%TF.FileFunction,Legend,Bot*%
%TF.FilePolarity,Positive*%
%FSLAX46Y46*%
G04 Gerber Fmt 4.6, Leading zero omitted, Abs format (unit mm)*
G04 Created by KiCad (PCBNEW 9.0.7) date 2026-02-22 10:45:32*
%MOMM*%
%LPD*%
G01*
G04 APERTURE LIST*
%ADD10C,0.150000*%
%ADD11C,0.100000*%
%ADD12C,0.120000*%
G04 APERTURE END LIST*
D10*
X69834819Y-148725714D02*
X68834819Y-148725714D01*
X68834819Y-148725714D02*
X68834819Y-148963809D01*
X68834819Y-148963809D02*
X68882438Y-149106666D01*
X68882438Y-149106666D02*
X68977676Y-149201904D01*
X68977676Y-149201904D02*
X69072914Y-149249523D01*
X69072914Y-149249523D02*
X69263390Y-149297142D01*
X69263390Y-149297142D02*
X69406247Y-149297142D01*
X69406247Y-149297142D02*
X69596723Y-149249523D01*
X69596723Y-149249523D02*
X69691961Y-149201904D01*
X69691961Y-149201904D02*
X69787200Y-149106666D01*
X69787200Y-149106666D02*
X69834819Y-148963809D01*
X69834819Y-148963809D02*
X69834819Y-148725714D01*
X69834819Y-150249523D02*
X69834819Y-149678095D01*
X69834819Y-149963809D02*
X68834819Y-149963809D01*
X68834819Y-149963809D02*
X68977676Y-149868571D01*
X68977676Y-149868571D02*
X69072914Y-149773333D01*
X69072914Y-149773333D02*
X69120533Y-149678095D01*
X68930057Y-150630476D02*
X68882438Y-150678095D01*
X68882438Y-150678095D02*
X68834819Y-150773333D01*
X68834819Y-150773333D02*
X68834819Y-151011428D01*
X68834819Y-151011428D02*
X68882438Y-151106666D01*
X68882438Y-151106666D02*
X68930057Y-151154285D01*
X68930057Y-151154285D02*
X69025295Y-151201904D01*
X69025295Y-151201904D02*
X69120533Y-151201904D01*
X69120533Y-151201904D02*
X69263390Y-151154285D01*
X69263390Y-151154285D02*
X69834819Y-150582857D01*
X69834819Y-150582857D02*
X69834819Y-151201904D01*
X69514819Y-153488095D02*
X68514819Y-153488095D01*
X69514819Y-154059523D02*
X68943390Y-153630952D01*
X68514819Y-154059523D02*
X69086247Y-153488095D01*
X88974819Y-167405714D02*
X87974819Y-167405714D01*
X87974819Y-167405714D02*
X87974819Y-167643809D01*
X87974819Y-167643809D02*
X88022438Y-167786666D01*
X88022438Y-167786666D02*
X88117676Y-167881904D01*
X88117676Y-167881904D02*
X88212914Y-167929523D01*
X88212914Y-167929523D02*
X88403390Y-167977142D01*
X88403390Y-167977142D02*
X88546247Y-167977142D01*
X88546247Y-167977142D02*
X88736723Y-167929523D01*
X88736723Y-167929523D02*
X88831961Y-167881904D01*
X88831961Y-167881904D02*
X88927200Y-167786666D01*
X88927200Y-167786666D02*
X88974819Y-167643809D01*
X88974819Y-167643809D02*
X88974819Y-167405714D01*
X88974819Y-168929523D02*
X88974819Y-168358095D01*
X88974819Y-168643809D02*
X87974819Y-168643809D01*
X87974819Y-168643809D02*
X88117676Y-168548571D01*
X88117676Y-168548571D02*
X88212914Y-168453333D01*
X88212914Y-168453333D02*
X88260533Y-168358095D01*
X87974819Y-169834285D02*
X87974819Y-169358095D01*
X87974819Y-169358095D02*
X88451009Y-169310476D01*
X88451009Y-169310476D02*
X88403390Y-169358095D01*
X88403390Y-169358095D02*
X88355771Y-169453333D01*
X88355771Y-169453333D02*
X88355771Y-169691428D01*
X88355771Y-169691428D02*
X88403390Y-169786666D01*
X88403390Y-169786666D02*
X88451009Y-169834285D01*
X88451009Y-169834285D02*
X88546247Y-169881904D01*
X88546247Y-169881904D02*
X88784342Y-169881904D01*
X88784342Y-169881904D02*
X88879580Y-169834285D01*
X88879580Y-169834285D02*
X88927200Y-169786666D01*
X88927200Y-169786666D02*
X88974819Y-169691428D01*
X88974819Y-169691428D02*
X88974819Y-169453333D01*
X88974819Y-169453333D02*
X88927200Y-169358095D01*
X88927200Y-169358095D02*
X88879580Y-169310476D01*
X88654819Y-172168095D02*
X87654819Y-172168095D01*
X88654819Y-172739523D02*
X88083390Y-172310952D01*
X87654819Y-172739523D02*
X88226247Y-172168095D01*
X108064819Y-167475714D02*
X107064819Y-167475714D01*
X107064819Y-167475714D02*
X107064819Y-167713809D01*
X107064819Y-167713809D02*
X107112438Y-167856666D01*
X107112438Y-167856666D02*
X107207676Y-167951904D01*
X107207676Y-167951904D02*
X107302914Y-167999523D01*
X107302914Y-167999523D02*
X107493390Y-168047142D01*
X107493390Y-168047142D02*
X107636247Y-168047142D01*
X107636247Y-168047142D02*
X107826723Y-167999523D01*
X107826723Y-167999523D02*
X107921961Y-167951904D01*
X107921961Y-167951904D02*
X108017200Y-167856666D01*
X108017200Y-167856666D02*
X108064819Y-167713809D01*
X108064819Y-167713809D02*
X108064819Y-167475714D01*
X108064819Y-168999523D02*
X108064819Y-168428095D01*
X108064819Y-168713809D02*
X107064819Y-168713809D01*
X107064819Y-168713809D02*
X107207676Y-168618571D01*
X107207676Y-168618571D02*
X107302914Y-168523333D01*
X107302914Y-168523333D02*
X107350533Y-168428095D01*
X107064819Y-169332857D02*
X107064819Y-169999523D01*
X107064819Y-169999523D02*
X108064819Y-169570952D01*
X107744819Y-172238095D02*
X106744819Y-172238095D01*
X107744819Y-172809523D02*
X107173390Y-172380952D01*
X106744819Y-172809523D02*
X107316247Y-172238095D01*
X108084819Y-148335714D02*
X107084819Y-148335714D01*
X107084819Y-148335714D02*
X107084819Y-148573809D01*
X107084819Y-148573809D02*
X107132438Y-148716666D01*
X107132438Y-148716666D02*
X107227676Y-148811904D01*
X107227676Y-148811904D02*
X107322914Y-148859523D01*
X107322914Y-148859523D02*
X107513390Y-148907142D01*
X107513390Y-148907142D02*
X107656247Y-148907142D01*
X107656247Y-148907142D02*
X107846723Y-148859523D01*
X107846723Y-148859523D02*
X107941961Y-148811904D01*
X107941961Y-148811904D02*
X108037200Y-148716666D01*
X108037200Y-148716666D02*
X108084819Y-148573809D01*
X108084819Y-148573809D02*
X108084819Y-148335714D01*
X108084819Y-149859523D02*
X108084819Y-149288095D01*
X108084819Y-149573809D02*
X107084819Y-149573809D01*
X107084819Y-149573809D02*
X107227676Y-149478571D01*
X107227676Y-149478571D02*
X107322914Y-149383333D01*
X107322914Y-149383333D02*
X107370533Y-149288095D01*
X107084819Y-150716666D02*
X107084819Y-150526190D01*
X107084819Y-150526190D02*
X107132438Y-150430952D01*
X107132438Y-150430952D02*
X107180057Y-150383333D01*
X107180057Y-150383333D02*
X107322914Y-150288095D01*
X107322914Y-150288095D02*
X107513390Y-150240476D01*
X107513390Y-150240476D02*
X107894342Y-150240476D01*
X107894342Y-150240476D02*
X107989580Y-150288095D01*
X107989580Y-150288095D02*
X108037200Y-150335714D01*
X108037200Y-150335714D02*
X108084819Y-150430952D01*
X108084819Y-150430952D02*
X108084819Y-150621428D01*
X108084819Y-150621428D02*
X108037200Y-150716666D01*
X108037200Y-150716666D02*
X107989580Y-150764285D01*
X107989580Y-150764285D02*
X107894342Y-150811904D01*
X107894342Y-150811904D02*
X107656247Y-150811904D01*
X107656247Y-150811904D02*
X107561009Y-150764285D01*
X107561009Y-150764285D02*
X107513390Y-150716666D01*
X107513390Y-150716666D02*
X107465771Y-150621428D01*
X107465771Y-150621428D02*
X107465771Y-150430952D01*
X107465771Y-150430952D02*
X107513390Y-150335714D01*
X107513390Y-150335714D02*
X107561009Y-150288095D01*
X107561009Y-150288095D02*
X107656247Y-150240476D01*
X107764819Y-153098095D02*
X106764819Y-153098095D01*
X107764819Y-153669523D02*
X107193390Y-153240952D01*
X106764819Y-153669523D02*
X107336247Y-153098095D01*
X88994819Y-148525714D02*
X87994819Y-148525714D01*
X87994819Y-148525714D02*
X87994819Y-148763809D01*
X87994819Y-148763809D02*
X88042438Y-148906666D01*
X88042438Y-148906666D02*
X88137676Y-149001904D01*
X88137676Y-149001904D02*
X88232914Y-149049523D01*
X88232914Y-149049523D02*
X88423390Y-149097142D01*
X88423390Y-149097142D02*
X88566247Y-149097142D01*
X88566247Y-149097142D02*
X88756723Y-149049523D01*
X88756723Y-149049523D02*
X88851961Y-149001904D01*
X88851961Y-149001904D02*
X88947200Y-148906666D01*
X88947200Y-148906666D02*
X88994819Y-148763809D01*
X88994819Y-148763809D02*
X88994819Y-148525714D01*
X88994819Y-150049523D02*
X88994819Y-149478095D01*
X88994819Y-149763809D02*
X87994819Y-149763809D01*
X87994819Y-149763809D02*
X88137676Y-149668571D01*
X88137676Y-149668571D02*
X88232914Y-149573333D01*
X88232914Y-149573333D02*
X88280533Y-149478095D01*
X88328152Y-150906666D02*
X88994819Y-150906666D01*
X87947200Y-150668571D02*
X88661485Y-150430476D01*
X88661485Y-150430476D02*
X88661485Y-151049523D01*
X88674819Y-153288095D02*
X87674819Y-153288095D01*
X88674819Y-153859523D02*
X88103390Y-153430952D01*
X87674819Y-153859523D02*
X88246247Y-153288095D01*
X69844819Y-167855714D02*
X68844819Y-167855714D01*
X68844819Y-167855714D02*
X68844819Y-168093809D01*
X68844819Y-168093809D02*
X68892438Y-168236666D01*
X68892438Y-168236666D02*
X68987676Y-168331904D01*
X68987676Y-168331904D02*
X69082914Y-168379523D01*
X69082914Y-168379523D02*
X69273390Y-168427142D01*
X69273390Y-168427142D02*
X69416247Y-168427142D01*
X69416247Y-168427142D02*
X69606723Y-168379523D01*
X69606723Y-168379523D02*
X69701961Y-168331904D01*
X69701961Y-168331904D02*
X69797200Y-168236666D01*
X69797200Y-168236666D02*
X69844819Y-168093809D01*
X69844819Y-168093809D02*
X69844819Y-167855714D01*
X69844819Y-169379523D02*
X69844819Y-168808095D01*
X69844819Y-169093809D02*
X68844819Y-169093809D01*
X68844819Y-169093809D02*
X68987676Y-168998571D01*
X68987676Y-168998571D02*
X69082914Y-168903333D01*
X69082914Y-168903333D02*
X69130533Y-168808095D01*
X68844819Y-169712857D02*
X68844819Y-170331904D01*
X68844819Y-170331904D02*
X69225771Y-169998571D01*
X69225771Y-169998571D02*
X69225771Y-170141428D01*
X69225771Y-170141428D02*
X69273390Y-170236666D01*
X69273390Y-170236666D02*
X69321009Y-170284285D01*
X69321009Y-170284285D02*
X69416247Y-170331904D01*
X69416247Y-170331904D02*
X69654342Y-170331904D01*
X69654342Y-170331904D02*
X69749580Y-170284285D01*
X69749580Y-170284285D02*
X69797200Y-170236666D01*
X69797200Y-170236666D02*
X69844819Y-170141428D01*
X69844819Y-170141428D02*
X69844819Y-169855714D01*
X69844819Y-169855714D02*
X69797200Y-169760476D01*
X69797200Y-169760476D02*
X69749580Y-169712857D01*
X69524819Y-172618095D02*
X68524819Y-172618095D01*
X69524819Y-173189523D02*
X68953390Y-172760952D01*
X68524819Y-173189523D02*
X69096247Y-172618095D01*
X138024819Y-153365714D02*
X137024819Y-153365714D01*
X137024819Y-153365714D02*
X137024819Y-153603809D01*
X137024819Y-153603809D02*
X137072438Y-153746666D01*
X137072438Y-153746666D02*
X137167676Y-153841904D01*
X137167676Y-153841904D02*
X137262914Y-153889523D01*
X137262914Y-153889523D02*
X137453390Y-153937142D01*
X137453390Y-153937142D02*
X137596247Y-153937142D01*
X137596247Y-153937142D02*
X137786723Y-153889523D01*
X137786723Y-153889523D02*
X137881961Y-153841904D01*
X137881961Y-153841904D02*
X137977200Y-153746666D01*
X137977200Y-153746666D02*
X138024819Y-153603809D01*
X138024819Y-153603809D02*
X138024819Y-153365714D01*
X138024819Y-154889523D02*
X138024819Y-154318095D01*
X138024819Y-154603809D02*
X137024819Y-154603809D01*
X137024819Y-154603809D02*
X137167676Y-154508571D01*
X137167676Y-154508571D02*
X137262914Y-154413333D01*
X137262914Y-154413333D02*
X137310533Y-154318095D01*
X138024819Y-155841904D02*
X138024819Y-155270476D01*
X138024819Y-155556190D02*
X137024819Y-155556190D01*
X137024819Y-155556190D02*
X137167676Y-155460952D01*
X137167676Y-155460952D02*
X137262914Y-155365714D01*
X137262914Y-155365714D02*
X137310533Y-155270476D01*
X137704819Y-158128095D02*
X136704819Y-158128095D01*
X137704819Y-158699523D02*
X137133390Y-158270952D01*
X136704819Y-158699523D02*
X137276247Y-158128095D01*
D11*
%TO.C,D1*%
X61670001Y-156247158D02*
X60770001Y-156247158D01*
X61670001Y-155347158D01*
X61670001Y-156247158D01*
G36*
X61670001Y-156247158D02*
G01*
X60770001Y-156247158D01*
X61670001Y-155347158D01*
X61670001Y-156247158D01*
G37*
%TO.C,D2*%
X80990000Y-156510000D02*
X80090000Y-156510000D01*
X80990000Y-155610000D01*
X80990000Y-156510000D01*
G36*
X80990000Y-156510000D02*
G01*
X80090000Y-156510000D01*
X80990000Y-155610000D01*
X80990000Y-156510000D01*
G37*
%TO.C,D8*%
X61960000Y-175360000D02*
X61060000Y-175360000D01*
X61960000Y-174460000D01*
X61960000Y-175360000D01*
G36*
X61960000Y-175360000D02*
G01*
X61060000Y-175360000D01*
X61960000Y-174460000D01*
X61960000Y-175360000D01*
G37*
%TO.C,D7*%
X81337500Y-175150000D02*
X80437500Y-175150000D01*
X81337500Y-174250000D01*
X81337500Y-175150000D01*
G36*
X81337500Y-175150000D02*
G01*
X80437500Y-175150000D01*
X81337500Y-174250000D01*
X81337500Y-175150000D01*
G37*
%TO.C,D6*%
X100137500Y-175150000D02*
X99237500Y-175150000D01*
X100137500Y-174250000D01*
X100137500Y-175150000D01*
G36*
X100137500Y-175150000D02*
G01*
X99237500Y-175150000D01*
X100137500Y-174250000D01*
X100137500Y-175150000D01*
G37*
%TO.C,D3*%
X100140001Y-156247158D02*
X99240001Y-156247158D01*
X100140001Y-155347158D01*
X100140001Y-156247158D01*
G36*
X100140001Y-156247158D02*
G01*
X99240001Y-156247158D01*
X100140001Y-155347158D01*
X100140001Y-156247158D01*
G37*
D12*
%TO.C,D12*%
X67260000Y-147170000D02*
X67260000Y-147820000D01*
X67260000Y-152710000D02*
X67260000Y-152060000D01*
X68380000Y-151220000D02*
X66140000Y-151220000D01*
X68380000Y-151340000D02*
X66140000Y-151340000D01*
X68380000Y-151460000D02*
X66140000Y-151460000D01*
X68380000Y-152060000D02*
X66140000Y-152060000D01*
X66140000Y-147820000D01*
X68380000Y-147820000D01*
X68380000Y-152060000D01*
%TO.C,D15*%
X86400000Y-165850000D02*
X86400000Y-166500000D01*
X86400000Y-171390000D02*
X86400000Y-170740000D01*
X87520000Y-169900000D02*
X85280000Y-169900000D01*
X87520000Y-170020000D02*
X85280000Y-170020000D01*
X87520000Y-170140000D02*
X85280000Y-170140000D01*
X87520000Y-170740000D02*
X85280000Y-170740000D01*
X85280000Y-166500000D01*
X87520000Y-166500000D01*
X87520000Y-170740000D01*
%TO.C,D17*%
X105490000Y-165920000D02*
X105490000Y-166570000D01*
X105490000Y-171460000D02*
X105490000Y-170810000D01*
X106610000Y-169970000D02*
X104370000Y-169970000D01*
X106610000Y-170090000D02*
X104370000Y-170090000D01*
X106610000Y-170210000D02*
X104370000Y-170210000D01*
X106610000Y-170810000D02*
X104370000Y-170810000D01*
X104370000Y-166570000D01*
X106610000Y-166570000D01*
X106610000Y-170810000D01*
%TO.C,D16*%
X105510000Y-146780000D02*
X105510000Y-147430000D01*
X105510000Y-152320000D02*
X105510000Y-151670000D01*
X106630000Y-150830000D02*
X104390000Y-150830000D01*
X106630000Y-150950000D02*
X104390000Y-150950000D01*
X106630000Y-151070000D02*
X104390000Y-151070000D01*
X106630000Y-151670000D02*
X104390000Y-151670000D01*
X104390000Y-147430000D01*
X106630000Y-147430000D01*
X106630000Y-151670000D01*
%TO.C,D14*%
X86420000Y-146970000D02*
X86420000Y-147620000D01*
X86420000Y-152510000D02*
X86420000Y-151860000D01*
X87540000Y-151020000D02*
X85300000Y-151020000D01*
X87540000Y-151140000D02*
X85300000Y-151140000D01*
X87540000Y-151260000D02*
X85300000Y-151260000D01*
X87540000Y-151860000D02*
X85300000Y-151860000D01*
X85300000Y-147620000D01*
X87540000Y-147620000D01*
X87540000Y-151860000D01*
%TO.C,D13*%
X67270000Y-166300000D02*
X67270000Y-166950000D01*
X67270000Y-171840000D02*
X67270000Y-171190000D01*
X68390000Y-170350000D02*
X66150000Y-170350000D01*
X68390000Y-170470000D02*
X66150000Y-170470000D01*
X68390000Y-170590000D02*
X66150000Y-170590000D01*
X68390000Y-171190000D02*
X66150000Y-171190000D01*
X66150000Y-166950000D01*
X68390000Y-166950000D01*
X68390000Y-171190000D01*
%TO.C,D11*%
X135450000Y-151810000D02*
X135450000Y-152460000D01*
X135450000Y-157350000D02*
X135450000Y-156700000D01*
X136570000Y-155860000D02*
X134330000Y-155860000D01*
X136570000Y-155980000D02*
X134330000Y-155980000D01*
X136570000Y-156100000D02*
X134330000Y-156100000D01*
X136570000Y-156700000D02*
X134330000Y-156700000D01*
X134330000Y-152460000D01*
X136570000Y-152460000D01*
X136570000Y-156700000D01*
%TD*%
M02*
