M48
; DRILL file {KiCad 9.0.7} date 2026-02-26T06:36:35+0530
; FORMAT={-:-/ absolute / metric / decimal}
; #@! TF.CreationDate,2026-02-26T06:36:35+05:30
; #@! TF.GenerationSoftware,Kicad,Pcbnew,9.0.7
; #@! TF.FileFunction,Plated,1,2,PTH
FMAT,2
METRIC
; #@! TA.AperFunction,Plated,PTH,ViaDrill
T1C0.300
; #@! TA.AperFunction,Plated,PTH,ComponentDrill
T2C0.800
; #@! TA.AperFunction,Plated,PTH,ComponentDrill
T3C1.000
; #@! TA.AperFunction,Plated,PTH,ComponentDrill
T4C1.500
%
G90
G05
T1
X164.809Y-57.353
X172.179Y-98.533
X172.809Y-83.873
X173.999Y-77.803
X175.799Y-80.773
X176.589Y-87.653
X177.099Y-69.733
X179.059Y-70.983
X179.469Y-67.393
X181.039Y-73.283
X184.339Y-73.363
X188.329Y-50.823
X189.659Y-102.523
X193.489Y-76.373
X195.119Y-90.023
X195.789Y-74.163
X198.759Y-88.453
X203.959Y-102.443
X205.189Y-89.903
X205.949Y-71.113
X206.379Y-65.553
X209.549Y-89.913
X210.669Y-78.273
X211.579Y-90.703
X211.809Y-70.343
X215.269Y-89.593
X222.849Y-87.253
T2
X177.909Y-77.883
X177.909Y-85.503
X177.919Y-97.013
X177.919Y-104.633
X197.049Y-96.563
X197.049Y-104.183
X197.069Y-77.683
X197.069Y-85.303
X216.139Y-96.633
X216.139Y-104.253
X216.159Y-77.493
X216.159Y-85.113
X246.099Y-82.523
X246.099Y-90.143
T3
X161.529Y-49.433
X161.529Y-51.973
X161.529Y-54.513
X161.529Y-57.053
X161.529Y-59.593
X161.529Y-62.133
X161.529Y-64.673
X176.779Y-49.433
X176.779Y-51.973
X176.779Y-54.513
X176.779Y-57.053
X176.779Y-59.593
X176.779Y-62.133
X176.779Y-64.673
X226.379Y-82.743
X226.379Y-85.243
X226.379Y-87.743
X240.859Y-52.143
X240.859Y-54.683
X240.859Y-57.223
X240.859Y-59.763
X240.879Y-82.743
X240.879Y-87.743
T4
X164.509Y-79.153
X164.549Y-98.263
X170.859Y-76.613
X170.899Y-95.723
X183.659Y-79.153
X183.689Y-98.213
X190.009Y-76.613
X190.039Y-95.673
X202.819Y-79.193
X202.819Y-98.213
X209.169Y-76.653
X209.169Y-95.673
T4
G00X233.229Y-79.643
M15
G01X234.529Y-79.643
M16
G05
G00X233.229Y-90.843
M15
G01X234.529Y-90.843
M16
G05
M30
