%TF.GenerationSoftware,KiCad,Pcbnew,9.0.7*%
%TF.CreationDate,2026-02-22T10:45:32+05:30*%
%TF.ProjectId,Pomopad,506f6d6f-7061-4642-9e6b-696361645f70,rev?*%
%TF.SameCoordinates,Original*%
%TF.FileFunction,Copper,L2,Bot*%
%TF.FilePolarity,Positive*%
%FSLAX46Y46*%
G04 Gerber Fmt 4.6, Leading zero omitted, Abs format (unit mm)*
G04 Created by KiCad (PCBNEW 9.0.7) date 2026-02-22 10:45:32*
%MOMM*%
%LPD*%
G01*
G04 APERTURE LIST*
G04 Aperture macros list*
%AMRoundRect*
0 Rectangle with rounded corners*
0 $1 Rounding radius*
0 $2 $3 $4 $5 $6 $7 $8 $9 X,Y pos of 4 corners*
0 Add a 4 corners polygon primitive as box body*
4,1,4,$2,$3,$4,$5,$6,$7,$8,$9,$2,$3,0*
0 Add four circle primitives for the rounded corners*
1,1,$1+$1,$2,$3*
1,1,$1+$1,$4,$5*
1,1,$1+$1,$6,$7*
1,1,$1+$1,$8,$9*
0 Add four rect primitives between the rounded corners*
20,1,$1+$1,$2,$3,$4,$5,0*
20,1,$1+$1,$4,$5,$6,$7,0*
20,1,$1+$1,$6,$7,$8,$9,0*
20,1,$1+$1,$8,$9,$2,$3,0*%
G04 Aperture macros list end*
%TA.AperFunction,ComponentPad*%
%ADD10C,2.200000*%
%TD*%
%TA.AperFunction,SMDPad,CuDef*%
%ADD11RoundRect,0.082000X-0.718000X0.328000X-0.718000X-0.328000X0.718000X-0.328000X0.718000X0.328000X0*%
%TD*%
%TA.AperFunction,ComponentPad*%
%ADD12R,2.000000X2.000000*%
%TD*%
%TA.AperFunction,ComponentPad*%
%ADD13C,2.000000*%
%TD*%
%TA.AperFunction,ComponentPad*%
%ADD14R,3.200000X2.000000*%
%TD*%
%TA.AperFunction,ComponentPad*%
%ADD15R,3.500000X1.700000*%
%TD*%
%TA.AperFunction,ComponentPad*%
%ADD16O,3.600000X1.700000*%
%TD*%
%TA.AperFunction,ComponentPad*%
%ADD17O,3.700000X1.700000*%
%TD*%
%TA.AperFunction,ComponentPad*%
%ADD18R,1.700000X1.700000*%
%TD*%
%TA.AperFunction,ComponentPad*%
%ADD19O,1.700000X1.700000*%
%TD*%
%TA.AperFunction,ComponentPad*%
%ADD20RoundRect,0.250000X0.550000X-0.550000X0.550000X0.550000X-0.550000X0.550000X-0.550000X-0.550000X0*%
%TD*%
%TA.AperFunction,ComponentPad*%
%ADD21C,1.600000*%
%TD*%
%TA.AperFunction,ViaPad*%
%ADD22C,0.600000*%
%TD*%
%TA.AperFunction,Conductor*%
%ADD23C,0.200000*%
%TD*%
G04 APERTURE END LIST*
D10*
%TO.P,SW7,1,1*%
%TO.N,C2*%
X98520000Y-163920000D03*
%TO.P,SW7,2,2*%
%TO.N,Net-(D17-A)*%
X92170000Y-166460000D03*
%TD*%
D11*
%TO.P,D1,1,VDD*%
%TO.N,+5V*%
X54870001Y-153597158D03*
%TO.P,D1,2,DOUT*%
%TO.N,Net-(D1-DOUT)*%
X54870001Y-155097158D03*
%TO.P,D1,3,VSS*%
%TO.N,GND*%
X60070001Y-155097158D03*
%TO.P,D1,4,DIN*%
%TO.N,LED*%
X60070001Y-153597158D03*
%TD*%
%TO.P,D2,1,VDD*%
%TO.N,+5V*%
X74190000Y-153860000D03*
%TO.P,D2,2,DOUT*%
%TO.N,Net-(D2-DOUT)*%
X74190000Y-155360000D03*
%TO.P,D2,3,VSS*%
%TO.N,GND*%
X79390000Y-155360000D03*
%TO.P,D2,4,DIN*%
%TO.N,Net-(D2-DIN)*%
X79390000Y-153860000D03*
%TD*%
%TO.P,D8,1,VDD*%
%TO.N,+5V*%
X55160000Y-172710000D03*
%TO.P,D8,2,DOUT*%
%TO.N,Net-(D10-DIN)*%
X55160000Y-174210000D03*
%TO.P,D8,3,VSS*%
%TO.N,GND*%
X60360000Y-174210000D03*
%TO.P,D8,4,DIN*%
%TO.N,Net-(D6-DOUT)*%
X60360000Y-172710000D03*
%TD*%
D10*
%TO.P,SW6,1,1*%
%TO.N,C2*%
X98520000Y-144900000D03*
%TO.P,SW6,2,2*%
%TO.N,Net-(D16-A)*%
X92170000Y-147440000D03*
%TD*%
%TO.P,SW5,1,1*%
%TO.N,C1*%
X79390000Y-163920000D03*
%TO.P,SW5,2,2*%
%TO.N,Net-(D15-A)*%
X73040000Y-166460000D03*
%TD*%
D12*
%TO.P,SW1,A,A*%
%TO.N,A*%
X115730000Y-150990000D03*
D13*
%TO.P,SW1,B,B*%
%TO.N,B*%
X115730000Y-155990000D03*
%TO.P,SW1,C,C*%
%TO.N,GND*%
X115730000Y-153490000D03*
D14*
%TO.P,SW1,MP*%
%TO.N,N/C*%
X123230000Y-147890000D03*
X123230000Y-159090000D03*
D13*
%TO.P,SW1,S1,S1*%
%TO.N,Net-(D11-K)*%
X130230000Y-155990000D03*
%TO.P,SW1,S2,S2*%
%TO.N,C0*%
X130230000Y-150990000D03*
%TD*%
D11*
%TO.P,D7,1,VDD*%
%TO.N,+5V*%
X74537500Y-172500000D03*
%TO.P,D7,2,DOUT*%
%TO.N,Net-(D7-DOUT)*%
X74537500Y-174000000D03*
%TO.P,D7,3,VSS*%
%TO.N,GND*%
X79737500Y-174000000D03*
%TO.P,D7,4,DIN*%
%TO.N,Net-(D5-DOUT)*%
X79737500Y-172500000D03*
%TD*%
D15*
%TO.P,U1,1,PA02_A0_D0*%
%TO.N,C0*%
X49880000Y-117680000D03*
D16*
%TO.P,U1,2,PA4_A1_D1*%
%TO.N,C1*%
X49880000Y-120220000D03*
%TO.P,U1,3,PA10_A2_D2*%
%TO.N,A*%
X49880000Y-122760000D03*
%TO.P,U1,4,PA11_A3_D3*%
%TO.N,B*%
X49880000Y-125300000D03*
%TO.P,U1,5,PA8_A4_D4_SDA*%
%TO.N,SDA*%
X49880000Y-127840000D03*
%TO.P,U1,6,PA9_A5_D5_SCL*%
%TO.N,SCL*%
X49880000Y-130380000D03*
%TO.P,U1,7,PB08_A6_D6_TX*%
%TO.N,C3*%
X49880000Y-132920000D03*
%TO.P,U1,8,PB09_A7_D7_RX*%
%TO.N,C0*%
X67130000Y-132920000D03*
%TO.P,U1,9,PA7_A8_D8_SCK*%
X67130000Y-130380000D03*
%TO.P,U1,10,PA5_A9_D9_MISO*%
X67130000Y-127840000D03*
D17*
%TO.P,U1,11,PA6_A10_D10_MOSI*%
%TO.N,LED*%
X67130000Y-125300000D03*
%TO.P,U1,12,3V3*%
%TO.N,unconnected-(U1-3V3-Pad12)*%
X67130000Y-122760000D03*
%TO.P,U1,13,GND*%
%TO.N,GND*%
X67130000Y-120220000D03*
%TO.P,U1,14,5V*%
%TO.N,+5V*%
X67130000Y-117680000D03*
%TD*%
D10*
%TO.P,SW3,1,1*%
%TO.N,C0*%
X60250000Y-163970000D03*
%TO.P,SW3,2,2*%
%TO.N,Net-(D13-A)*%
X53900000Y-166510000D03*
%TD*%
D11*
%TO.P,D6,1,VDD*%
%TO.N,+5V*%
X93337500Y-172500000D03*
%TO.P,D6,2,DOUT*%
%TO.N,Net-(D6-DOUT)*%
X93337500Y-174000000D03*
%TO.P,D6,3,VSS*%
%TO.N,GND*%
X98537500Y-174000000D03*
%TO.P,D6,4,DIN*%
%TO.N,Net-(D4-DOUT)*%
X98537500Y-172500000D03*
%TD*%
D10*
%TO.P,SW4,1,1*%
%TO.N,C1*%
X79360000Y-144860000D03*
%TO.P,SW4,2,2*%
%TO.N,Net-(D14-A)*%
X73010000Y-147400000D03*
%TD*%
D11*
%TO.P,D3,1,VDD*%
%TO.N,+5V*%
X93340001Y-153597158D03*
%TO.P,D3,2,DOUT*%
%TO.N,Net-(D3-DOUT)*%
X93340001Y-155097158D03*
%TO.P,D3,3,VSS*%
%TO.N,GND*%
X98540001Y-155097158D03*
%TO.P,D3,4,DIN*%
%TO.N,Net-(D1-DOUT)*%
X98540001Y-153597158D03*
%TD*%
D18*
%TO.P,J1,1,GND*%
%TO.N,GND*%
X130210000Y-120390000D03*
D19*
%TO.P,J1,2,VCC*%
%TO.N,+5V*%
X130210000Y-122930000D03*
%TO.P,J1,3,SCl*%
%TO.N,SCL*%
X130210000Y-125470000D03*
%TO.P,J1,4,SDA*%
%TO.N,SDA*%
X130210000Y-128010000D03*
%TD*%
D10*
%TO.P,SW2,1,1*%
%TO.N,C0*%
X60210000Y-144860000D03*
%TO.P,SW2,2,2*%
%TO.N,Net-(D12-A)*%
X53860000Y-147400000D03*
%TD*%
D20*
%TO.P,D12,1,K*%
%TO.N,C0*%
X67260000Y-153750000D03*
D21*
%TO.P,D12,2,A*%
%TO.N,Net-(D12-A)*%
X67260000Y-146130000D03*
%TD*%
D20*
%TO.P,D15,1,K*%
%TO.N,C0*%
X86400000Y-172430000D03*
D21*
%TO.P,D15,2,A*%
%TO.N,Net-(D15-A)*%
X86400000Y-164810000D03*
%TD*%
D20*
%TO.P,D17,1,K*%
%TO.N,C0*%
X105490000Y-172500000D03*
D21*
%TO.P,D17,2,A*%
%TO.N,Net-(D17-A)*%
X105490000Y-164880000D03*
%TD*%
D20*
%TO.P,D16,1,K*%
%TO.N,C0*%
X105510000Y-153360000D03*
D21*
%TO.P,D16,2,A*%
%TO.N,Net-(D16-A)*%
X105510000Y-145740000D03*
%TD*%
D20*
%TO.P,D14,1,K*%
%TO.N,C0*%
X86420000Y-153550000D03*
D21*
%TO.P,D14,2,A*%
%TO.N,Net-(D14-A)*%
X86420000Y-145930000D03*
%TD*%
D20*
%TO.P,D13,1,K*%
%TO.N,C0*%
X67270000Y-172880000D03*
D21*
%TO.P,D13,2,A*%
%TO.N,Net-(D13-A)*%
X67270000Y-165260000D03*
%TD*%
D20*
%TO.P,D11,1,K*%
%TO.N,Net-(D11-K)*%
X135450000Y-158390000D03*
D21*
%TO.P,D11,2,A*%
%TO.N,C0*%
X135450000Y-150770000D03*
%TD*%
D22*
%TO.N,GND*%
X94540000Y-158150000D03*
X112200000Y-155500000D03*
X104620000Y-157840000D03*
X84470000Y-158270000D03*
X98900000Y-158160000D03*
X100930000Y-158950000D03*
%TO.N,+5V*%
X93310000Y-170690000D03*
X85140000Y-142410000D03*
X79010000Y-170770000D03*
X95730000Y-133800000D03*
%TO.N,C0*%
X63350000Y-146050000D03*
X88110000Y-156700000D03*
X65150000Y-149020000D03*
X68820000Y-135640000D03*
%TO.N,B*%
X66450000Y-137980000D03*
%TO.N,C2*%
X100020000Y-146520000D03*
%TO.N,SDA*%
X101160000Y-138590000D03*
X95300000Y-139360000D03*
X68410000Y-139230000D03*
%TO.N,Net-(D13-A)*%
X61530000Y-166780000D03*
%TO.N,Net-(D14-A)*%
X82840000Y-144620000D03*
%TO.N,LED*%
X73690000Y-141610000D03*
%TO.N,Net-(D1-DOUT)*%
X65940000Y-155900000D03*
X62160000Y-152120000D03*
%TD*%
D23*
%TO.N,GND*%
X84470000Y-161261314D02*
X84470000Y-158270000D01*
X60360000Y-174210000D02*
X59560000Y-174210000D01*
X98537500Y-174000000D02*
X99337500Y-174000000D01*
X64502840Y-171999000D02*
X66484840Y-173981000D01*
X99859000Y-168502530D02*
X100930000Y-167431530D01*
X81560000Y-155360000D02*
X79390000Y-155360000D01*
X61260000Y-171999000D02*
X64502840Y-171999000D01*
X98540001Y-157800001D02*
X98900000Y-158160000D01*
X72966586Y-173981000D02*
X73658586Y-173289000D01*
X59259000Y-172221086D02*
X59481086Y-171999000D01*
X61260000Y-169275184D02*
X61260000Y-171999000D01*
X58849000Y-156318159D02*
X58849000Y-166864184D01*
X100930000Y-167431530D02*
X100930000Y-158950000D01*
X66484840Y-173981000D02*
X72966586Y-173981000D01*
X73658586Y-173289000D02*
X79026500Y-173289000D01*
X60392842Y-155097158D02*
X60070001Y-155097158D01*
X58849000Y-166864184D02*
X61260000Y-169275184D01*
X79026500Y-173289000D02*
X78936586Y-173289000D01*
X78936586Y-173289000D02*
X78636500Y-172988914D01*
X59259000Y-173909000D02*
X59259000Y-172221086D01*
X59481086Y-171999000D02*
X61260000Y-171999000D01*
X60070001Y-155097158D02*
X58849000Y-156318159D01*
X79610000Y-166121314D02*
X84470000Y-161261314D01*
X109860000Y-157840000D02*
X112200000Y-155500000D01*
X78636500Y-172011086D02*
X79610000Y-171037586D01*
X79026500Y-173289000D02*
X79737500Y-174000000D01*
X78636500Y-172988914D02*
X78636500Y-172011086D01*
X97592842Y-155097158D02*
X98540001Y-155097158D01*
X104620000Y-157840000D02*
X109860000Y-157840000D01*
X84470000Y-158270000D02*
X81560000Y-155360000D01*
X99859000Y-173478500D02*
X99859000Y-168502530D01*
X59560000Y-174210000D02*
X59259000Y-173909000D01*
X98540001Y-155097158D02*
X98540001Y-157800001D01*
X94540000Y-158150000D02*
X97592842Y-155097158D01*
X79610000Y-171037586D02*
X79610000Y-166121314D01*
X99337500Y-174000000D02*
X99859000Y-173478500D01*
%TO.N,+5V*%
X56269245Y-154310000D02*
X65933840Y-154310000D01*
X55160000Y-172710000D02*
X55301000Y-172569000D01*
X76224816Y-153860000D02*
X74190000Y-153860000D01*
X65933840Y-154310000D02*
X67122840Y-155499000D01*
X55971001Y-156448070D02*
X55971001Y-154608244D01*
X71422900Y-153860000D02*
X74190000Y-153860000D01*
X85140000Y-146210000D02*
X92527158Y-153597158D01*
X65691057Y-155299000D02*
X66922840Y-155299000D01*
X54959915Y-153597158D02*
X54870001Y-153597158D01*
X65339000Y-155651057D02*
X65691057Y-155299000D01*
X66922840Y-155299000D02*
X67016920Y-155393080D01*
X74537500Y-172500000D02*
X74537500Y-170069030D01*
X67122840Y-155499000D02*
X69783900Y-155499000D01*
X55301000Y-157118071D02*
X55971001Y-156448070D01*
X55301000Y-172569000D02*
X55301000Y-157118071D01*
X85140000Y-144944816D02*
X85140000Y-146210000D01*
X69783900Y-155499000D02*
X71422900Y-153860000D01*
X55971001Y-154608244D02*
X54959915Y-153597158D01*
X74537500Y-172500000D02*
X77280000Y-172500000D01*
X65339000Y-160870530D02*
X65339000Y-155651057D01*
X77280000Y-172500000D02*
X79010000Y-170770000D01*
X74537500Y-170069030D02*
X65339000Y-160870530D01*
X85140000Y-142410000D02*
X85140000Y-144944816D01*
X119340000Y-133800000D02*
X130210000Y-122930000D01*
X92527158Y-153597158D02*
X93340001Y-153597158D01*
X55971001Y-154608244D02*
X56269245Y-154310000D01*
X93310000Y-172472500D02*
X93337500Y-172500000D01*
X93310000Y-170690000D02*
X93310000Y-172472500D01*
X85140000Y-144944816D02*
X76224816Y-153860000D01*
X95730000Y-133800000D02*
X119340000Y-133800000D01*
%TO.N,C0*%
X60210000Y-143370057D02*
X60210000Y-144860000D01*
X88110000Y-171480000D02*
X87160000Y-172430000D01*
X87160000Y-172430000D02*
X86400000Y-172430000D01*
X67270000Y-172880000D02*
X67270000Y-170990000D01*
X67940057Y-135640000D02*
X60210000Y-143370057D01*
X85950000Y-172880000D02*
X86400000Y-172430000D01*
X105490000Y-172500000D02*
X106591000Y-171399000D01*
X63350000Y-146050000D02*
X65150000Y-147850000D01*
X65150000Y-147850000D02*
X65150000Y-149020000D01*
X68820000Y-135640000D02*
X67940057Y-135640000D01*
X65810000Y-133240000D02*
X66130000Y-132920000D01*
X88110000Y-156700000D02*
X88110000Y-171480000D01*
X86470000Y-172500000D02*
X86400000Y-172430000D01*
%TO.N,B*%
X96192950Y-137980000D02*
X114202950Y-155990000D01*
X114202950Y-155990000D02*
X115730000Y-155990000D01*
X66450000Y-137980000D02*
X96192950Y-137980000D01*
%TO.N,C1*%
X79390000Y-144890000D02*
X79360000Y-144860000D01*
%TO.N,C2*%
X99741001Y-162698999D02*
X98520000Y-163920000D01*
X99741001Y-146798999D02*
X99741001Y-162698999D01*
X100020000Y-146520000D02*
X99741001Y-146798999D01*
%TO.N,SDA*%
X95170000Y-139230000D02*
X95300000Y-139360000D01*
X101160000Y-138590000D02*
X119630000Y-138590000D01*
X119630000Y-138590000D02*
X130210000Y-128010000D01*
X68410000Y-139230000D02*
X95170000Y-139230000D01*
%TO.N,SCL*%
X50880000Y-131230000D02*
X50880000Y-130380000D01*
%TO.N,Net-(D13-A)*%
X61530000Y-166780000D02*
X63050000Y-165260000D01*
X63050000Y-165260000D02*
X67270000Y-165260000D01*
%TO.N,Net-(D14-A)*%
X84891057Y-141809000D02*
X85388943Y-141809000D01*
X82840000Y-143860057D02*
X84891057Y-141809000D01*
X85388943Y-141809000D02*
X86420000Y-142840057D01*
X82840000Y-144620000D02*
X82840000Y-143860057D01*
X86420000Y-142840057D02*
X86420000Y-145930000D01*
%TO.N,LED*%
X73690000Y-141610000D02*
X61702842Y-153597158D01*
X61702842Y-153597158D02*
X60070001Y-153597158D01*
%TO.N,Net-(D1-DOUT)*%
X53769001Y-153108244D02*
X54586245Y-152291000D01*
X54586245Y-152291000D02*
X61989000Y-152291000D01*
X65940000Y-155900000D02*
X69950000Y-155900000D01*
X81698943Y-154649000D02*
X83898943Y-152449000D01*
X97829001Y-154308158D02*
X98540001Y-153597158D01*
X90409001Y-152449000D02*
X92268159Y-154308158D01*
X54780087Y-155097158D02*
X53769001Y-154086072D01*
X71201000Y-154649000D02*
X81698943Y-154649000D01*
X54870001Y-155097158D02*
X54780087Y-155097158D01*
X83898943Y-152449000D02*
X90409001Y-152449000D01*
X61989000Y-152291000D02*
X62160000Y-152120000D01*
X53769001Y-154086072D02*
X53769001Y-153108244D01*
X92268159Y-154308158D02*
X97829001Y-154308158D01*
X69950000Y-155900000D02*
X71201000Y-154649000D01*
%TO.N,Net-(D2-DIN)*%
X79880000Y-153860000D02*
X79791000Y-153860000D01*
%TO.N,Net-(D2-DOUT)*%
X74279914Y-155360000D02*
X74190000Y-155360000D01*
%TO.N,Net-(D6-DOUT)*%
X66603000Y-174711000D02*
X92626500Y-174711000D01*
X60360000Y-172710000D02*
X64602000Y-172710000D01*
X92626500Y-174711000D02*
X93337500Y-174000000D01*
X64602000Y-172710000D02*
X66603000Y-174711000D01*
%TD*%
M02*
