%TF.GenerationSoftware,KiCad,Pcbnew,9.0.7*%
%TF.CreationDate,2026-02-26T06:36:33+05:30*%
%TF.ProjectId,Pomopad,506f6d6f-7061-4642-9e6b-696361645f70,rev?*%
%TF.SameCoordinates,Original*%
%TF.FileFunction,Soldermask,Top*%
%TF.FilePolarity,Negative*%
%FSLAX46Y46*%
G04 Gerber Fmt 4.6, Leading zero omitted, Abs format (unit mm)*
G04 Created by KiCad (PCBNEW 9.0.7) date 2026-02-26 06:36:33*
%MOMM*%
%LPD*%
G01*
G04 APERTURE LIST*
G04 Aperture macros list*
%AMRoundRect*
0 Rectangle with rounded corners*
0 $1 Rounding radius*
0 $2 $3 $4 $5 $6 $7 $8 $9 X,Y pos of 4 corners*
0 Add a 4 corners polygon primitive as box body*
4,1,4,$2,$3,$4,$5,$6,$7,$8,$9,$2,$3,0*
0 Add four circle primitives for the rounded corners*
1,1,$1+$1,$2,$3*
1,1,$1+$1,$4,$5*
1,1,$1+$1,$6,$7*
1,1,$1+$1,$8,$9*
0 Add four rect primitives between the rounded corners*
20,1,$1+$1,$2,$3,$4,$5,0*
20,1,$1+$1,$4,$5,$6,$7,0*
20,1,$1+$1,$6,$7,$8,$9,0*
20,1,$1+$1,$8,$9,$2,$3,0*%
G04 Aperture macros list end*
%ADD10C,1.700000*%
%ADD11C,4.000000*%
%ADD12C,2.200000*%
%ADD13R,2.000000X2.000000*%
%ADD14C,2.000000*%
%ADD15R,3.200000X2.000000*%
%ADD16R,3.500000X1.700000*%
%ADD17O,3.600000X1.700000*%
%ADD18O,3.700000X1.700000*%
%ADD19R,1.700000X1.700000*%
%ADD20O,1.700000X1.700000*%
%ADD21RoundRect,0.250000X0.550000X-0.550000X0.550000X0.550000X-0.550000X0.550000X-0.550000X-0.550000X0*%
%ADD22C,1.600000*%
G04 APERTURE END LIST*
D10*
%TO.C,SW7*%
X201549000Y-100753000D03*
D11*
X206629000Y-100753000D03*
D10*
X211709000Y-100753000D03*
D12*
X209169000Y-95673000D03*
X202819000Y-98213000D03*
%TD*%
D10*
%TO.C,SW6*%
X201549000Y-81733000D03*
D11*
X206629000Y-81733000D03*
D10*
X211709000Y-81733000D03*
D12*
X209169000Y-76653000D03*
X202819000Y-79193000D03*
%TD*%
D10*
%TO.C,SW5*%
X182419000Y-100753000D03*
D11*
X187499000Y-100753000D03*
D10*
X192579000Y-100753000D03*
D12*
X190039000Y-95673000D03*
X183689000Y-98213000D03*
%TD*%
D13*
%TO.C,SW1*%
X226379000Y-82743000D03*
D14*
X226379000Y-87743000D03*
X226379000Y-85243000D03*
D15*
X233879000Y-79643000D03*
X233879000Y-90843000D03*
D14*
X240879000Y-87743000D03*
X240879000Y-82743000D03*
%TD*%
D16*
%TO.C,U1*%
X160529000Y-49433000D03*
D17*
X160529000Y-51973000D03*
X160529000Y-54513000D03*
X160529000Y-57053000D03*
X160529000Y-59593000D03*
X160529000Y-62133000D03*
X160529000Y-64673000D03*
X177779000Y-64673000D03*
X177779000Y-62133000D03*
X177779000Y-59593000D03*
D18*
X177779000Y-57053000D03*
X177779000Y-54513000D03*
X177779000Y-51973000D03*
X177779000Y-49433000D03*
%TD*%
D10*
%TO.C,SW3*%
X163279000Y-100803000D03*
D11*
X168359000Y-100803000D03*
D10*
X173439000Y-100803000D03*
D12*
X170899000Y-95723000D03*
X164549000Y-98263000D03*
%TD*%
D10*
%TO.C,SW4*%
X182389000Y-81693000D03*
D11*
X187469000Y-81693000D03*
D10*
X192549000Y-81693000D03*
D12*
X190009000Y-76613000D03*
X183659000Y-79153000D03*
%TD*%
D19*
%TO.C,J1*%
X240859000Y-52143000D03*
D20*
X240859000Y-54683000D03*
X240859000Y-57223000D03*
X240859000Y-59763000D03*
%TD*%
D10*
%TO.C,SW2*%
X163239000Y-81693000D03*
D11*
X168319000Y-81693000D03*
D10*
X173399000Y-81693000D03*
D12*
X170859000Y-76613000D03*
X164509000Y-79153000D03*
%TD*%
D21*
%TO.C,D12*%
X177909000Y-85503000D03*
D22*
X177909000Y-77883000D03*
%TD*%
D21*
%TO.C,D15*%
X197049000Y-104183000D03*
D22*
X197049000Y-96563000D03*
%TD*%
D21*
%TO.C,D17*%
X216139000Y-104253000D03*
D22*
X216139000Y-96633000D03*
%TD*%
D21*
%TO.C,D16*%
X216159000Y-85113000D03*
D22*
X216159000Y-77493000D03*
%TD*%
D21*
%TO.C,D14*%
X197069000Y-85303000D03*
D22*
X197069000Y-77683000D03*
%TD*%
D21*
%TO.C,D13*%
X177919000Y-104633000D03*
D22*
X177919000Y-97013000D03*
%TD*%
D21*
%TO.C,D11*%
X246099000Y-90143000D03*
D22*
X246099000Y-82523000D03*
%TD*%
M02*
