%TF.GenerationSoftware,KiCad,Pcbnew,9.0.7*%
%TF.CreationDate,2026-02-26T06:36:33+05:30*%
%TF.ProjectId,Pomopad,506f6d6f-7061-4642-9e6b-696361645f70,rev?*%
%TF.SameCoordinates,Original*%
%TF.FileFunction,Legend,Top*%
%TF.FilePolarity,Positive*%
%FSLAX46Y46*%
G04 Gerber Fmt 4.6, Leading zero omitted, Abs format (unit mm)*
G04 Created by KiCad (PCBNEW 9.0.7) date 2026-02-26 06:36:33*
%MOMM*%
%LPD*%
G01*
G04 APERTURE LIST*
%ADD10C,0.150000*%
%ADD11C,0.200000*%
%ADD12C,0.101600*%
%ADD13C,0.300000*%
%ADD14C,0.120000*%
%ADD15C,0.127000*%
%ADD16C,0.254000*%
%ADD17C,0.025400*%
%ADD18C,0.000000*%
%ADD19C,0.040000*%
G04 APERTURE END LIST*
D10*
X205295667Y-93286200D02*
X205438524Y-93333819D01*
X205438524Y-93333819D02*
X205676619Y-93333819D01*
X205676619Y-93333819D02*
X205771857Y-93286200D01*
X205771857Y-93286200D02*
X205819476Y-93238580D01*
X205819476Y-93238580D02*
X205867095Y-93143342D01*
X205867095Y-93143342D02*
X205867095Y-93048104D01*
X205867095Y-93048104D02*
X205819476Y-92952866D01*
X205819476Y-92952866D02*
X205771857Y-92905247D01*
X205771857Y-92905247D02*
X205676619Y-92857628D01*
X205676619Y-92857628D02*
X205486143Y-92810009D01*
X205486143Y-92810009D02*
X205390905Y-92762390D01*
X205390905Y-92762390D02*
X205343286Y-92714771D01*
X205343286Y-92714771D02*
X205295667Y-92619533D01*
X205295667Y-92619533D02*
X205295667Y-92524295D01*
X205295667Y-92524295D02*
X205343286Y-92429057D01*
X205343286Y-92429057D02*
X205390905Y-92381438D01*
X205390905Y-92381438D02*
X205486143Y-92333819D01*
X205486143Y-92333819D02*
X205724238Y-92333819D01*
X205724238Y-92333819D02*
X205867095Y-92381438D01*
X206200429Y-92333819D02*
X206438524Y-93333819D01*
X206438524Y-93333819D02*
X206629000Y-92619533D01*
X206629000Y-92619533D02*
X206819476Y-93333819D01*
X206819476Y-93333819D02*
X207057572Y-92333819D01*
X207343286Y-92333819D02*
X208009952Y-92333819D01*
X208009952Y-92333819D02*
X207581381Y-93333819D01*
D11*
X167980905Y-83555219D02*
X167980905Y-82555219D01*
X167980905Y-82555219D02*
X168219000Y-82555219D01*
X168219000Y-82555219D02*
X168361857Y-82602838D01*
X168361857Y-82602838D02*
X168457095Y-82698076D01*
X168457095Y-82698076D02*
X168504714Y-82793314D01*
X168504714Y-82793314D02*
X168552333Y-82983790D01*
X168552333Y-82983790D02*
X168552333Y-83126647D01*
X168552333Y-83126647D02*
X168504714Y-83317123D01*
X168504714Y-83317123D02*
X168457095Y-83412361D01*
X168457095Y-83412361D02*
X168361857Y-83507600D01*
X168361857Y-83507600D02*
X168219000Y-83555219D01*
X168219000Y-83555219D02*
X167980905Y-83555219D01*
X169504714Y-83555219D02*
X168933286Y-83555219D01*
X169219000Y-83555219D02*
X169219000Y-82555219D01*
X169219000Y-82555219D02*
X169123762Y-82698076D01*
X169123762Y-82698076D02*
X169028524Y-82793314D01*
X169028524Y-82793314D02*
X168933286Y-82840933D01*
X187300904Y-83818061D02*
X187300904Y-82818061D01*
X187300904Y-82818061D02*
X187538999Y-82818061D01*
X187538999Y-82818061D02*
X187681856Y-82865680D01*
X187681856Y-82865680D02*
X187777094Y-82960918D01*
X187777094Y-82960918D02*
X187824713Y-83056156D01*
X187824713Y-83056156D02*
X187872332Y-83246632D01*
X187872332Y-83246632D02*
X187872332Y-83389489D01*
X187872332Y-83389489D02*
X187824713Y-83579965D01*
X187824713Y-83579965D02*
X187777094Y-83675203D01*
X187777094Y-83675203D02*
X187681856Y-83770442D01*
X187681856Y-83770442D02*
X187538999Y-83818061D01*
X187538999Y-83818061D02*
X187300904Y-83818061D01*
X188253285Y-82913299D02*
X188300904Y-82865680D01*
X188300904Y-82865680D02*
X188396142Y-82818061D01*
X188396142Y-82818061D02*
X188634237Y-82818061D01*
X188634237Y-82818061D02*
X188729475Y-82865680D01*
X188729475Y-82865680D02*
X188777094Y-82913299D01*
X188777094Y-82913299D02*
X188824713Y-83008537D01*
X188824713Y-83008537D02*
X188824713Y-83103775D01*
X188824713Y-83103775D02*
X188777094Y-83246632D01*
X188777094Y-83246632D02*
X188205666Y-83818061D01*
X188205666Y-83818061D02*
X188824713Y-83818061D01*
X168270904Y-102668061D02*
X168270904Y-101668061D01*
X168270904Y-101668061D02*
X168508999Y-101668061D01*
X168508999Y-101668061D02*
X168651856Y-101715680D01*
X168651856Y-101715680D02*
X168747094Y-101810918D01*
X168747094Y-101810918D02*
X168794713Y-101906156D01*
X168794713Y-101906156D02*
X168842332Y-102096632D01*
X168842332Y-102096632D02*
X168842332Y-102239489D01*
X168842332Y-102239489D02*
X168794713Y-102429965D01*
X168794713Y-102429965D02*
X168747094Y-102525203D01*
X168747094Y-102525203D02*
X168651856Y-102620442D01*
X168651856Y-102620442D02*
X168508999Y-102668061D01*
X168508999Y-102668061D02*
X168270904Y-102668061D01*
X169413761Y-102096632D02*
X169318523Y-102049013D01*
X169318523Y-102049013D02*
X169270904Y-102001394D01*
X169270904Y-102001394D02*
X169223285Y-101906156D01*
X169223285Y-101906156D02*
X169223285Y-101858537D01*
X169223285Y-101858537D02*
X169270904Y-101763299D01*
X169270904Y-101763299D02*
X169318523Y-101715680D01*
X169318523Y-101715680D02*
X169413761Y-101668061D01*
X169413761Y-101668061D02*
X169604237Y-101668061D01*
X169604237Y-101668061D02*
X169699475Y-101715680D01*
X169699475Y-101715680D02*
X169747094Y-101763299D01*
X169747094Y-101763299D02*
X169794713Y-101858537D01*
X169794713Y-101858537D02*
X169794713Y-101906156D01*
X169794713Y-101906156D02*
X169747094Y-102001394D01*
X169747094Y-102001394D02*
X169699475Y-102049013D01*
X169699475Y-102049013D02*
X169604237Y-102096632D01*
X169604237Y-102096632D02*
X169413761Y-102096632D01*
X169413761Y-102096632D02*
X169318523Y-102144251D01*
X169318523Y-102144251D02*
X169270904Y-102191870D01*
X169270904Y-102191870D02*
X169223285Y-102287108D01*
X169223285Y-102287108D02*
X169223285Y-102477584D01*
X169223285Y-102477584D02*
X169270904Y-102572822D01*
X169270904Y-102572822D02*
X169318523Y-102620442D01*
X169318523Y-102620442D02*
X169413761Y-102668061D01*
X169413761Y-102668061D02*
X169604237Y-102668061D01*
X169604237Y-102668061D02*
X169699475Y-102620442D01*
X169699475Y-102620442D02*
X169747094Y-102572822D01*
X169747094Y-102572822D02*
X169794713Y-102477584D01*
X169794713Y-102477584D02*
X169794713Y-102287108D01*
X169794713Y-102287108D02*
X169747094Y-102191870D01*
X169747094Y-102191870D02*
X169699475Y-102144251D01*
X169699475Y-102144251D02*
X169604237Y-102096632D01*
D10*
X205295667Y-74266200D02*
X205438524Y-74313819D01*
X205438524Y-74313819D02*
X205676619Y-74313819D01*
X205676619Y-74313819D02*
X205771857Y-74266200D01*
X205771857Y-74266200D02*
X205819476Y-74218580D01*
X205819476Y-74218580D02*
X205867095Y-74123342D01*
X205867095Y-74123342D02*
X205867095Y-74028104D01*
X205867095Y-74028104D02*
X205819476Y-73932866D01*
X205819476Y-73932866D02*
X205771857Y-73885247D01*
X205771857Y-73885247D02*
X205676619Y-73837628D01*
X205676619Y-73837628D02*
X205486143Y-73790009D01*
X205486143Y-73790009D02*
X205390905Y-73742390D01*
X205390905Y-73742390D02*
X205343286Y-73694771D01*
X205343286Y-73694771D02*
X205295667Y-73599533D01*
X205295667Y-73599533D02*
X205295667Y-73504295D01*
X205295667Y-73504295D02*
X205343286Y-73409057D01*
X205343286Y-73409057D02*
X205390905Y-73361438D01*
X205390905Y-73361438D02*
X205486143Y-73313819D01*
X205486143Y-73313819D02*
X205724238Y-73313819D01*
X205724238Y-73313819D02*
X205867095Y-73361438D01*
X206200429Y-73313819D02*
X206438524Y-74313819D01*
X206438524Y-74313819D02*
X206629000Y-73599533D01*
X206629000Y-73599533D02*
X206819476Y-74313819D01*
X206819476Y-74313819D02*
X207057572Y-73313819D01*
X207867095Y-73313819D02*
X207676619Y-73313819D01*
X207676619Y-73313819D02*
X207581381Y-73361438D01*
X207581381Y-73361438D02*
X207533762Y-73409057D01*
X207533762Y-73409057D02*
X207438524Y-73551914D01*
X207438524Y-73551914D02*
X207390905Y-73742390D01*
X207390905Y-73742390D02*
X207390905Y-74123342D01*
X207390905Y-74123342D02*
X207438524Y-74218580D01*
X207438524Y-74218580D02*
X207486143Y-74266200D01*
X207486143Y-74266200D02*
X207581381Y-74313819D01*
X207581381Y-74313819D02*
X207771857Y-74313819D01*
X207771857Y-74313819D02*
X207867095Y-74266200D01*
X207867095Y-74266200D02*
X207914714Y-74218580D01*
X207914714Y-74218580D02*
X207962333Y-74123342D01*
X207962333Y-74123342D02*
X207962333Y-73885247D01*
X207962333Y-73885247D02*
X207914714Y-73790009D01*
X207914714Y-73790009D02*
X207867095Y-73742390D01*
X207867095Y-73742390D02*
X207771857Y-73694771D01*
X207771857Y-73694771D02*
X207581381Y-73694771D01*
X207581381Y-73694771D02*
X207486143Y-73742390D01*
X207486143Y-73742390D02*
X207438524Y-73790009D01*
X207438524Y-73790009D02*
X207390905Y-73885247D01*
X186165667Y-93286200D02*
X186308524Y-93333819D01*
X186308524Y-93333819D02*
X186546619Y-93333819D01*
X186546619Y-93333819D02*
X186641857Y-93286200D01*
X186641857Y-93286200D02*
X186689476Y-93238580D01*
X186689476Y-93238580D02*
X186737095Y-93143342D01*
X186737095Y-93143342D02*
X186737095Y-93048104D01*
X186737095Y-93048104D02*
X186689476Y-92952866D01*
X186689476Y-92952866D02*
X186641857Y-92905247D01*
X186641857Y-92905247D02*
X186546619Y-92857628D01*
X186546619Y-92857628D02*
X186356143Y-92810009D01*
X186356143Y-92810009D02*
X186260905Y-92762390D01*
X186260905Y-92762390D02*
X186213286Y-92714771D01*
X186213286Y-92714771D02*
X186165667Y-92619533D01*
X186165667Y-92619533D02*
X186165667Y-92524295D01*
X186165667Y-92524295D02*
X186213286Y-92429057D01*
X186213286Y-92429057D02*
X186260905Y-92381438D01*
X186260905Y-92381438D02*
X186356143Y-92333819D01*
X186356143Y-92333819D02*
X186594238Y-92333819D01*
X186594238Y-92333819D02*
X186737095Y-92381438D01*
X187070429Y-92333819D02*
X187308524Y-93333819D01*
X187308524Y-93333819D02*
X187499000Y-92619533D01*
X187499000Y-92619533D02*
X187689476Y-93333819D01*
X187689476Y-93333819D02*
X187927572Y-92333819D01*
X188784714Y-92333819D02*
X188308524Y-92333819D01*
X188308524Y-92333819D02*
X188260905Y-92810009D01*
X188260905Y-92810009D02*
X188308524Y-92762390D01*
X188308524Y-92762390D02*
X188403762Y-92714771D01*
X188403762Y-92714771D02*
X188641857Y-92714771D01*
X188641857Y-92714771D02*
X188737095Y-92762390D01*
X188737095Y-92762390D02*
X188784714Y-92810009D01*
X188784714Y-92810009D02*
X188832333Y-92905247D01*
X188832333Y-92905247D02*
X188832333Y-93143342D01*
X188832333Y-93143342D02*
X188784714Y-93238580D01*
X188784714Y-93238580D02*
X188737095Y-93286200D01*
X188737095Y-93286200D02*
X188641857Y-93333819D01*
X188641857Y-93333819D02*
X188403762Y-93333819D01*
X188403762Y-93333819D02*
X188308524Y-93286200D01*
X188308524Y-93286200D02*
X188260905Y-93238580D01*
X227845667Y-78450200D02*
X227988524Y-78497819D01*
X227988524Y-78497819D02*
X228226619Y-78497819D01*
X228226619Y-78497819D02*
X228321857Y-78450200D01*
X228321857Y-78450200D02*
X228369476Y-78402580D01*
X228369476Y-78402580D02*
X228417095Y-78307342D01*
X228417095Y-78307342D02*
X228417095Y-78212104D01*
X228417095Y-78212104D02*
X228369476Y-78116866D01*
X228369476Y-78116866D02*
X228321857Y-78069247D01*
X228321857Y-78069247D02*
X228226619Y-78021628D01*
X228226619Y-78021628D02*
X228036143Y-77974009D01*
X228036143Y-77974009D02*
X227940905Y-77926390D01*
X227940905Y-77926390D02*
X227893286Y-77878771D01*
X227893286Y-77878771D02*
X227845667Y-77783533D01*
X227845667Y-77783533D02*
X227845667Y-77688295D01*
X227845667Y-77688295D02*
X227893286Y-77593057D01*
X227893286Y-77593057D02*
X227940905Y-77545438D01*
X227940905Y-77545438D02*
X228036143Y-77497819D01*
X228036143Y-77497819D02*
X228274238Y-77497819D01*
X228274238Y-77497819D02*
X228417095Y-77545438D01*
X228750429Y-77497819D02*
X228988524Y-78497819D01*
X228988524Y-78497819D02*
X229179000Y-77783533D01*
X229179000Y-77783533D02*
X229369476Y-78497819D01*
X229369476Y-78497819D02*
X229607572Y-77497819D01*
X230512333Y-78497819D02*
X229940905Y-78497819D01*
X230226619Y-78497819D02*
X230226619Y-77497819D01*
X230226619Y-77497819D02*
X230131381Y-77640676D01*
X230131381Y-77640676D02*
X230036143Y-77735914D01*
X230036143Y-77735914D02*
X229940905Y-77783533D01*
D11*
X187648404Y-102458061D02*
X187648404Y-101458061D01*
X187648404Y-101458061D02*
X187886499Y-101458061D01*
X187886499Y-101458061D02*
X188029356Y-101505680D01*
X188029356Y-101505680D02*
X188124594Y-101600918D01*
X188124594Y-101600918D02*
X188172213Y-101696156D01*
X188172213Y-101696156D02*
X188219832Y-101886632D01*
X188219832Y-101886632D02*
X188219832Y-102029489D01*
X188219832Y-102029489D02*
X188172213Y-102219965D01*
X188172213Y-102219965D02*
X188124594Y-102315203D01*
X188124594Y-102315203D02*
X188029356Y-102410442D01*
X188029356Y-102410442D02*
X187886499Y-102458061D01*
X187886499Y-102458061D02*
X187648404Y-102458061D01*
X188553166Y-101458061D02*
X189219832Y-101458061D01*
X189219832Y-101458061D02*
X188791261Y-102458061D01*
D12*
X168476666Y-59109985D02*
X168476666Y-59829652D01*
X168476666Y-59829652D02*
X168519000Y-59914318D01*
X168519000Y-59914318D02*
X168561333Y-59956652D01*
X168561333Y-59956652D02*
X168646000Y-59998985D01*
X168646000Y-59998985D02*
X168815333Y-59998985D01*
X168815333Y-59998985D02*
X168900000Y-59956652D01*
X168900000Y-59956652D02*
X168942333Y-59914318D01*
X168942333Y-59914318D02*
X168984666Y-59829652D01*
X168984666Y-59829652D02*
X168984666Y-59109985D01*
X169873666Y-59998985D02*
X169365666Y-59998985D01*
X169619666Y-59998985D02*
X169619666Y-59109985D01*
X169619666Y-59109985D02*
X169534999Y-59236985D01*
X169534999Y-59236985D02*
X169450333Y-59321652D01*
X169450333Y-59321652D02*
X169365666Y-59363985D01*
D10*
X167630191Y-57007819D02*
X168296857Y-58007819D01*
X168296857Y-57007819D02*
X167630191Y-58007819D01*
X168677810Y-58007819D02*
X168677810Y-57007819D01*
X169106381Y-57722104D02*
X169582571Y-57722104D01*
X169011143Y-58007819D02*
X169344476Y-57007819D01*
X169344476Y-57007819D02*
X169677809Y-58007819D01*
X170201619Y-57007819D02*
X170392095Y-57007819D01*
X170392095Y-57007819D02*
X170487333Y-57055438D01*
X170487333Y-57055438D02*
X170582571Y-57150676D01*
X170582571Y-57150676D02*
X170630190Y-57341152D01*
X170630190Y-57341152D02*
X170630190Y-57674485D01*
X170630190Y-57674485D02*
X170582571Y-57864961D01*
X170582571Y-57864961D02*
X170487333Y-57960200D01*
X170487333Y-57960200D02*
X170392095Y-58007819D01*
X170392095Y-58007819D02*
X170201619Y-58007819D01*
X170201619Y-58007819D02*
X170106381Y-57960200D01*
X170106381Y-57960200D02*
X170011143Y-57864961D01*
X170011143Y-57864961D02*
X169963524Y-57674485D01*
X169963524Y-57674485D02*
X169963524Y-57341152D01*
X169963524Y-57341152D02*
X170011143Y-57150676D01*
X170011143Y-57150676D02*
X170106381Y-57055438D01*
X170106381Y-57055438D02*
X170201619Y-57007819D01*
X164392095Y-55960200D02*
X164534952Y-56007819D01*
X164534952Y-56007819D02*
X164773047Y-56007819D01*
X164773047Y-56007819D02*
X164868285Y-55960200D01*
X164868285Y-55960200D02*
X164915904Y-55912580D01*
X164915904Y-55912580D02*
X164963523Y-55817342D01*
X164963523Y-55817342D02*
X164963523Y-55722104D01*
X164963523Y-55722104D02*
X164915904Y-55626866D01*
X164915904Y-55626866D02*
X164868285Y-55579247D01*
X164868285Y-55579247D02*
X164773047Y-55531628D01*
X164773047Y-55531628D02*
X164582571Y-55484009D01*
X164582571Y-55484009D02*
X164487333Y-55436390D01*
X164487333Y-55436390D02*
X164439714Y-55388771D01*
X164439714Y-55388771D02*
X164392095Y-55293533D01*
X164392095Y-55293533D02*
X164392095Y-55198295D01*
X164392095Y-55198295D02*
X164439714Y-55103057D01*
X164439714Y-55103057D02*
X164487333Y-55055438D01*
X164487333Y-55055438D02*
X164582571Y-55007819D01*
X164582571Y-55007819D02*
X164820666Y-55007819D01*
X164820666Y-55007819D02*
X164963523Y-55055438D01*
X165773047Y-55960200D02*
X165677809Y-56007819D01*
X165677809Y-56007819D02*
X165487333Y-56007819D01*
X165487333Y-56007819D02*
X165392095Y-55960200D01*
X165392095Y-55960200D02*
X165344476Y-55864961D01*
X165344476Y-55864961D02*
X165344476Y-55484009D01*
X165344476Y-55484009D02*
X165392095Y-55388771D01*
X165392095Y-55388771D02*
X165487333Y-55341152D01*
X165487333Y-55341152D02*
X165677809Y-55341152D01*
X165677809Y-55341152D02*
X165773047Y-55388771D01*
X165773047Y-55388771D02*
X165820666Y-55484009D01*
X165820666Y-55484009D02*
X165820666Y-55579247D01*
X165820666Y-55579247D02*
X165344476Y-55674485D01*
X166630190Y-55960200D02*
X166534952Y-56007819D01*
X166534952Y-56007819D02*
X166344476Y-56007819D01*
X166344476Y-56007819D02*
X166249238Y-55960200D01*
X166249238Y-55960200D02*
X166201619Y-55864961D01*
X166201619Y-55864961D02*
X166201619Y-55484009D01*
X166201619Y-55484009D02*
X166249238Y-55388771D01*
X166249238Y-55388771D02*
X166344476Y-55341152D01*
X166344476Y-55341152D02*
X166534952Y-55341152D01*
X166534952Y-55341152D02*
X166630190Y-55388771D01*
X166630190Y-55388771D02*
X166677809Y-55484009D01*
X166677809Y-55484009D02*
X166677809Y-55579247D01*
X166677809Y-55579247D02*
X166201619Y-55674485D01*
X167487333Y-55960200D02*
X167392095Y-56007819D01*
X167392095Y-56007819D02*
X167201619Y-56007819D01*
X167201619Y-56007819D02*
X167106381Y-55960200D01*
X167106381Y-55960200D02*
X167058762Y-55864961D01*
X167058762Y-55864961D02*
X167058762Y-55484009D01*
X167058762Y-55484009D02*
X167106381Y-55388771D01*
X167106381Y-55388771D02*
X167201619Y-55341152D01*
X167201619Y-55341152D02*
X167392095Y-55341152D01*
X167392095Y-55341152D02*
X167487333Y-55388771D01*
X167487333Y-55388771D02*
X167534952Y-55484009D01*
X167534952Y-55484009D02*
X167534952Y-55579247D01*
X167534952Y-55579247D02*
X167058762Y-55674485D01*
X168392095Y-56007819D02*
X168392095Y-55007819D01*
X168392095Y-55960200D02*
X168296857Y-56007819D01*
X168296857Y-56007819D02*
X168106381Y-56007819D01*
X168106381Y-56007819D02*
X168011143Y-55960200D01*
X168011143Y-55960200D02*
X167963524Y-55912580D01*
X167963524Y-55912580D02*
X167915905Y-55817342D01*
X167915905Y-55817342D02*
X167915905Y-55531628D01*
X167915905Y-55531628D02*
X167963524Y-55436390D01*
X167963524Y-55436390D02*
X168011143Y-55388771D01*
X168011143Y-55388771D02*
X168106381Y-55341152D01*
X168106381Y-55341152D02*
X168296857Y-55341152D01*
X168296857Y-55341152D02*
X168392095Y-55388771D01*
X169582572Y-55960200D02*
X169725429Y-56007819D01*
X169725429Y-56007819D02*
X169963524Y-56007819D01*
X169963524Y-56007819D02*
X170058762Y-55960200D01*
X170058762Y-55960200D02*
X170106381Y-55912580D01*
X170106381Y-55912580D02*
X170154000Y-55817342D01*
X170154000Y-55817342D02*
X170154000Y-55722104D01*
X170154000Y-55722104D02*
X170106381Y-55626866D01*
X170106381Y-55626866D02*
X170058762Y-55579247D01*
X170058762Y-55579247D02*
X169963524Y-55531628D01*
X169963524Y-55531628D02*
X169773048Y-55484009D01*
X169773048Y-55484009D02*
X169677810Y-55436390D01*
X169677810Y-55436390D02*
X169630191Y-55388771D01*
X169630191Y-55388771D02*
X169582572Y-55293533D01*
X169582572Y-55293533D02*
X169582572Y-55198295D01*
X169582572Y-55198295D02*
X169630191Y-55103057D01*
X169630191Y-55103057D02*
X169677810Y-55055438D01*
X169677810Y-55055438D02*
X169773048Y-55007819D01*
X169773048Y-55007819D02*
X170011143Y-55007819D01*
X170011143Y-55007819D02*
X170154000Y-55055438D01*
X170439715Y-55341152D02*
X170820667Y-55341152D01*
X170582572Y-55007819D02*
X170582572Y-55864961D01*
X170582572Y-55864961D02*
X170630191Y-55960200D01*
X170630191Y-55960200D02*
X170725429Y-56007819D01*
X170725429Y-56007819D02*
X170820667Y-56007819D01*
X171582572Y-55341152D02*
X171582572Y-56007819D01*
X171154001Y-55341152D02*
X171154001Y-55864961D01*
X171154001Y-55864961D02*
X171201620Y-55960200D01*
X171201620Y-55960200D02*
X171296858Y-56007819D01*
X171296858Y-56007819D02*
X171439715Y-56007819D01*
X171439715Y-56007819D02*
X171534953Y-55960200D01*
X171534953Y-55960200D02*
X171582572Y-55912580D01*
X172487334Y-56007819D02*
X172487334Y-55007819D01*
X172487334Y-55960200D02*
X172392096Y-56007819D01*
X172392096Y-56007819D02*
X172201620Y-56007819D01*
X172201620Y-56007819D02*
X172106382Y-55960200D01*
X172106382Y-55960200D02*
X172058763Y-55912580D01*
X172058763Y-55912580D02*
X172011144Y-55817342D01*
X172011144Y-55817342D02*
X172011144Y-55531628D01*
X172011144Y-55531628D02*
X172058763Y-55436390D01*
X172058763Y-55436390D02*
X172106382Y-55388771D01*
X172106382Y-55388771D02*
X172201620Y-55341152D01*
X172201620Y-55341152D02*
X172392096Y-55341152D01*
X172392096Y-55341152D02*
X172487334Y-55388771D01*
X172963525Y-56007819D02*
X172963525Y-55341152D01*
X172963525Y-55007819D02*
X172915906Y-55055438D01*
X172915906Y-55055438D02*
X172963525Y-55103057D01*
X172963525Y-55103057D02*
X173011144Y-55055438D01*
X173011144Y-55055438D02*
X172963525Y-55007819D01*
X172963525Y-55007819D02*
X172963525Y-55103057D01*
X173582572Y-56007819D02*
X173487334Y-55960200D01*
X173487334Y-55960200D02*
X173439715Y-55912580D01*
X173439715Y-55912580D02*
X173392096Y-55817342D01*
X173392096Y-55817342D02*
X173392096Y-55531628D01*
X173392096Y-55531628D02*
X173439715Y-55436390D01*
X173439715Y-55436390D02*
X173487334Y-55388771D01*
X173487334Y-55388771D02*
X173582572Y-55341152D01*
X173582572Y-55341152D02*
X173725429Y-55341152D01*
X173725429Y-55341152D02*
X173820667Y-55388771D01*
X173820667Y-55388771D02*
X173868286Y-55436390D01*
X173868286Y-55436390D02*
X173915905Y-55531628D01*
X173915905Y-55531628D02*
X173915905Y-55817342D01*
X173915905Y-55817342D02*
X173868286Y-55912580D01*
X173868286Y-55912580D02*
X173820667Y-55960200D01*
X173820667Y-55960200D02*
X173725429Y-56007819D01*
X173725429Y-56007819D02*
X173582572Y-56007819D01*
X167025667Y-93336200D02*
X167168524Y-93383819D01*
X167168524Y-93383819D02*
X167406619Y-93383819D01*
X167406619Y-93383819D02*
X167501857Y-93336200D01*
X167501857Y-93336200D02*
X167549476Y-93288580D01*
X167549476Y-93288580D02*
X167597095Y-93193342D01*
X167597095Y-93193342D02*
X167597095Y-93098104D01*
X167597095Y-93098104D02*
X167549476Y-93002866D01*
X167549476Y-93002866D02*
X167501857Y-92955247D01*
X167501857Y-92955247D02*
X167406619Y-92907628D01*
X167406619Y-92907628D02*
X167216143Y-92860009D01*
X167216143Y-92860009D02*
X167120905Y-92812390D01*
X167120905Y-92812390D02*
X167073286Y-92764771D01*
X167073286Y-92764771D02*
X167025667Y-92669533D01*
X167025667Y-92669533D02*
X167025667Y-92574295D01*
X167025667Y-92574295D02*
X167073286Y-92479057D01*
X167073286Y-92479057D02*
X167120905Y-92431438D01*
X167120905Y-92431438D02*
X167216143Y-92383819D01*
X167216143Y-92383819D02*
X167454238Y-92383819D01*
X167454238Y-92383819D02*
X167597095Y-92431438D01*
X167930429Y-92383819D02*
X168168524Y-93383819D01*
X168168524Y-93383819D02*
X168359000Y-92669533D01*
X168359000Y-92669533D02*
X168549476Y-93383819D01*
X168549476Y-93383819D02*
X168787572Y-92383819D01*
X169073286Y-92383819D02*
X169692333Y-92383819D01*
X169692333Y-92383819D02*
X169359000Y-92764771D01*
X169359000Y-92764771D02*
X169501857Y-92764771D01*
X169501857Y-92764771D02*
X169597095Y-92812390D01*
X169597095Y-92812390D02*
X169644714Y-92860009D01*
X169644714Y-92860009D02*
X169692333Y-92955247D01*
X169692333Y-92955247D02*
X169692333Y-93193342D01*
X169692333Y-93193342D02*
X169644714Y-93288580D01*
X169644714Y-93288580D02*
X169597095Y-93336200D01*
X169597095Y-93336200D02*
X169501857Y-93383819D01*
X169501857Y-93383819D02*
X169216143Y-93383819D01*
X169216143Y-93383819D02*
X169120905Y-93336200D01*
X169120905Y-93336200D02*
X169073286Y-93288580D01*
D11*
X206448404Y-102458061D02*
X206448404Y-101458061D01*
X206448404Y-101458061D02*
X206686499Y-101458061D01*
X206686499Y-101458061D02*
X206829356Y-101505680D01*
X206829356Y-101505680D02*
X206924594Y-101600918D01*
X206924594Y-101600918D02*
X206972213Y-101696156D01*
X206972213Y-101696156D02*
X207019832Y-101886632D01*
X207019832Y-101886632D02*
X207019832Y-102029489D01*
X207019832Y-102029489D02*
X206972213Y-102219965D01*
X206972213Y-102219965D02*
X206924594Y-102315203D01*
X206924594Y-102315203D02*
X206829356Y-102410442D01*
X206829356Y-102410442D02*
X206686499Y-102458061D01*
X206686499Y-102458061D02*
X206448404Y-102458061D01*
X207876975Y-101458061D02*
X207686499Y-101458061D01*
X207686499Y-101458061D02*
X207591261Y-101505680D01*
X207591261Y-101505680D02*
X207543642Y-101553299D01*
X207543642Y-101553299D02*
X207448404Y-101696156D01*
X207448404Y-101696156D02*
X207400785Y-101886632D01*
X207400785Y-101886632D02*
X207400785Y-102267584D01*
X207400785Y-102267584D02*
X207448404Y-102362822D01*
X207448404Y-102362822D02*
X207496023Y-102410442D01*
X207496023Y-102410442D02*
X207591261Y-102458061D01*
X207591261Y-102458061D02*
X207781737Y-102458061D01*
X207781737Y-102458061D02*
X207876975Y-102410442D01*
X207876975Y-102410442D02*
X207924594Y-102362822D01*
X207924594Y-102362822D02*
X207972213Y-102267584D01*
X207972213Y-102267584D02*
X207972213Y-102029489D01*
X207972213Y-102029489D02*
X207924594Y-101934251D01*
X207924594Y-101934251D02*
X207876975Y-101886632D01*
X207876975Y-101886632D02*
X207781737Y-101839013D01*
X207781737Y-101839013D02*
X207591261Y-101839013D01*
X207591261Y-101839013D02*
X207496023Y-101886632D01*
X207496023Y-101886632D02*
X207448404Y-101934251D01*
X207448404Y-101934251D02*
X207400785Y-102029489D01*
D10*
X186135667Y-74226200D02*
X186278524Y-74273819D01*
X186278524Y-74273819D02*
X186516619Y-74273819D01*
X186516619Y-74273819D02*
X186611857Y-74226200D01*
X186611857Y-74226200D02*
X186659476Y-74178580D01*
X186659476Y-74178580D02*
X186707095Y-74083342D01*
X186707095Y-74083342D02*
X186707095Y-73988104D01*
X186707095Y-73988104D02*
X186659476Y-73892866D01*
X186659476Y-73892866D02*
X186611857Y-73845247D01*
X186611857Y-73845247D02*
X186516619Y-73797628D01*
X186516619Y-73797628D02*
X186326143Y-73750009D01*
X186326143Y-73750009D02*
X186230905Y-73702390D01*
X186230905Y-73702390D02*
X186183286Y-73654771D01*
X186183286Y-73654771D02*
X186135667Y-73559533D01*
X186135667Y-73559533D02*
X186135667Y-73464295D01*
X186135667Y-73464295D02*
X186183286Y-73369057D01*
X186183286Y-73369057D02*
X186230905Y-73321438D01*
X186230905Y-73321438D02*
X186326143Y-73273819D01*
X186326143Y-73273819D02*
X186564238Y-73273819D01*
X186564238Y-73273819D02*
X186707095Y-73321438D01*
X187040429Y-73273819D02*
X187278524Y-74273819D01*
X187278524Y-74273819D02*
X187469000Y-73559533D01*
X187469000Y-73559533D02*
X187659476Y-74273819D01*
X187659476Y-74273819D02*
X187897572Y-73273819D01*
X188707095Y-73607152D02*
X188707095Y-74273819D01*
X188469000Y-73226200D02*
X188230905Y-73940485D01*
X188230905Y-73940485D02*
X188849952Y-73940485D01*
D11*
X206450905Y-83555219D02*
X206450905Y-82555219D01*
X206450905Y-82555219D02*
X206689000Y-82555219D01*
X206689000Y-82555219D02*
X206831857Y-82602838D01*
X206831857Y-82602838D02*
X206927095Y-82698076D01*
X206927095Y-82698076D02*
X206974714Y-82793314D01*
X206974714Y-82793314D02*
X207022333Y-82983790D01*
X207022333Y-82983790D02*
X207022333Y-83126647D01*
X207022333Y-83126647D02*
X206974714Y-83317123D01*
X206974714Y-83317123D02*
X206927095Y-83412361D01*
X206927095Y-83412361D02*
X206831857Y-83507600D01*
X206831857Y-83507600D02*
X206689000Y-83555219D01*
X206689000Y-83555219D02*
X206450905Y-83555219D01*
X207355667Y-82555219D02*
X207974714Y-82555219D01*
X207974714Y-82555219D02*
X207641381Y-82936171D01*
X207641381Y-82936171D02*
X207784238Y-82936171D01*
X207784238Y-82936171D02*
X207879476Y-82983790D01*
X207879476Y-82983790D02*
X207927095Y-83031409D01*
X207927095Y-83031409D02*
X207974714Y-83126647D01*
X207974714Y-83126647D02*
X207974714Y-83364742D01*
X207974714Y-83364742D02*
X207927095Y-83459980D01*
X207927095Y-83459980D02*
X207879476Y-83507600D01*
X207879476Y-83507600D02*
X207784238Y-83555219D01*
X207784238Y-83555219D02*
X207498524Y-83555219D01*
X207498524Y-83555219D02*
X207403286Y-83507600D01*
X207403286Y-83507600D02*
X207355667Y-83459980D01*
D13*
X190737572Y-56302757D02*
X190594715Y-56231328D01*
X190594715Y-56231328D02*
X190380429Y-56231328D01*
X190380429Y-56231328D02*
X190166143Y-56302757D01*
X190166143Y-56302757D02*
X190023286Y-56445614D01*
X190023286Y-56445614D02*
X189951857Y-56588471D01*
X189951857Y-56588471D02*
X189880429Y-56874185D01*
X189880429Y-56874185D02*
X189880429Y-57088471D01*
X189880429Y-57088471D02*
X189951857Y-57374185D01*
X189951857Y-57374185D02*
X190023286Y-57517042D01*
X190023286Y-57517042D02*
X190166143Y-57659900D01*
X190166143Y-57659900D02*
X190380429Y-57731328D01*
X190380429Y-57731328D02*
X190523286Y-57731328D01*
X190523286Y-57731328D02*
X190737572Y-57659900D01*
X190737572Y-57659900D02*
X190809000Y-57588471D01*
X190809000Y-57588471D02*
X190809000Y-57088471D01*
X190809000Y-57088471D02*
X190523286Y-57088471D01*
X191666143Y-56231328D02*
X191666143Y-56588471D01*
X191309000Y-56445614D02*
X191666143Y-56588471D01*
X191666143Y-56588471D02*
X192023286Y-56445614D01*
X191451857Y-56874185D02*
X191666143Y-56588471D01*
X191666143Y-56588471D02*
X191880429Y-56874185D01*
X192809000Y-56231328D02*
X192809000Y-56588471D01*
X192451857Y-56445614D02*
X192809000Y-56588471D01*
X192809000Y-56588471D02*
X193166143Y-56445614D01*
X192594714Y-56874185D02*
X192809000Y-56588471D01*
X192809000Y-56588471D02*
X193023286Y-56874185D01*
X193951857Y-56231328D02*
X193951857Y-56588471D01*
X193594714Y-56445614D02*
X193951857Y-56588471D01*
X193951857Y-56588471D02*
X194309000Y-56445614D01*
X193737571Y-56874185D02*
X193951857Y-56588471D01*
X193951857Y-56588471D02*
X194166143Y-56874185D01*
D10*
X205713819Y-56196333D02*
X206428104Y-56196333D01*
X206428104Y-56196333D02*
X206570961Y-56243952D01*
X206570961Y-56243952D02*
X206666200Y-56339190D01*
X206666200Y-56339190D02*
X206713819Y-56482047D01*
X206713819Y-56482047D02*
X206713819Y-56577285D01*
X206713819Y-55196333D02*
X206713819Y-55767761D01*
X206713819Y-55482047D02*
X205713819Y-55482047D01*
X205713819Y-55482047D02*
X205856676Y-55577285D01*
X205856676Y-55577285D02*
X205951914Y-55672523D01*
X205951914Y-55672523D02*
X205999533Y-55767761D01*
X239162450Y-58115856D02*
X239198164Y-58008714D01*
X239198164Y-58008714D02*
X239198164Y-57830142D01*
X239198164Y-57830142D02*
X239162450Y-57758714D01*
X239162450Y-57758714D02*
X239126735Y-57722999D01*
X239126735Y-57722999D02*
X239055307Y-57687285D01*
X239055307Y-57687285D02*
X238983878Y-57687285D01*
X238983878Y-57687285D02*
X238912450Y-57722999D01*
X238912450Y-57722999D02*
X238876735Y-57758714D01*
X238876735Y-57758714D02*
X238841021Y-57830142D01*
X238841021Y-57830142D02*
X238805307Y-57972999D01*
X238805307Y-57972999D02*
X238769592Y-58044428D01*
X238769592Y-58044428D02*
X238733878Y-58080142D01*
X238733878Y-58080142D02*
X238662450Y-58115856D01*
X238662450Y-58115856D02*
X238591021Y-58115856D01*
X238591021Y-58115856D02*
X238519592Y-58080142D01*
X238519592Y-58080142D02*
X238483878Y-58044428D01*
X238483878Y-58044428D02*
X238448164Y-57972999D01*
X238448164Y-57972999D02*
X238448164Y-57794428D01*
X238448164Y-57794428D02*
X238483878Y-57687285D01*
X239126735Y-56937285D02*
X239162450Y-56972999D01*
X239162450Y-56972999D02*
X239198164Y-57080142D01*
X239198164Y-57080142D02*
X239198164Y-57151570D01*
X239198164Y-57151570D02*
X239162450Y-57258713D01*
X239162450Y-57258713D02*
X239091021Y-57330142D01*
X239091021Y-57330142D02*
X239019592Y-57365856D01*
X239019592Y-57365856D02*
X238876735Y-57401570D01*
X238876735Y-57401570D02*
X238769592Y-57401570D01*
X238769592Y-57401570D02*
X238626735Y-57365856D01*
X238626735Y-57365856D02*
X238555307Y-57330142D01*
X238555307Y-57330142D02*
X238483878Y-57258713D01*
X238483878Y-57258713D02*
X238448164Y-57151570D01*
X238448164Y-57151570D02*
X238448164Y-57080142D01*
X238448164Y-57080142D02*
X238483878Y-56972999D01*
X238483878Y-56972999D02*
X238519592Y-56937285D01*
X239198164Y-56258713D02*
X239198164Y-56615856D01*
X239198164Y-56615856D02*
X238448164Y-56615856D01*
X238483878Y-52714428D02*
X238448164Y-52785857D01*
X238448164Y-52785857D02*
X238448164Y-52892999D01*
X238448164Y-52892999D02*
X238483878Y-53000142D01*
X238483878Y-53000142D02*
X238555307Y-53071571D01*
X238555307Y-53071571D02*
X238626735Y-53107285D01*
X238626735Y-53107285D02*
X238769592Y-53142999D01*
X238769592Y-53142999D02*
X238876735Y-53142999D01*
X238876735Y-53142999D02*
X239019592Y-53107285D01*
X239019592Y-53107285D02*
X239091021Y-53071571D01*
X239091021Y-53071571D02*
X239162450Y-53000142D01*
X239162450Y-53000142D02*
X239198164Y-52892999D01*
X239198164Y-52892999D02*
X239198164Y-52821571D01*
X239198164Y-52821571D02*
X239162450Y-52714428D01*
X239162450Y-52714428D02*
X239126735Y-52678714D01*
X239126735Y-52678714D02*
X238876735Y-52678714D01*
X238876735Y-52678714D02*
X238876735Y-52821571D01*
X239198164Y-52357285D02*
X238448164Y-52357285D01*
X238448164Y-52357285D02*
X239198164Y-51928714D01*
X239198164Y-51928714D02*
X238448164Y-51928714D01*
X239198164Y-51571571D02*
X238448164Y-51571571D01*
X238448164Y-51571571D02*
X238448164Y-51393000D01*
X238448164Y-51393000D02*
X238483878Y-51285857D01*
X238483878Y-51285857D02*
X238555307Y-51214428D01*
X238555307Y-51214428D02*
X238626735Y-51178714D01*
X238626735Y-51178714D02*
X238769592Y-51143000D01*
X238769592Y-51143000D02*
X238876735Y-51143000D01*
X238876735Y-51143000D02*
X239019592Y-51178714D01*
X239019592Y-51178714D02*
X239091021Y-51214428D01*
X239091021Y-51214428D02*
X239162450Y-51285857D01*
X239162450Y-51285857D02*
X239198164Y-51393000D01*
X239198164Y-51393000D02*
X239198164Y-51571571D01*
X239162450Y-60673713D02*
X239198164Y-60566571D01*
X239198164Y-60566571D02*
X239198164Y-60387999D01*
X239198164Y-60387999D02*
X239162450Y-60316571D01*
X239162450Y-60316571D02*
X239126735Y-60280856D01*
X239126735Y-60280856D02*
X239055307Y-60245142D01*
X239055307Y-60245142D02*
X238983878Y-60245142D01*
X238983878Y-60245142D02*
X238912450Y-60280856D01*
X238912450Y-60280856D02*
X238876735Y-60316571D01*
X238876735Y-60316571D02*
X238841021Y-60387999D01*
X238841021Y-60387999D02*
X238805307Y-60530856D01*
X238805307Y-60530856D02*
X238769592Y-60602285D01*
X238769592Y-60602285D02*
X238733878Y-60637999D01*
X238733878Y-60637999D02*
X238662450Y-60673713D01*
X238662450Y-60673713D02*
X238591021Y-60673713D01*
X238591021Y-60673713D02*
X238519592Y-60637999D01*
X238519592Y-60637999D02*
X238483878Y-60602285D01*
X238483878Y-60602285D02*
X238448164Y-60530856D01*
X238448164Y-60530856D02*
X238448164Y-60352285D01*
X238448164Y-60352285D02*
X238483878Y-60245142D01*
X239198164Y-59923713D02*
X238448164Y-59923713D01*
X238448164Y-59923713D02*
X238448164Y-59745142D01*
X238448164Y-59745142D02*
X238483878Y-59637999D01*
X238483878Y-59637999D02*
X238555307Y-59566570D01*
X238555307Y-59566570D02*
X238626735Y-59530856D01*
X238626735Y-59530856D02*
X238769592Y-59495142D01*
X238769592Y-59495142D02*
X238876735Y-59495142D01*
X238876735Y-59495142D02*
X239019592Y-59530856D01*
X239019592Y-59530856D02*
X239091021Y-59566570D01*
X239091021Y-59566570D02*
X239162450Y-59637999D01*
X239162450Y-59637999D02*
X239198164Y-59745142D01*
X239198164Y-59745142D02*
X239198164Y-59923713D01*
X238983878Y-59209427D02*
X238983878Y-58852285D01*
X239198164Y-59280856D02*
X238448164Y-59030856D01*
X238448164Y-59030856D02*
X239198164Y-58780856D01*
X219430428Y-55407819D02*
X219620904Y-55407819D01*
X219620904Y-55407819D02*
X219716142Y-55455438D01*
X219716142Y-55455438D02*
X219811380Y-55550676D01*
X219811380Y-55550676D02*
X219858999Y-55741152D01*
X219858999Y-55741152D02*
X219858999Y-56074485D01*
X219858999Y-56074485D02*
X219811380Y-56264961D01*
X219811380Y-56264961D02*
X219716142Y-56360200D01*
X219716142Y-56360200D02*
X219620904Y-56407819D01*
X219620904Y-56407819D02*
X219430428Y-56407819D01*
X219430428Y-56407819D02*
X219335190Y-56360200D01*
X219335190Y-56360200D02*
X219239952Y-56264961D01*
X219239952Y-56264961D02*
X219192333Y-56074485D01*
X219192333Y-56074485D02*
X219192333Y-55741152D01*
X219192333Y-55741152D02*
X219239952Y-55550676D01*
X219239952Y-55550676D02*
X219335190Y-55455438D01*
X219335190Y-55455438D02*
X219430428Y-55407819D01*
X220763761Y-56407819D02*
X220287571Y-56407819D01*
X220287571Y-56407819D02*
X220287571Y-55407819D01*
X221097095Y-55884009D02*
X221430428Y-55884009D01*
X221573285Y-56407819D02*
X221097095Y-56407819D01*
X221097095Y-56407819D02*
X221097095Y-55407819D01*
X221097095Y-55407819D02*
X221573285Y-55407819D01*
X222001857Y-56407819D02*
X222001857Y-55407819D01*
X222001857Y-55407819D02*
X222239952Y-55407819D01*
X222239952Y-55407819D02*
X222382809Y-55455438D01*
X222382809Y-55455438D02*
X222478047Y-55550676D01*
X222478047Y-55550676D02*
X222525666Y-55645914D01*
X222525666Y-55645914D02*
X222573285Y-55836390D01*
X222573285Y-55836390D02*
X222573285Y-55979247D01*
X222573285Y-55979247D02*
X222525666Y-56169723D01*
X222525666Y-56169723D02*
X222478047Y-56264961D01*
X222478047Y-56264961D02*
X222382809Y-56360200D01*
X222382809Y-56360200D02*
X222239952Y-56407819D01*
X222239952Y-56407819D02*
X222001857Y-56407819D01*
X223763762Y-56407819D02*
X223763762Y-55407819D01*
X223763762Y-55407819D02*
X224144714Y-55407819D01*
X224144714Y-55407819D02*
X224239952Y-55455438D01*
X224239952Y-55455438D02*
X224287571Y-55503057D01*
X224287571Y-55503057D02*
X224335190Y-55598295D01*
X224335190Y-55598295D02*
X224335190Y-55741152D01*
X224335190Y-55741152D02*
X224287571Y-55836390D01*
X224287571Y-55836390D02*
X224239952Y-55884009D01*
X224239952Y-55884009D02*
X224144714Y-55931628D01*
X224144714Y-55931628D02*
X223763762Y-55931628D01*
X225192333Y-56407819D02*
X225192333Y-55884009D01*
X225192333Y-55884009D02*
X225144714Y-55788771D01*
X225144714Y-55788771D02*
X225049476Y-55741152D01*
X225049476Y-55741152D02*
X224859000Y-55741152D01*
X224859000Y-55741152D02*
X224763762Y-55788771D01*
X225192333Y-56360200D02*
X225097095Y-56407819D01*
X225097095Y-56407819D02*
X224859000Y-56407819D01*
X224859000Y-56407819D02*
X224763762Y-56360200D01*
X224763762Y-56360200D02*
X224716143Y-56264961D01*
X224716143Y-56264961D02*
X224716143Y-56169723D01*
X224716143Y-56169723D02*
X224763762Y-56074485D01*
X224763762Y-56074485D02*
X224859000Y-56026866D01*
X224859000Y-56026866D02*
X225097095Y-56026866D01*
X225097095Y-56026866D02*
X225192333Y-55979247D01*
X225668524Y-55741152D02*
X225668524Y-56407819D01*
X225668524Y-55836390D02*
X225716143Y-55788771D01*
X225716143Y-55788771D02*
X225811381Y-55741152D01*
X225811381Y-55741152D02*
X225954238Y-55741152D01*
X225954238Y-55741152D02*
X226049476Y-55788771D01*
X226049476Y-55788771D02*
X226097095Y-55884009D01*
X226097095Y-55884009D02*
X226097095Y-56407819D01*
X226954238Y-56360200D02*
X226859000Y-56407819D01*
X226859000Y-56407819D02*
X226668524Y-56407819D01*
X226668524Y-56407819D02*
X226573286Y-56360200D01*
X226573286Y-56360200D02*
X226525667Y-56264961D01*
X226525667Y-56264961D02*
X226525667Y-55884009D01*
X226525667Y-55884009D02*
X226573286Y-55788771D01*
X226573286Y-55788771D02*
X226668524Y-55741152D01*
X226668524Y-55741152D02*
X226859000Y-55741152D01*
X226859000Y-55741152D02*
X226954238Y-55788771D01*
X226954238Y-55788771D02*
X227001857Y-55884009D01*
X227001857Y-55884009D02*
X227001857Y-55979247D01*
X227001857Y-55979247D02*
X226525667Y-56074485D01*
X227573286Y-56407819D02*
X227478048Y-56360200D01*
X227478048Y-56360200D02*
X227430429Y-56264961D01*
X227430429Y-56264961D02*
X227430429Y-55407819D01*
X238448164Y-55682999D02*
X239198164Y-55432999D01*
X239198164Y-55432999D02*
X238448164Y-55182999D01*
X239126735Y-54504428D02*
X239162450Y-54540142D01*
X239162450Y-54540142D02*
X239198164Y-54647285D01*
X239198164Y-54647285D02*
X239198164Y-54718713D01*
X239198164Y-54718713D02*
X239162450Y-54825856D01*
X239162450Y-54825856D02*
X239091021Y-54897285D01*
X239091021Y-54897285D02*
X239019592Y-54932999D01*
X239019592Y-54932999D02*
X238876735Y-54968713D01*
X238876735Y-54968713D02*
X238769592Y-54968713D01*
X238769592Y-54968713D02*
X238626735Y-54932999D01*
X238626735Y-54932999D02*
X238555307Y-54897285D01*
X238555307Y-54897285D02*
X238483878Y-54825856D01*
X238483878Y-54825856D02*
X238448164Y-54718713D01*
X238448164Y-54718713D02*
X238448164Y-54647285D01*
X238448164Y-54647285D02*
X238483878Y-54540142D01*
X238483878Y-54540142D02*
X238519592Y-54504428D01*
X239126735Y-53754428D02*
X239162450Y-53790142D01*
X239162450Y-53790142D02*
X239198164Y-53897285D01*
X239198164Y-53897285D02*
X239198164Y-53968713D01*
X239198164Y-53968713D02*
X239162450Y-54075856D01*
X239162450Y-54075856D02*
X239091021Y-54147285D01*
X239091021Y-54147285D02*
X239019592Y-54182999D01*
X239019592Y-54182999D02*
X238876735Y-54218713D01*
X238876735Y-54218713D02*
X238769592Y-54218713D01*
X238769592Y-54218713D02*
X238626735Y-54182999D01*
X238626735Y-54182999D02*
X238555307Y-54147285D01*
X238555307Y-54147285D02*
X238483878Y-54075856D01*
X238483878Y-54075856D02*
X238448164Y-53968713D01*
X238448164Y-53968713D02*
X238448164Y-53897285D01*
X238448164Y-53897285D02*
X238483878Y-53790142D01*
X238483878Y-53790142D02*
X238519592Y-53754428D01*
X166985667Y-74226200D02*
X167128524Y-74273819D01*
X167128524Y-74273819D02*
X167366619Y-74273819D01*
X167366619Y-74273819D02*
X167461857Y-74226200D01*
X167461857Y-74226200D02*
X167509476Y-74178580D01*
X167509476Y-74178580D02*
X167557095Y-74083342D01*
X167557095Y-74083342D02*
X167557095Y-73988104D01*
X167557095Y-73988104D02*
X167509476Y-73892866D01*
X167509476Y-73892866D02*
X167461857Y-73845247D01*
X167461857Y-73845247D02*
X167366619Y-73797628D01*
X167366619Y-73797628D02*
X167176143Y-73750009D01*
X167176143Y-73750009D02*
X167080905Y-73702390D01*
X167080905Y-73702390D02*
X167033286Y-73654771D01*
X167033286Y-73654771D02*
X166985667Y-73559533D01*
X166985667Y-73559533D02*
X166985667Y-73464295D01*
X166985667Y-73464295D02*
X167033286Y-73369057D01*
X167033286Y-73369057D02*
X167080905Y-73321438D01*
X167080905Y-73321438D02*
X167176143Y-73273819D01*
X167176143Y-73273819D02*
X167414238Y-73273819D01*
X167414238Y-73273819D02*
X167557095Y-73321438D01*
X167890429Y-73273819D02*
X168128524Y-74273819D01*
X168128524Y-74273819D02*
X168319000Y-73559533D01*
X168319000Y-73559533D02*
X168509476Y-74273819D01*
X168509476Y-74273819D02*
X168747572Y-73273819D01*
X169080905Y-73369057D02*
X169128524Y-73321438D01*
X169128524Y-73321438D02*
X169223762Y-73273819D01*
X169223762Y-73273819D02*
X169461857Y-73273819D01*
X169461857Y-73273819D02*
X169557095Y-73321438D01*
X169557095Y-73321438D02*
X169604714Y-73369057D01*
X169604714Y-73369057D02*
X169652333Y-73464295D01*
X169652333Y-73464295D02*
X169652333Y-73559533D01*
X169652333Y-73559533D02*
X169604714Y-73702390D01*
X169604714Y-73702390D02*
X169033286Y-74273819D01*
X169033286Y-74273819D02*
X169652333Y-74273819D01*
D14*
%TO.C,SW7*%
X199644000Y-93768000D02*
X213614000Y-93768000D01*
X199644000Y-107738000D02*
X199644000Y-93768000D01*
X213614000Y-93768000D02*
X213614000Y-107738000D01*
X213614000Y-107738000D02*
X199644000Y-107738000D01*
%TO.C,SW6*%
X199644000Y-74748000D02*
X213614000Y-74748000D01*
X199644000Y-88718000D02*
X199644000Y-74748000D01*
X213614000Y-74748000D02*
X213614000Y-88718000D01*
X213614000Y-88718000D02*
X199644000Y-88718000D01*
%TO.C,SW5*%
X180514000Y-93768000D02*
X194484000Y-93768000D01*
X180514000Y-107738000D02*
X180514000Y-93768000D01*
X194484000Y-93768000D02*
X194484000Y-107738000D01*
X194484000Y-107738000D02*
X180514000Y-107738000D01*
%TO.C,SW1*%
X226079000Y-81143000D02*
X226679000Y-81143000D01*
X226379000Y-81443000D02*
X226079000Y-81143000D01*
X226679000Y-81143000D02*
X226379000Y-81443000D01*
X227779000Y-79343000D02*
X227779000Y-91143000D01*
X231879000Y-79343000D02*
X227779000Y-79343000D01*
X231879000Y-91143000D02*
X227779000Y-91143000D01*
X233379000Y-85243000D02*
X234379000Y-85243000D01*
X233879000Y-84743000D02*
X233879000Y-85743000D01*
X235879000Y-79343000D02*
X239979000Y-79343000D01*
X239979000Y-79343000D02*
X239979000Y-81743000D01*
X239979000Y-83943000D02*
X239979000Y-86543000D01*
X239979000Y-88743000D02*
X239979000Y-91143000D01*
X239979000Y-91143000D02*
X235879000Y-91143000D01*
X236879000Y-85243000D02*
G75*
G02*
X230879000Y-85243000I-3000000J0D01*
G01*
X230879000Y-85243000D02*
G75*
G02*
X236879000Y-85243000I3000000J0D01*
G01*
D15*
%TO.C,U1*%
X160254000Y-48553000D02*
X160254000Y-65553000D01*
X162254000Y-67553000D02*
X176054000Y-67553000D01*
X164654000Y-45128970D02*
X173654000Y-45128970D01*
X164654000Y-52482270D02*
X164654000Y-45128970D01*
X173654000Y-45128970D02*
X173654000Y-52482270D01*
X173654000Y-52482270D02*
X164654000Y-52482270D01*
X176054000Y-46553910D02*
X162254000Y-46553910D01*
X178054000Y-65553000D02*
X178054000Y-48553000D01*
D14*
X160254000Y-48553000D02*
G75*
G02*
X162254000Y-46553000I2044612J-44612D01*
G01*
X162254000Y-67553000D02*
G75*
G02*
X160254000Y-65553000I44857J2044857D01*
G01*
X176054000Y-46553000D02*
G75*
G02*
X178054000Y-48553000I-44610J-2044610D01*
G01*
X178054000Y-65553000D02*
G75*
G02*
X176054000Y-67553000I-2000000J0D01*
G01*
D16*
X158281000Y-48253000D02*
G75*
G02*
X158027000Y-48253000I-127000J0D01*
G01*
X158027000Y-48253000D02*
G75*
G02*
X158281000Y-48253000I127000J0D01*
G01*
D17*
X160266285Y-48491295D02*
X160269333Y-48442527D01*
X160273397Y-48393506D01*
X160266285Y-48491295D01*
X178041713Y-65623850D02*
X178038665Y-65672618D01*
X178034601Y-65721639D01*
X178029268Y-65770407D01*
X178022664Y-65819175D01*
X178015044Y-65867690D01*
X178006153Y-65915950D01*
X177996248Y-65963955D01*
X178043492Y-65574574D01*
X178041713Y-65623850D01*
D14*
%TO.C,SW3*%
X161374000Y-93818000D02*
X175344000Y-93818000D01*
X161374000Y-107788000D02*
X161374000Y-93818000D01*
X175344000Y-93818000D02*
X175344000Y-107788000D01*
X175344000Y-107788000D02*
X161374000Y-107788000D01*
%TO.C,SW4*%
X180484000Y-74708000D02*
X194454000Y-74708000D01*
X180484000Y-88678000D02*
X180484000Y-74708000D01*
X194454000Y-74708000D02*
X194454000Y-88678000D01*
X194454000Y-88678000D02*
X180484000Y-88678000D01*
D18*
%TO.C,G\u002A\u002A\u002A*%
G36*
X185215855Y-59987515D02*
G01*
X185203678Y-59999691D01*
X185191502Y-59987515D01*
X185203678Y-59975339D01*
X185215855Y-59987515D01*
G37*
G36*
X185264561Y-60060573D02*
G01*
X185252384Y-60072750D01*
X185240208Y-60060573D01*
X185252384Y-60048397D01*
X185264561Y-60060573D01*
G37*
G36*
X185629853Y-60425866D02*
G01*
X185617677Y-60438042D01*
X185605500Y-60425866D01*
X185617677Y-60413689D01*
X185629853Y-60425866D01*
G37*
G36*
X185702911Y-60474572D02*
G01*
X185690735Y-60486748D01*
X185678559Y-60474572D01*
X185690735Y-60462395D01*
X185702911Y-60474572D01*
G37*
G36*
X185800323Y-60547630D02*
G01*
X185788146Y-60559806D01*
X185775970Y-60547630D01*
X185788146Y-60535454D01*
X185800323Y-60547630D01*
G37*
G36*
X185897734Y-60620689D02*
G01*
X185885558Y-60632865D01*
X185873381Y-60620689D01*
X185885558Y-60608512D01*
X185897734Y-60620689D01*
G37*
G36*
X185970793Y-60669394D02*
G01*
X185958616Y-60681571D01*
X185946440Y-60669394D01*
X185958616Y-60657218D01*
X185970793Y-60669394D01*
G37*
G36*
X186068204Y-60742453D02*
G01*
X186056027Y-60754629D01*
X186043851Y-60742453D01*
X186056027Y-60730276D01*
X186068204Y-60742453D01*
G37*
G36*
X186141262Y-60791158D02*
G01*
X186129086Y-60803335D01*
X186116910Y-60791158D01*
X186129086Y-60778982D01*
X186141262Y-60791158D01*
G37*
G36*
X186238674Y-60864217D02*
G01*
X186226497Y-60876393D01*
X186214321Y-60864217D01*
X186226497Y-60852040D01*
X186238674Y-60864217D01*
G37*
G36*
X186311732Y-60912922D02*
G01*
X186299556Y-60925099D01*
X186287379Y-60912922D01*
X186299556Y-60900746D01*
X186311732Y-60912922D01*
G37*
G36*
X186409143Y-60985981D02*
G01*
X186396967Y-60998157D01*
X186384791Y-60985981D01*
X186396967Y-60973805D01*
X186409143Y-60985981D01*
G37*
G36*
X186506555Y-61059039D02*
G01*
X186494378Y-61071216D01*
X186482202Y-61059039D01*
X186494378Y-61046863D01*
X186506555Y-61059039D01*
G37*
G36*
X186506555Y-62715032D02*
G01*
X186494378Y-62727208D01*
X186482202Y-62715032D01*
X186494378Y-62702855D01*
X186506555Y-62715032D01*
G37*
G36*
X186579613Y-61132098D02*
G01*
X186567437Y-61144274D01*
X186555260Y-61132098D01*
X186567437Y-61119922D01*
X186579613Y-61132098D01*
G37*
G36*
X186652672Y-62763737D02*
G01*
X186640495Y-62775914D01*
X186628319Y-62763737D01*
X186640495Y-62751561D01*
X186652672Y-62763737D01*
G37*
G36*
X187310198Y-62861149D02*
G01*
X187298022Y-62873325D01*
X187285845Y-62861149D01*
X187298022Y-62848972D01*
X187310198Y-62861149D01*
G37*
G36*
X187383257Y-62885502D02*
G01*
X187371080Y-62897678D01*
X187358904Y-62885502D01*
X187371080Y-62873325D01*
X187383257Y-62885502D01*
G37*
G36*
X187480668Y-62909854D02*
G01*
X187468491Y-62922031D01*
X187456315Y-62909854D01*
X187468491Y-62897678D01*
X187480668Y-62909854D01*
G37*
G36*
X187553726Y-62934207D02*
G01*
X187541550Y-62946384D01*
X187529374Y-62934207D01*
X187541550Y-62922031D01*
X187553726Y-62934207D01*
G37*
G36*
X187626785Y-62958560D02*
G01*
X187614608Y-62970736D01*
X187602432Y-62958560D01*
X187614608Y-62946384D01*
X187626785Y-62958560D01*
G37*
G36*
X187699843Y-62982913D02*
G01*
X187687667Y-62995089D01*
X187675491Y-62982913D01*
X187687667Y-62970736D01*
X187699843Y-62982913D01*
G37*
G36*
X187797255Y-63007266D02*
G01*
X187785078Y-63019442D01*
X187772902Y-63007266D01*
X187785078Y-62995089D01*
X187797255Y-63007266D01*
G37*
G36*
X187870313Y-63031619D02*
G01*
X187858137Y-63043795D01*
X187845960Y-63031619D01*
X187858137Y-63019442D01*
X187870313Y-63031619D01*
G37*
G36*
X187967724Y-63055971D02*
G01*
X187955548Y-63068148D01*
X187943372Y-63055971D01*
X187955548Y-63043795D01*
X187967724Y-63055971D01*
G37*
G36*
X188065136Y-55652712D02*
G01*
X188052959Y-55664888D01*
X188040783Y-55652712D01*
X188052959Y-55640535D01*
X188065136Y-55652712D01*
G37*
G36*
X188065136Y-63080324D02*
G01*
X188052959Y-63092501D01*
X188040783Y-63080324D01*
X188052959Y-63068148D01*
X188065136Y-63080324D01*
G37*
G36*
X188186900Y-63104677D02*
G01*
X188174724Y-63116853D01*
X188162547Y-63104677D01*
X188174724Y-63092501D01*
X188186900Y-63104677D01*
G37*
G36*
X188284311Y-55847534D02*
G01*
X188272135Y-55859711D01*
X188259958Y-55847534D01*
X188272135Y-55835358D01*
X188284311Y-55847534D01*
G37*
G36*
X188381723Y-55896240D02*
G01*
X188369546Y-55908416D01*
X188357370Y-55896240D01*
X188369546Y-55884063D01*
X188381723Y-55896240D01*
G37*
G36*
X188430428Y-55920593D02*
G01*
X188418252Y-55932769D01*
X188406075Y-55920593D01*
X188418252Y-55908416D01*
X188430428Y-55920593D01*
G37*
G36*
X188503487Y-55944945D02*
G01*
X188491310Y-55957122D01*
X188479134Y-55944945D01*
X188491310Y-55932769D01*
X188503487Y-55944945D01*
G37*
G36*
X188600898Y-55969298D02*
G01*
X188588722Y-55981475D01*
X188576545Y-55969298D01*
X188588722Y-55957122D01*
X188600898Y-55969298D01*
G37*
G36*
X188893132Y-63129030D02*
G01*
X188880956Y-63141206D01*
X188868779Y-63129030D01*
X188880956Y-63116853D01*
X188893132Y-63129030D01*
G37*
G36*
X189014896Y-63104677D02*
G01*
X189002720Y-63116853D01*
X188990543Y-63104677D01*
X189002720Y-63092501D01*
X189014896Y-63104677D01*
G37*
G36*
X189112307Y-63080324D02*
G01*
X189100131Y-63092501D01*
X189087955Y-63080324D01*
X189100131Y-63068148D01*
X189112307Y-63080324D01*
G37*
G36*
X189185366Y-63055971D02*
G01*
X189173189Y-63068148D01*
X189161013Y-63055971D01*
X189173189Y-63043795D01*
X189185366Y-63055971D01*
G37*
G36*
X189209719Y-55944945D02*
G01*
X189197542Y-55957122D01*
X189185366Y-55944945D01*
X189197542Y-55932769D01*
X189209719Y-55944945D01*
G37*
G36*
X189258424Y-63031619D02*
G01*
X189246248Y-63043795D01*
X189234072Y-63031619D01*
X189246248Y-63019442D01*
X189258424Y-63031619D01*
G37*
G36*
X189380189Y-62982913D02*
G01*
X189368012Y-62995089D01*
X189355836Y-62982913D01*
X189368012Y-62970736D01*
X189380189Y-62982913D01*
G37*
G36*
X189404541Y-55896240D02*
G01*
X189392365Y-55908416D01*
X189380189Y-55896240D01*
X189392365Y-55884063D01*
X189404541Y-55896240D01*
G37*
G36*
X189428894Y-53412251D02*
G01*
X189416718Y-53424428D01*
X189404541Y-53412251D01*
X189416718Y-53400075D01*
X189428894Y-53412251D01*
G37*
G36*
X189428894Y-53680132D02*
G01*
X189416718Y-53692309D01*
X189404541Y-53680132D01*
X189416718Y-53667956D01*
X189428894Y-53680132D01*
G37*
G36*
X189428894Y-62958560D02*
G01*
X189416718Y-62970736D01*
X189404541Y-62958560D01*
X189416718Y-62946384D01*
X189428894Y-62958560D01*
G37*
G36*
X189526305Y-62909854D02*
G01*
X189514129Y-62922031D01*
X189501953Y-62909854D01*
X189514129Y-62897678D01*
X189526305Y-62909854D01*
G37*
G36*
X189575011Y-62885502D02*
G01*
X189562835Y-62897678D01*
X189550658Y-62885502D01*
X189562835Y-62873325D01*
X189575011Y-62885502D01*
G37*
G36*
X189599364Y-55847534D02*
G01*
X189587188Y-55859711D01*
X189575011Y-55847534D01*
X189587188Y-55835358D01*
X189599364Y-55847534D01*
G37*
G36*
X189696775Y-55823181D02*
G01*
X189684599Y-55835358D01*
X189672422Y-55823181D01*
X189684599Y-55811005D01*
X189696775Y-55823181D01*
G37*
G36*
X189696775Y-62812443D02*
G01*
X189684599Y-62824619D01*
X189672422Y-62812443D01*
X189684599Y-62800267D01*
X189696775Y-62812443D01*
G37*
G36*
X189769834Y-55798829D02*
G01*
X189757657Y-55811005D01*
X189745481Y-55798829D01*
X189757657Y-55786652D01*
X189769834Y-55798829D01*
G37*
G36*
X189867245Y-55774476D02*
G01*
X189855069Y-55786652D01*
X189842892Y-55774476D01*
X189855069Y-55762299D01*
X189867245Y-55774476D01*
G37*
G36*
X189915951Y-62666326D02*
G01*
X189903774Y-62678503D01*
X189891598Y-62666326D01*
X189903774Y-62654150D01*
X189915951Y-62666326D01*
G37*
G36*
X189940304Y-55750123D02*
G01*
X189928127Y-55762299D01*
X189915951Y-55750123D01*
X189928127Y-55737946D01*
X189940304Y-55750123D01*
G37*
G36*
X189989009Y-62617620D02*
G01*
X189976833Y-62629797D01*
X189964656Y-62617620D01*
X189976833Y-62605444D01*
X189989009Y-62617620D01*
G37*
G36*
X190013362Y-55725770D02*
G01*
X190001186Y-55737946D01*
X189989009Y-55725770D01*
X190001186Y-55713594D01*
X190013362Y-55725770D01*
G37*
G36*
X190062068Y-62568915D02*
G01*
X190049891Y-62581091D01*
X190037715Y-62568915D01*
X190049891Y-62556738D01*
X190062068Y-62568915D01*
G37*
G36*
X190086421Y-55701417D02*
G01*
X190074244Y-55713594D01*
X190062068Y-55701417D01*
X190074244Y-55689241D01*
X190086421Y-55701417D01*
G37*
G36*
X190183832Y-55677064D02*
G01*
X190171655Y-55689241D01*
X190159479Y-55677064D01*
X190171655Y-55664888D01*
X190183832Y-55677064D01*
G37*
G36*
X190208185Y-62447151D02*
G01*
X190196008Y-62459327D01*
X190183832Y-62447151D01*
X190196008Y-62434974D01*
X190208185Y-62447151D01*
G37*
G36*
X190427360Y-55677064D02*
G01*
X190415184Y-55689241D01*
X190403007Y-55677064D01*
X190415184Y-55664888D01*
X190427360Y-55677064D01*
G37*
G36*
X190451713Y-61765271D02*
G01*
X190439537Y-61777448D01*
X190427360Y-61765271D01*
X190439537Y-61753095D01*
X190451713Y-61765271D01*
G37*
G36*
X190597830Y-61594802D02*
G01*
X190585654Y-61606978D01*
X190573477Y-61594802D01*
X190585654Y-61582625D01*
X190597830Y-61594802D01*
G37*
G36*
X190670888Y-61570449D02*
G01*
X190658712Y-61582625D01*
X190646536Y-61570449D01*
X190658712Y-61558272D01*
X190670888Y-61570449D01*
G37*
G36*
X190743947Y-61546096D02*
G01*
X190731770Y-61558272D01*
X190719594Y-61546096D01*
X190731770Y-61533920D01*
X190743947Y-61546096D01*
G37*
G36*
X190865711Y-61497390D02*
G01*
X190853535Y-61509567D01*
X190841358Y-61497390D01*
X190853535Y-61485214D01*
X190865711Y-61497390D01*
G37*
G36*
X190938770Y-61473038D02*
G01*
X190926593Y-61485214D01*
X190914417Y-61473038D01*
X190926593Y-61460861D01*
X190938770Y-61473038D01*
G37*
G36*
X191011828Y-61448685D02*
G01*
X190999652Y-61460861D01*
X190987475Y-61448685D01*
X190999652Y-61436508D01*
X191011828Y-61448685D01*
G37*
G36*
X191084887Y-61424332D02*
G01*
X191072710Y-61436508D01*
X191060534Y-61424332D01*
X191072710Y-61412155D01*
X191084887Y-61424332D01*
G37*
G36*
X191157945Y-61399979D02*
G01*
X191145769Y-61412155D01*
X191133592Y-61399979D01*
X191145769Y-61387803D01*
X191157945Y-61399979D01*
G37*
G36*
X191231003Y-61375626D02*
G01*
X191218827Y-61387803D01*
X191206651Y-61375626D01*
X191218827Y-61363450D01*
X191231003Y-61375626D01*
G37*
G36*
X191377120Y-61326921D02*
G01*
X191364944Y-61339097D01*
X191352768Y-61326921D01*
X191364944Y-61314744D01*
X191377120Y-61326921D01*
G37*
G36*
X191571943Y-61253862D02*
G01*
X191559767Y-61266038D01*
X191547590Y-61253862D01*
X191559767Y-61241686D01*
X191571943Y-61253862D01*
G37*
G36*
X191669354Y-61229509D02*
G01*
X191657178Y-61241686D01*
X191645002Y-61229509D01*
X191657178Y-61217333D01*
X191669354Y-61229509D01*
G37*
G36*
X191815471Y-61180804D02*
G01*
X191803295Y-61192980D01*
X191791119Y-61180804D01*
X191803295Y-61168627D01*
X191815471Y-61180804D01*
G37*
G36*
X191888530Y-61156451D02*
G01*
X191876353Y-61168627D01*
X191864177Y-61156451D01*
X191876353Y-61144274D01*
X191888530Y-61156451D01*
G37*
G36*
X191961588Y-61132098D02*
G01*
X191949412Y-61144274D01*
X191937235Y-61132098D01*
X191949412Y-61119922D01*
X191961588Y-61132098D01*
G37*
G36*
X192034647Y-61107745D02*
G01*
X192022470Y-61119922D01*
X192010294Y-61107745D01*
X192022470Y-61095569D01*
X192034647Y-61107745D01*
G37*
G36*
X192107705Y-61083392D02*
G01*
X192095529Y-61095569D01*
X192083352Y-61083392D01*
X192095529Y-61071216D01*
X192107705Y-61083392D01*
G37*
G36*
X192180764Y-61059039D02*
G01*
X192168587Y-61071216D01*
X192156411Y-61059039D01*
X192168587Y-61046863D01*
X192180764Y-61059039D01*
G37*
G36*
X192351234Y-61010334D02*
G01*
X192339057Y-61022510D01*
X192326881Y-61010334D01*
X192339057Y-60998157D01*
X192351234Y-61010334D01*
G37*
G36*
X192424292Y-60985981D02*
G01*
X192412116Y-60998157D01*
X192399939Y-60985981D01*
X192412116Y-60973805D01*
X192424292Y-60985981D01*
G37*
G36*
X192497351Y-60961628D02*
G01*
X192485174Y-60973805D01*
X192472998Y-60961628D01*
X192485174Y-60949452D01*
X192497351Y-60961628D01*
G37*
G36*
X192570409Y-60937275D02*
G01*
X192558233Y-60949452D01*
X192546056Y-60937275D01*
X192558233Y-60925099D01*
X192570409Y-60937275D01*
G37*
G36*
X192667820Y-60912922D02*
G01*
X192655644Y-60925099D01*
X192643468Y-60912922D01*
X192655644Y-60900746D01*
X192667820Y-60912922D01*
G37*
G36*
X192740879Y-60888570D02*
G01*
X192728702Y-60900746D01*
X192716526Y-60888570D01*
X192728702Y-60876393D01*
X192740879Y-60888570D01*
G37*
G36*
X192813937Y-60864217D02*
G01*
X192801761Y-60876393D01*
X192789584Y-60864217D01*
X192801761Y-60852040D01*
X192813937Y-60864217D01*
G37*
G36*
X192911349Y-60839864D02*
G01*
X192899172Y-60852040D01*
X192886996Y-60839864D01*
X192899172Y-60827688D01*
X192911349Y-60839864D01*
G37*
G36*
X192984407Y-60815511D02*
G01*
X192972231Y-60827688D01*
X192960054Y-60815511D01*
X192972231Y-60803335D01*
X192984407Y-60815511D01*
G37*
G36*
X193057466Y-60791158D02*
G01*
X193045289Y-60803335D01*
X193033113Y-60791158D01*
X193045289Y-60778982D01*
X193057466Y-60791158D01*
G37*
G36*
X193227935Y-60742453D02*
G01*
X193215759Y-60754629D01*
X193203583Y-60742453D01*
X193215759Y-60730276D01*
X193227935Y-60742453D01*
G37*
G36*
X193300994Y-60718100D02*
G01*
X193288817Y-60730276D01*
X193276641Y-60718100D01*
X193288817Y-60705923D01*
X193300994Y-60718100D01*
G37*
G36*
X193398405Y-60693747D02*
G01*
X193386229Y-60705923D01*
X193374052Y-60693747D01*
X193386229Y-60681571D01*
X193398405Y-60693747D01*
G37*
G36*
X193471464Y-60669394D02*
G01*
X193459287Y-60681571D01*
X193447111Y-60669394D01*
X193459287Y-60657218D01*
X193471464Y-60669394D01*
G37*
G36*
X193568875Y-60645041D02*
G01*
X193556699Y-60657218D01*
X193544522Y-60645041D01*
X193556699Y-60632865D01*
X193568875Y-60645041D01*
G37*
G36*
X193641933Y-60620689D02*
G01*
X193629757Y-60632865D01*
X193617581Y-60620689D01*
X193629757Y-60608512D01*
X193641933Y-60620689D01*
G37*
G36*
X193739345Y-60596336D02*
G01*
X193727168Y-60608512D01*
X193714992Y-60596336D01*
X193727168Y-60584159D01*
X193739345Y-60596336D01*
G37*
G36*
X193812403Y-60571983D02*
G01*
X193800227Y-60584159D01*
X193788050Y-60571983D01*
X193800227Y-60559806D01*
X193812403Y-60571983D01*
G37*
G36*
X193909815Y-60547630D02*
G01*
X193897638Y-60559806D01*
X193885462Y-60547630D01*
X193897638Y-60535454D01*
X193909815Y-60547630D01*
G37*
G36*
X193982873Y-60523277D02*
G01*
X193970697Y-60535454D01*
X193958520Y-60523277D01*
X193970697Y-60511101D01*
X193982873Y-60523277D01*
G37*
G36*
X194080284Y-60498924D02*
G01*
X194068108Y-60511101D01*
X194055932Y-60498924D01*
X194068108Y-60486748D01*
X194080284Y-60498924D01*
G37*
G36*
X194177696Y-60474572D02*
G01*
X194165519Y-60486748D01*
X194153343Y-60474572D01*
X194165519Y-60462395D01*
X194177696Y-60474572D01*
G37*
G36*
X194348166Y-60425866D02*
G01*
X194335989Y-60438042D01*
X194323813Y-60425866D01*
X194335989Y-60413689D01*
X194348166Y-60425866D01*
G37*
G36*
X194445577Y-60401513D02*
G01*
X194433400Y-60413689D01*
X194421224Y-60401513D01*
X194433400Y-60389337D01*
X194445577Y-60401513D01*
G37*
G36*
X194518635Y-60377160D02*
G01*
X194506459Y-60389337D01*
X194494282Y-60377160D01*
X194506459Y-60364984D01*
X194518635Y-60377160D01*
G37*
G36*
X194616047Y-60352807D02*
G01*
X194603870Y-60364984D01*
X194591694Y-60352807D01*
X194603870Y-60340631D01*
X194616047Y-60352807D01*
G37*
G36*
X194713458Y-60328455D02*
G01*
X194701282Y-60340631D01*
X194689105Y-60328455D01*
X194701282Y-60316278D01*
X194713458Y-60328455D01*
G37*
G36*
X194810869Y-60304102D02*
G01*
X194798693Y-60316278D01*
X194786516Y-60304102D01*
X194798693Y-60291925D01*
X194810869Y-60304102D01*
G37*
G36*
X194883928Y-60279749D02*
G01*
X194871751Y-60291925D01*
X194859575Y-60279749D01*
X194871751Y-60267573D01*
X194883928Y-60279749D01*
G37*
G36*
X194981339Y-60255396D02*
G01*
X194969163Y-60267573D01*
X194956986Y-60255396D01*
X194969163Y-60243220D01*
X194981339Y-60255396D01*
G37*
G36*
X195078750Y-60231043D02*
G01*
X195066574Y-60243220D01*
X195054398Y-60231043D01*
X195066574Y-60218867D01*
X195078750Y-60231043D01*
G37*
G36*
X195176162Y-60206690D02*
G01*
X195163985Y-60218867D01*
X195151809Y-60206690D01*
X195163985Y-60194514D01*
X195176162Y-60206690D01*
G37*
G36*
X195249220Y-60182338D02*
G01*
X195237044Y-60194514D01*
X195224867Y-60182338D01*
X195237044Y-60170161D01*
X195249220Y-60182338D01*
G37*
G36*
X195444043Y-60133632D02*
G01*
X195431866Y-60145808D01*
X195419690Y-60133632D01*
X195431866Y-60121456D01*
X195444043Y-60133632D01*
G37*
G36*
X195541454Y-60109279D02*
G01*
X195529278Y-60121456D01*
X195517101Y-60109279D01*
X195529278Y-60097103D01*
X195541454Y-60109279D01*
G37*
G36*
X195638865Y-60084926D02*
G01*
X195626689Y-60097103D01*
X195614513Y-60084926D01*
X195626689Y-60072750D01*
X195638865Y-60084926D01*
G37*
G36*
X195736277Y-54191542D02*
G01*
X195724100Y-54203718D01*
X195711924Y-54191542D01*
X195724100Y-54179365D01*
X195736277Y-54191542D01*
G37*
G36*
X195736277Y-60060573D02*
G01*
X195724100Y-60072750D01*
X195711924Y-60060573D01*
X195724100Y-60048397D01*
X195736277Y-60060573D01*
G37*
G36*
X195833688Y-60036221D02*
G01*
X195821512Y-60048397D01*
X195809335Y-60036221D01*
X195821512Y-60024044D01*
X195833688Y-60036221D01*
G37*
G36*
X195858041Y-54069778D02*
G01*
X195845864Y-54081954D01*
X195833688Y-54069778D01*
X195845864Y-54057601D01*
X195858041Y-54069778D01*
G37*
G36*
X195906747Y-54045425D02*
G01*
X195894570Y-54057601D01*
X195882394Y-54045425D01*
X195894570Y-54033248D01*
X195906747Y-54045425D01*
G37*
G36*
X195931099Y-60011868D02*
G01*
X195918923Y-60024044D01*
X195906747Y-60011868D01*
X195918923Y-59999691D01*
X195931099Y-60011868D01*
G37*
G36*
X195979805Y-54021072D02*
G01*
X195967629Y-54033248D01*
X195955452Y-54021072D01*
X195967629Y-54008896D01*
X195979805Y-54021072D01*
G37*
G36*
X196028511Y-59987515D02*
G01*
X196016334Y-59999691D01*
X196004158Y-59987515D01*
X196016334Y-59975339D01*
X196028511Y-59987515D01*
G37*
G36*
X196101569Y-53972366D02*
G01*
X196089393Y-53984543D01*
X196077216Y-53972366D01*
X196089393Y-53960190D01*
X196101569Y-53972366D01*
G37*
G36*
X196125922Y-59963162D02*
G01*
X196113746Y-59975339D01*
X196101569Y-59963162D01*
X196113746Y-59950986D01*
X196125922Y-59963162D01*
G37*
G36*
X196150275Y-53948014D02*
G01*
X196138098Y-53960190D01*
X196125922Y-53948014D01*
X196138098Y-53935837D01*
X196150275Y-53948014D01*
G37*
G36*
X196174628Y-55677064D02*
G01*
X196162451Y-55689241D01*
X196150275Y-55677064D01*
X196162451Y-55664888D01*
X196174628Y-55677064D01*
G37*
G36*
X196198980Y-53923661D02*
G01*
X196186804Y-53935837D01*
X196174628Y-53923661D01*
X196186804Y-53911484D01*
X196198980Y-53923661D01*
G37*
G36*
X196223333Y-59938809D02*
G01*
X196211157Y-59950986D01*
X196198980Y-59938809D01*
X196211157Y-59926633D01*
X196223333Y-59938809D01*
G37*
G36*
X196247686Y-53899308D02*
G01*
X196235510Y-53911484D01*
X196223333Y-53899308D01*
X196235510Y-53887131D01*
X196247686Y-53899308D01*
G37*
G36*
X196320745Y-59914456D02*
G01*
X196308568Y-59926633D01*
X196296392Y-59914456D01*
X196308568Y-59902280D01*
X196320745Y-59914456D01*
G37*
G36*
X196345097Y-53850602D02*
G01*
X196332921Y-53862779D01*
X196320745Y-53850602D01*
X196332921Y-53838426D01*
X196345097Y-53850602D01*
G37*
G36*
X196393803Y-53826249D02*
G01*
X196381627Y-53838426D01*
X196369450Y-53826249D01*
X196381627Y-53814073D01*
X196393803Y-53826249D01*
G37*
G36*
X196418156Y-59890104D02*
G01*
X196405980Y-59902280D01*
X196393803Y-59890104D01*
X196405980Y-59877927D01*
X196418156Y-59890104D01*
G37*
G36*
X196466862Y-53777544D02*
G01*
X196454685Y-53789720D01*
X196442509Y-53777544D01*
X196454685Y-53765367D01*
X196466862Y-53777544D01*
G37*
G36*
X196515567Y-59865751D02*
G01*
X196503391Y-59877927D01*
X196491214Y-59865751D01*
X196503391Y-59853574D01*
X196515567Y-59865751D01*
G37*
G36*
X196612979Y-59841398D02*
G01*
X196600802Y-59853574D01*
X196588626Y-59841398D01*
X196600802Y-59829222D01*
X196612979Y-59841398D01*
G37*
G36*
X196710390Y-59817045D02*
G01*
X196698213Y-59829222D01*
X196686037Y-59817045D01*
X196698213Y-59804869D01*
X196710390Y-59817045D01*
G37*
G36*
X196807801Y-59792692D02*
G01*
X196795625Y-59804869D01*
X196783448Y-59792692D01*
X196795625Y-59780516D01*
X196807801Y-59792692D01*
G37*
G36*
X196905212Y-59768340D02*
G01*
X196893036Y-59780516D01*
X196880860Y-59768340D01*
X196893036Y-59756163D01*
X196905212Y-59768340D01*
G37*
G36*
X197002624Y-59743987D02*
G01*
X196990447Y-59756163D01*
X196978271Y-59743987D01*
X196990447Y-59731810D01*
X197002624Y-59743987D01*
G37*
G36*
X197100035Y-59719634D02*
G01*
X197087859Y-59731810D01*
X197075682Y-59719634D01*
X197087859Y-59707457D01*
X197100035Y-59719634D01*
G37*
G36*
X197197446Y-59695281D02*
G01*
X197185270Y-59707457D01*
X197173094Y-59695281D01*
X197185270Y-59683105D01*
X197197446Y-59695281D01*
G37*
G36*
X197294858Y-59670928D02*
G01*
X197282681Y-59683105D01*
X197270505Y-59670928D01*
X197282681Y-59658752D01*
X197294858Y-59670928D01*
G37*
G36*
X197392269Y-59646575D02*
G01*
X197380093Y-59658752D01*
X197367916Y-59646575D01*
X197380093Y-59634399D01*
X197392269Y-59646575D01*
G37*
G36*
X197489680Y-59622223D02*
G01*
X197477504Y-59634399D01*
X197465328Y-59622223D01*
X197477504Y-59610046D01*
X197489680Y-59622223D01*
G37*
G36*
X197587092Y-59597870D02*
G01*
X197574915Y-59610046D01*
X197562739Y-59597870D01*
X197574915Y-59585693D01*
X197587092Y-59597870D01*
G37*
G36*
X197708856Y-59573517D02*
G01*
X197696679Y-59585693D01*
X197684503Y-59573517D01*
X197696679Y-59561340D01*
X197708856Y-59573517D01*
G37*
G36*
X197781914Y-59549164D02*
G01*
X197769738Y-59561340D01*
X197757561Y-59549164D01*
X197769738Y-59536988D01*
X197781914Y-59549164D01*
G37*
G36*
X197903678Y-59524811D02*
G01*
X197891502Y-59536988D01*
X197879326Y-59524811D01*
X197891502Y-59512635D01*
X197903678Y-59524811D01*
G37*
G36*
X198001090Y-59500458D02*
G01*
X197988913Y-59512635D01*
X197976737Y-59500458D01*
X197988913Y-59488282D01*
X198001090Y-59500458D01*
G37*
G36*
X198098501Y-59476106D02*
G01*
X198086325Y-59488282D01*
X198074148Y-59476106D01*
X198086325Y-59463929D01*
X198098501Y-59476106D01*
G37*
G36*
X198171560Y-59451753D02*
G01*
X198159383Y-59463929D01*
X198147207Y-59451753D01*
X198159383Y-59439576D01*
X198171560Y-59451753D01*
G37*
G36*
X198268971Y-59427400D02*
G01*
X198256794Y-59439576D01*
X198244618Y-59427400D01*
X198256794Y-59415224D01*
X198268971Y-59427400D01*
G37*
G36*
X198463794Y-59354341D02*
G01*
X198451617Y-59366518D01*
X198439441Y-59354341D01*
X198451617Y-59342165D01*
X198463794Y-59354341D01*
G37*
G36*
X198512499Y-59329989D02*
G01*
X198500323Y-59342165D01*
X198488146Y-59329989D01*
X198500323Y-59317812D01*
X198512499Y-59329989D01*
G37*
G36*
X198756027Y-59208224D02*
G01*
X198743851Y-59220401D01*
X198731675Y-59208224D01*
X198743851Y-59196048D01*
X198756027Y-59208224D01*
G37*
G36*
X186865252Y-62785553D02*
G01*
X186857989Y-62796622D01*
X186833289Y-62798344D01*
X186807303Y-62792397D01*
X186818575Y-62783631D01*
X186856636Y-62780728D01*
X186865252Y-62785553D01*
G37*
G36*
X187082905Y-62808384D02*
G01*
X187079562Y-62822862D01*
X187066670Y-62824619D01*
X187046625Y-62815709D01*
X187050435Y-62808384D01*
X187079336Y-62805470D01*
X187082905Y-62808384D01*
G37*
G36*
X187204669Y-62832737D02*
G01*
X187201326Y-62847215D01*
X187188434Y-62848972D01*
X187168389Y-62840062D01*
X187172199Y-62832737D01*
X187201100Y-62829823D01*
X187204669Y-62832737D01*
G37*
G36*
X188324899Y-63124971D02*
G01*
X188321556Y-63139449D01*
X188308664Y-63141206D01*
X188288619Y-63132296D01*
X188292429Y-63124971D01*
X188321330Y-63122056D01*
X188324899Y-63124971D01*
G37*
G36*
X189079837Y-55965239D02*
G01*
X189076494Y-55979717D01*
X189063602Y-55981475D01*
X189043557Y-55972564D01*
X189047367Y-55965239D01*
X189076268Y-55962325D01*
X189079837Y-55965239D01*
G37*
G36*
X189323365Y-55916534D02*
G01*
X189320022Y-55931012D01*
X189307130Y-55932769D01*
X189287085Y-55923859D01*
X189290895Y-55916534D01*
X189319796Y-55913619D01*
X189323365Y-55916534D01*
G37*
G36*
X189518188Y-55867828D02*
G01*
X189514845Y-55882306D01*
X189501953Y-55884063D01*
X189481908Y-55875153D01*
X189485717Y-55867828D01*
X189514619Y-55864914D01*
X189518188Y-55867828D01*
G37*
G36*
X190273126Y-55648653D02*
G01*
X190269783Y-55663130D01*
X190256890Y-55664888D01*
X190236845Y-55655978D01*
X190240655Y-55648653D01*
X190269556Y-55645738D01*
X190273126Y-55648653D01*
G37*
G36*
X190370537Y-55648653D02*
G01*
X190367194Y-55663130D01*
X190354302Y-55664888D01*
X190334257Y-55655978D01*
X190338066Y-55648653D01*
X190366968Y-55645738D01*
X190370537Y-55648653D01*
G37*
G36*
X190443595Y-61882977D02*
G01*
X190446510Y-61911878D01*
X190443595Y-61915447D01*
X190429118Y-61912104D01*
X190427360Y-61899212D01*
X190436270Y-61879167D01*
X190443595Y-61882977D01*
G37*
G36*
X194266989Y-60446160D02*
G01*
X194263647Y-60460638D01*
X194250754Y-60462395D01*
X194230709Y-60453485D01*
X194234519Y-60446160D01*
X194263420Y-60443245D01*
X194266989Y-60446160D01*
G37*
G36*
X195362867Y-60153926D02*
G01*
X195359524Y-60168404D01*
X195346631Y-60170161D01*
X195326586Y-60161251D01*
X195330396Y-60153926D01*
X195359297Y-60151011D01*
X195362867Y-60153926D01*
G37*
G36*
X185358209Y-60180012D02*
G01*
X185384148Y-60202650D01*
X185386325Y-60208128D01*
X185374767Y-60218137D01*
X185350705Y-60195709D01*
X185347470Y-60190751D01*
X185344600Y-60174087D01*
X185358209Y-60180012D01*
G37*
G36*
X190472303Y-55723445D02*
G01*
X190498447Y-55747965D01*
X190493084Y-55762062D01*
X190489679Y-55762299D01*
X190469081Y-55745002D01*
X190461564Y-55734184D01*
X190458694Y-55717519D01*
X190472303Y-55723445D01*
G37*
G36*
X185447826Y-60275215D02*
G01*
X185465471Y-60288819D01*
X185499199Y-60318861D01*
X185508089Y-60331436D01*
X185496243Y-60338726D01*
X185463869Y-60307442D01*
X185456277Y-60298014D01*
X185435215Y-60269168D01*
X185447826Y-60275215D01*
G37*
G36*
X190297956Y-62353294D02*
G01*
X190293420Y-62361916D01*
X190270474Y-62385173D01*
X190266192Y-62386269D01*
X190264531Y-62370538D01*
X190269067Y-62361916D01*
X190292012Y-62338659D01*
X190296294Y-62337563D01*
X190297956Y-62353294D01*
G37*
G36*
X190517129Y-61644127D02*
G01*
X190503525Y-61661772D01*
X190467979Y-61699633D01*
X190452113Y-61699468D01*
X190451713Y-61695195D01*
X190468355Y-61674867D01*
X190494330Y-61652577D01*
X190523176Y-61631516D01*
X190517129Y-61644127D01*
G37*
G36*
X195801693Y-54094750D02*
G01*
X195788089Y-54112395D01*
X195752543Y-54150256D01*
X195736677Y-54150091D01*
X195736277Y-54145818D01*
X195752919Y-54125490D01*
X195778894Y-54103201D01*
X195807740Y-54082139D01*
X195801693Y-54094750D01*
G37*
G36*
X188837383Y-62138893D02*
G01*
X188844426Y-62176225D01*
X188849335Y-62242818D01*
X188860004Y-62311952D01*
X188875984Y-62364676D01*
X188902447Y-62380229D01*
X188931570Y-62375789D01*
X188975791Y-62374825D01*
X189004748Y-62389318D01*
X189006438Y-62409312D01*
X188985999Y-62420936D01*
X188899628Y-62442930D01*
X188837297Y-62449075D01*
X188811192Y-62440305D01*
X188802397Y-62407547D01*
X188791424Y-62341590D01*
X188782201Y-62269746D01*
X188774398Y-62186216D01*
X188775977Y-62140227D01*
X188788509Y-62121246D01*
X188804751Y-62118387D01*
X188837383Y-62138893D01*
G37*
G36*
X188653672Y-62125970D02*
G01*
X188662135Y-62130564D01*
X188692263Y-62164765D01*
X188682382Y-62194154D01*
X188650002Y-62203156D01*
X188615848Y-62224489D01*
X188602572Y-62279897D01*
X188611382Y-62351666D01*
X188638649Y-62398612D01*
X188688626Y-62410621D01*
X188734141Y-62419752D01*
X188740916Y-62440640D01*
X188713909Y-62463532D01*
X188658078Y-62478675D01*
X188653801Y-62479136D01*
X188595760Y-62477318D01*
X188564010Y-62449117D01*
X188552177Y-62422757D01*
X188529141Y-62311443D01*
X188546010Y-62212618D01*
X188575019Y-62163703D01*
X188616813Y-62125273D01*
X188653672Y-62125970D01*
G37*
G36*
X188038283Y-61949474D02*
G01*
X188051444Y-61962057D01*
X188077000Y-62005760D01*
X188062785Y-62033432D01*
X188015353Y-62032802D01*
X188013889Y-62032346D01*
X187977727Y-62032239D01*
X187948602Y-62065434D01*
X187930703Y-62103632D01*
X187900749Y-62191834D01*
X187900321Y-62247525D01*
X187929886Y-62277281D01*
X187943372Y-62281801D01*
X187982931Y-62305152D01*
X187992077Y-62325621D01*
X187973967Y-62361675D01*
X187929296Y-62369257D01*
X187872554Y-62346108D01*
X187870367Y-62344601D01*
X187839188Y-62316425D01*
X187825061Y-62278950D01*
X187824104Y-62216600D01*
X187827300Y-62171842D01*
X187839686Y-62083329D01*
X187863558Y-62025064D01*
X187904458Y-61980321D01*
X187961413Y-61936876D01*
X188000836Y-61927239D01*
X188038283Y-61949474D01*
G37*
G36*
X189165304Y-62061825D02*
G01*
X189188018Y-62103674D01*
X189202736Y-62169060D01*
X189205109Y-62245402D01*
X189204985Y-62247170D01*
X189196368Y-62313166D01*
X189177136Y-62344859D01*
X189138074Y-62356634D01*
X189134576Y-62357059D01*
X189077498Y-62351434D01*
X189045785Y-62332706D01*
X189021501Y-62287299D01*
X188998699Y-62221006D01*
X188982464Y-62152887D01*
X188977885Y-62102001D01*
X188980963Y-62089835D01*
X189005033Y-62077073D01*
X189031043Y-62111494D01*
X189057982Y-62191665D01*
X189060957Y-62203208D01*
X189087291Y-62281723D01*
X189111397Y-62312448D01*
X189128502Y-62296233D01*
X189133834Y-62233929D01*
X189131087Y-62190717D01*
X189127907Y-62118396D01*
X189132738Y-62068453D01*
X189138943Y-62056094D01*
X189165304Y-62061825D01*
G37*
G36*
X187748340Y-61864720D02*
G01*
X187757353Y-61946638D01*
X187757632Y-62011639D01*
X187747400Y-62148219D01*
X187722517Y-62239054D01*
X187683095Y-62283821D01*
X187659817Y-62288857D01*
X187633644Y-62276512D01*
X187635634Y-62232708D01*
X187636785Y-62227975D01*
X187639750Y-62180382D01*
X187614136Y-62169686D01*
X187558012Y-62195455D01*
X187540693Y-62206423D01*
X187496761Y-62227772D01*
X187480776Y-62215128D01*
X187493004Y-62167097D01*
X187533715Y-62082289D01*
X187560679Y-62033849D01*
X187640452Y-62033849D01*
X187653295Y-62063487D01*
X187676928Y-62069682D01*
X187695182Y-62049149D01*
X187699843Y-62017994D01*
X187694470Y-61982841D01*
X187671731Y-61989908D01*
X187663582Y-61996401D01*
X187640452Y-62033849D01*
X187560679Y-62033849D01*
X187580901Y-61997520D01*
X187644820Y-61895437D01*
X187693249Y-61839214D01*
X187727364Y-61828943D01*
X187748340Y-61864720D01*
G37*
G36*
X187260139Y-61739531D02*
G01*
X187281798Y-61788828D01*
X187285845Y-61826530D01*
X187298865Y-61888012D01*
X187330886Y-61908563D01*
X187371353Y-61885963D01*
X187395866Y-61849668D01*
X187435015Y-61796384D01*
X187472699Y-61778807D01*
X187498891Y-61798379D01*
X187505021Y-61833992D01*
X187496489Y-61894084D01*
X187474979Y-61976836D01*
X187446622Y-62062945D01*
X187417547Y-62133107D01*
X187401176Y-62161005D01*
X187359697Y-62188526D01*
X187342642Y-62191446D01*
X187320492Y-62178829D01*
X187319295Y-62134320D01*
X187323343Y-62109612D01*
X187322776Y-62040064D01*
X187295529Y-62006022D01*
X187251572Y-62011998D01*
X187205329Y-62056187D01*
X187162694Y-62099114D01*
X187121398Y-62118257D01*
X187094728Y-62109259D01*
X187091023Y-62093667D01*
X187097993Y-62048657D01*
X187115743Y-61975887D01*
X187139529Y-61891595D01*
X187164607Y-61812016D01*
X187186234Y-61753389D01*
X187195943Y-61734530D01*
X187228273Y-61718108D01*
X187260139Y-61739531D01*
G37*
G36*
X189386091Y-61984293D02*
G01*
X189415892Y-62018484D01*
X189418092Y-62033153D01*
X189430859Y-62093212D01*
X189449091Y-62136094D01*
X189465121Y-62181839D01*
X189447315Y-62220441D01*
X189429452Y-62239593D01*
X189369436Y-62284808D01*
X189322511Y-62284950D01*
X189286247Y-62238886D01*
X189269790Y-62186880D01*
X189337064Y-62186880D01*
X189347663Y-62211722D01*
X189365983Y-62215799D01*
X189399530Y-62196191D01*
X189404541Y-62177240D01*
X189390346Y-62150571D01*
X189361137Y-62154824D01*
X189337064Y-62186880D01*
X189269790Y-62186880D01*
X189261707Y-62161336D01*
X189246206Y-62085451D01*
X189245872Y-62069682D01*
X189307130Y-62069682D01*
X189325662Y-62093327D01*
X189331483Y-62094035D01*
X189355128Y-62075503D01*
X189355836Y-62069682D01*
X189337304Y-62046037D01*
X189331483Y-62045329D01*
X189307838Y-62063861D01*
X189307130Y-62069682D01*
X189245872Y-62069682D01*
X189245277Y-62041574D01*
X189260215Y-62014852D01*
X189275612Y-62002124D01*
X189334014Y-61977681D01*
X189386091Y-61984293D01*
G37*
G36*
X188197933Y-62020034D02*
G01*
X188199365Y-62021215D01*
X188227558Y-62067647D01*
X188235606Y-62112967D01*
X188238661Y-62155454D01*
X188255773Y-62155003D01*
X188280141Y-62134338D01*
X188320310Y-62103347D01*
X188341023Y-62094035D01*
X188357339Y-62110988D01*
X188350795Y-62148637D01*
X188325562Y-62187163D01*
X188320441Y-62191777D01*
X188297888Y-62226305D01*
X188293561Y-62285330D01*
X188298812Y-62337756D01*
X188302377Y-62414823D01*
X188292090Y-62462720D01*
X188272194Y-62475749D01*
X188246936Y-62448210D01*
X188235560Y-62422678D01*
X188217296Y-62362693D01*
X188211253Y-62323801D01*
X188200259Y-62291867D01*
X188176987Y-62297009D01*
X188156001Y-62335664D01*
X188155523Y-62337440D01*
X188129371Y-62380525D01*
X188088506Y-62406944D01*
X188052012Y-62405105D01*
X188048721Y-62402324D01*
X188048912Y-62373361D01*
X188067302Y-62319436D01*
X188074344Y-62303849D01*
X188105984Y-62222715D01*
X188127769Y-62141811D01*
X188128345Y-62138596D01*
X188143909Y-62056584D01*
X188157474Y-62014810D01*
X188173872Y-62005289D01*
X188197933Y-62020034D01*
G37*
G36*
X189004432Y-60617561D02*
G01*
X189104670Y-60654023D01*
X189174298Y-60717523D01*
X189207639Y-60805642D01*
X189209719Y-60837638D01*
X189197693Y-60884664D01*
X189157744Y-60923652D01*
X189084069Y-60957671D01*
X188970862Y-60989794D01*
X188887169Y-61008277D01*
X188792794Y-61027999D01*
X188733498Y-61039276D01*
X188696419Y-61042277D01*
X188668699Y-61037171D01*
X188637477Y-61024130D01*
X188610268Y-61011936D01*
X188542109Y-60959075D01*
X188512810Y-60882851D01*
X188516016Y-60860793D01*
X188578849Y-60860793D01*
X188585525Y-60892607D01*
X188620280Y-60925296D01*
X188654760Y-60950778D01*
X188684877Y-60957218D01*
X188726699Y-60943196D01*
X188790750Y-60910247D01*
X188898007Y-60866209D01*
X189001260Y-60855273D01*
X189014721Y-60855907D01*
X189094940Y-60850859D01*
X189132536Y-60825192D01*
X189125995Y-60781575D01*
X189084722Y-60732491D01*
X189010688Y-60693404D01*
X188912759Y-60680599D01*
X188806334Y-60691575D01*
X188706808Y-60723833D01*
X188629581Y-60774873D01*
X188601720Y-60810900D01*
X188578849Y-60860793D01*
X188516016Y-60860793D01*
X188525005Y-60798937D01*
X188580549Y-60714758D01*
X188674847Y-60655660D01*
X188734839Y-60635421D01*
X188879263Y-60610555D01*
X189004432Y-60617561D01*
G37*
G36*
X189263533Y-59086243D02*
G01*
X189326390Y-59117881D01*
X189407666Y-59162839D01*
X189496641Y-59214755D01*
X189582591Y-59267271D01*
X189654797Y-59314026D01*
X189702535Y-59348661D01*
X189715736Y-59362517D01*
X189698086Y-59380526D01*
X189645706Y-59413588D01*
X189568305Y-59456824D01*
X189475592Y-59505353D01*
X189377276Y-59554294D01*
X189283067Y-59598767D01*
X189202674Y-59633891D01*
X189145806Y-59654786D01*
X189126992Y-59658462D01*
X189096927Y-59644251D01*
X189038963Y-59606434D01*
X188963238Y-59551831D01*
X188923573Y-59521672D01*
X188846009Y-59459587D01*
X188785799Y-59407361D01*
X188751625Y-59372725D01*
X188749720Y-59369312D01*
X188869078Y-59369312D01*
X188886096Y-59388193D01*
X188929384Y-59427223D01*
X188986965Y-59476393D01*
X189046862Y-59525693D01*
X189097097Y-59565117D01*
X189125694Y-59584656D01*
X189127529Y-59585278D01*
X189149398Y-59575868D01*
X189206292Y-59550058D01*
X189289087Y-59512015D01*
X189370099Y-59474522D01*
X189609623Y-59363352D01*
X189420729Y-59253869D01*
X189231834Y-59144387D01*
X189050605Y-59249364D01*
X188968799Y-59298353D01*
X188906120Y-59338936D01*
X188872324Y-59364668D01*
X188869078Y-59369312D01*
X188749720Y-59369312D01*
X188747015Y-59364465D01*
X188766643Y-59344940D01*
X188818632Y-59308205D01*
X188892644Y-59260475D01*
X188978336Y-59207964D01*
X189065369Y-59156888D01*
X189143401Y-59113462D01*
X189202094Y-59083899D01*
X189229818Y-59074284D01*
X189263533Y-59086243D01*
G37*
G36*
X186672804Y-59010834D02*
G01*
X186722794Y-59024362D01*
X186795239Y-59074130D01*
X186830111Y-59141619D01*
X186831373Y-59219120D01*
X186802991Y-59298925D01*
X186748931Y-59373323D01*
X186673156Y-59434605D01*
X186579633Y-59475061D01*
X186484689Y-59487307D01*
X186400661Y-59479075D01*
X186326492Y-59459679D01*
X186309006Y-59451761D01*
X186239081Y-59389175D01*
X186203314Y-59304796D01*
X186202652Y-59239042D01*
X186267811Y-59239042D01*
X186288378Y-59315080D01*
X186297695Y-59330566D01*
X186337732Y-59391671D01*
X186340682Y-59388251D01*
X186444560Y-59388251D01*
X186446428Y-59392093D01*
X186485734Y-59413131D01*
X186552077Y-59407625D01*
X186630325Y-59377657D01*
X186680203Y-59342028D01*
X186684611Y-59315599D01*
X186646703Y-59304774D01*
X186596934Y-59309864D01*
X186510540Y-59332580D01*
X186457359Y-59360015D01*
X186444560Y-59388251D01*
X186340682Y-59388251D01*
X186391703Y-59329094D01*
X186457805Y-59278730D01*
X186546407Y-59244008D01*
X186551973Y-59242707D01*
X186627909Y-59231107D01*
X186690198Y-59230703D01*
X186704298Y-59233504D01*
X186748105Y-59231211D01*
X186767088Y-59198951D01*
X186757086Y-59150864D01*
X186737086Y-59122083D01*
X186688424Y-59088933D01*
X186612957Y-59075264D01*
X186575057Y-59074284D01*
X186448462Y-59086578D01*
X186352175Y-59120798D01*
X186290517Y-59172951D01*
X186267811Y-59239042D01*
X186202652Y-59239042D01*
X186202382Y-59212203D01*
X186236961Y-59124974D01*
X186289940Y-59068703D01*
X186362411Y-59035082D01*
X186463291Y-59012908D01*
X186573212Y-59004164D01*
X186672804Y-59010834D01*
G37*
G36*
X187463625Y-61524660D02*
G01*
X187697702Y-61575898D01*
X187959562Y-61667125D01*
X188080589Y-61718596D01*
X188250249Y-61790877D01*
X188391209Y-61841723D01*
X188516725Y-61874442D01*
X188640050Y-61892344D01*
X188774439Y-61898736D01*
X188803090Y-61898923D01*
X189071936Y-61879528D01*
X189338476Y-61819040D01*
X189561868Y-61737634D01*
X189653590Y-61700395D01*
X189730051Y-61672002D01*
X189778845Y-61656962D01*
X189787359Y-61655684D01*
X189814829Y-61673150D01*
X189811070Y-61721768D01*
X189776735Y-61795870D01*
X189769925Y-61807300D01*
X189738432Y-61863289D01*
X189721929Y-61901086D01*
X189721219Y-61905300D01*
X189742864Y-61916536D01*
X189797401Y-61923194D01*
X189824628Y-61923938D01*
X189920501Y-61932772D01*
X189974476Y-61957668D01*
X189984257Y-61997476D01*
X189982377Y-62003133D01*
X189954386Y-62037580D01*
X189893172Y-62091842D01*
X189806885Y-62160030D01*
X189703675Y-62236254D01*
X189591689Y-62314626D01*
X189479078Y-62389258D01*
X189373991Y-62454260D01*
X189302165Y-62494660D01*
X189139469Y-62574702D01*
X188998749Y-62628546D01*
X188863900Y-62660359D01*
X188718817Y-62674309D01*
X188602566Y-62675678D01*
X188495634Y-62673468D01*
X188403061Y-62669896D01*
X188338533Y-62665566D01*
X188320840Y-62663261D01*
X188269945Y-62653291D01*
X188192161Y-62638107D01*
X188138194Y-62627591D01*
X188068572Y-62611379D01*
X187963996Y-62583687D01*
X187835957Y-62547710D01*
X187695943Y-62506643D01*
X187614608Y-62482006D01*
X187416246Y-62422501D01*
X187256244Y-62377891D01*
X187127135Y-62346579D01*
X187021451Y-62326970D01*
X186931723Y-62317468D01*
X186850485Y-62316476D01*
X186841687Y-62316821D01*
X186770078Y-62316457D01*
X186720149Y-62309755D01*
X186709051Y-62304648D01*
X186707853Y-62273651D01*
X186722579Y-62207772D01*
X186722680Y-62207435D01*
X186823142Y-62207435D01*
X186844686Y-62212915D01*
X186898096Y-62216010D01*
X186914465Y-62216222D01*
X187030116Y-62226350D01*
X187182897Y-62256165D01*
X187374953Y-62306173D01*
X187608429Y-62376877D01*
X187638961Y-62386657D01*
X187958522Y-62480403D01*
X188242039Y-62543971D01*
X188491525Y-62577582D01*
X188708993Y-62581452D01*
X188896456Y-62555801D01*
X188979044Y-62532153D01*
X189183968Y-62445379D01*
X189402270Y-62323117D01*
X189622501Y-62171781D01*
X189623717Y-62170865D01*
X189806363Y-62033153D01*
X189708952Y-62025437D01*
X189628293Y-62013449D01*
X189590650Y-61989458D01*
X189590620Y-61946717D01*
X189610093Y-61902010D01*
X189633047Y-61852148D01*
X189639124Y-61826914D01*
X189637904Y-61826154D01*
X189611419Y-61833483D01*
X189549364Y-61853213D01*
X189462241Y-61881955D01*
X189399839Y-61902952D01*
X189267121Y-61943884D01*
X189147607Y-61969849D01*
X189018352Y-61984996D01*
X188911227Y-61991322D01*
X188731443Y-61994079D01*
X188575880Y-61982831D01*
X188428777Y-61954423D01*
X188274376Y-61905699D01*
X188096917Y-61833505D01*
X188075258Y-61823971D01*
X187828133Y-61724331D01*
X187606151Y-61654912D01*
X187412129Y-61616283D01*
X187248886Y-61609013D01*
X187123719Y-61632071D01*
X187070602Y-61663901D01*
X187021657Y-61725630D01*
X186983063Y-61796453D01*
X186949083Y-61870234D01*
X186911383Y-61959447D01*
X186875029Y-62051080D01*
X186845084Y-62132117D01*
X186826612Y-62189544D01*
X186823142Y-62207435D01*
X186722680Y-62207435D01*
X186749895Y-62116865D01*
X186786470Y-62010787D01*
X186828968Y-61899391D01*
X186874058Y-61792533D01*
X186903747Y-61729018D01*
X186948213Y-61643985D01*
X186985110Y-61592252D01*
X187025429Y-61562089D01*
X187078846Y-61542156D01*
X187257338Y-61513412D01*
X187463625Y-61524660D01*
G37*
G36*
X186953942Y-59483778D02*
G01*
X187016531Y-59527342D01*
X187081419Y-59570467D01*
X187138426Y-59578178D01*
X187154622Y-59575011D01*
X187188535Y-59572168D01*
X187231686Y-59580907D01*
X187288992Y-59603839D01*
X187365371Y-59643573D01*
X187465740Y-59702721D01*
X187595016Y-59783891D01*
X187758116Y-59889696D01*
X187803451Y-59919447D01*
X187943660Y-60012420D01*
X188047841Y-60084105D01*
X188121217Y-60139103D01*
X188169015Y-60182018D01*
X188196459Y-60217450D01*
X188208776Y-60250002D01*
X188211253Y-60278609D01*
X188221588Y-60321377D01*
X188259762Y-60356134D01*
X188318787Y-60385919D01*
X188413960Y-60441352D01*
X188472782Y-60504596D01*
X188490770Y-60569511D01*
X188480008Y-60606879D01*
X188443343Y-60646207D01*
X188387603Y-60652620D01*
X188304235Y-60626797D01*
X188292428Y-60621764D01*
X188219457Y-60580254D01*
X188159533Y-60532439D01*
X188094110Y-60489778D01*
X188020669Y-60483820D01*
X187982924Y-60482303D01*
X187936140Y-60469517D01*
X187890908Y-60449792D01*
X188211290Y-60449792D01*
X188222255Y-60479529D01*
X188265174Y-60518989D01*
X188290399Y-60535721D01*
X188363532Y-60573617D01*
X188407365Y-60581549D01*
X188418196Y-60559188D01*
X188414536Y-60546729D01*
X188382963Y-60510098D01*
X188326502Y-60471439D01*
X188266567Y-60443848D01*
X188236815Y-60438042D01*
X188211290Y-60449792D01*
X187890908Y-60449792D01*
X187873666Y-60442273D01*
X187788850Y-60397382D01*
X187675042Y-60331655D01*
X187658236Y-60321589D01*
X187822522Y-60321589D01*
X187841563Y-60345131D01*
X187888188Y-60374689D01*
X187943939Y-60400381D01*
X187990363Y-60412324D01*
X187992077Y-60412382D01*
X188044722Y-60406751D01*
X188083400Y-60398340D01*
X188129442Y-60366745D01*
X188140694Y-60313712D01*
X188118440Y-60250529D01*
X188063968Y-60188482D01*
X188059048Y-60184524D01*
X187979901Y-60122299D01*
X187901669Y-60213200D01*
X187856068Y-60269260D01*
X187827409Y-60310386D01*
X187822522Y-60321589D01*
X187658236Y-60321589D01*
X187561417Y-60263600D01*
X187389256Y-60157777D01*
X187255487Y-60070998D01*
X187201625Y-60032488D01*
X187407438Y-60032488D01*
X187412701Y-60070310D01*
X187452305Y-60109079D01*
X187529231Y-60159690D01*
X187559887Y-60178720D01*
X187736373Y-60288161D01*
X187815519Y-60200751D01*
X187862042Y-60144204D01*
X187890499Y-60099658D01*
X187894666Y-60086472D01*
X187875258Y-60062204D01*
X187823561Y-60020967D01*
X187749368Y-59970313D01*
X187720559Y-59952166D01*
X187546453Y-59844730D01*
X187488004Y-59916122D01*
X187433532Y-59984724D01*
X187407438Y-60032488D01*
X187201625Y-60032488D01*
X187155469Y-59999487D01*
X187114120Y-59964486D01*
X187258610Y-59964486D01*
X187265618Y-59992485D01*
X187285339Y-60014669D01*
X187302184Y-60018051D01*
X187326487Y-59996824D01*
X187368583Y-59945178D01*
X187383633Y-59926157D01*
X187435741Y-59846426D01*
X187446147Y-59791384D01*
X187444483Y-59786129D01*
X187430230Y-59768044D01*
X187406093Y-59777072D01*
X187364287Y-59817871D01*
X187333616Y-59852457D01*
X187279732Y-59920316D01*
X187258610Y-59964486D01*
X187114120Y-59964486D01*
X187084566Y-59939469D01*
X187038138Y-59887167D01*
X187011548Y-59838806D01*
X187002966Y-59809027D01*
X186987755Y-59778594D01*
X187075267Y-59778594D01*
X187110539Y-59853780D01*
X187116889Y-59862144D01*
X187169274Y-59928740D01*
X187250899Y-59836364D01*
X187297921Y-59780142D01*
X187327916Y-59738521D01*
X187333537Y-59726347D01*
X187314966Y-59704157D01*
X187268621Y-59674629D01*
X187265891Y-59673203D01*
X187205430Y-59651081D01*
X187152975Y-59660207D01*
X187138039Y-59667099D01*
X187084629Y-59714561D01*
X187075267Y-59778594D01*
X186987755Y-59778594D01*
X186965244Y-59733555D01*
X186893438Y-59671991D01*
X186823120Y-59610650D01*
X186800287Y-59552568D01*
X186871847Y-59552568D01*
X186891288Y-59581778D01*
X186935342Y-59612844D01*
X186982606Y-59631661D01*
X186993611Y-59632814D01*
X187008292Y-59623120D01*
X186981615Y-59592533D01*
X186972649Y-59584883D01*
X186916961Y-59546596D01*
X186880905Y-59537977D01*
X186871847Y-59552568D01*
X186800287Y-59552568D01*
X186799949Y-59551709D01*
X186824515Y-59496780D01*
X186828012Y-59493153D01*
X186884141Y-59465834D01*
X186953942Y-59483778D01*
G37*
G36*
X191565289Y-51442099D02*
G01*
X191832384Y-51496154D01*
X192071646Y-51587573D01*
X192285906Y-51717355D01*
X192424078Y-51833029D01*
X192573726Y-51994889D01*
X192691091Y-52170005D01*
X192779313Y-52365779D01*
X192841531Y-52589618D01*
X192880886Y-52848924D01*
X192888106Y-52927282D01*
X192902006Y-53079634D01*
X192916443Y-53189060D01*
X192933330Y-53261321D01*
X192954581Y-53302176D01*
X192982111Y-53317386D01*
X193016331Y-53313175D01*
X193054921Y-53299835D01*
X193134624Y-53270734D01*
X193256032Y-53225649D01*
X193419732Y-53164359D01*
X193626315Y-53086644D01*
X193876370Y-52992281D01*
X194170486Y-52881049D01*
X194509252Y-52752726D01*
X194666138Y-52693246D01*
X194936016Y-52592202D01*
X195164557Y-52509604D01*
X195355084Y-52444452D01*
X195510916Y-52395745D01*
X195635373Y-52362483D01*
X195731775Y-52343667D01*
X195803442Y-52338295D01*
X195835413Y-52341018D01*
X195951863Y-52384504D01*
X196052503Y-52469686D01*
X196133266Y-52590990D01*
X196190087Y-52742844D01*
X196212622Y-52858028D01*
X196218462Y-52943795D01*
X196218709Y-53056065D01*
X196213412Y-53172964D01*
X196211881Y-53192715D01*
X196194470Y-53401734D01*
X196032344Y-53482816D01*
X195850378Y-53564206D01*
X195625056Y-53648804D01*
X195361506Y-53735176D01*
X195064857Y-53821887D01*
X194740236Y-53907501D01*
X194392772Y-53990584D01*
X194027591Y-54069701D01*
X193714992Y-54131275D01*
X193601875Y-54152831D01*
X193505130Y-54171778D01*
X193435531Y-54185972D01*
X193404664Y-54193012D01*
X193395026Y-54214925D01*
X193419311Y-54266780D01*
X193437141Y-54294212D01*
X193500489Y-54400189D01*
X193575220Y-54547394D01*
X193658994Y-54730320D01*
X193749472Y-54943465D01*
X193844313Y-55181321D01*
X193941176Y-55438385D01*
X194033477Y-55696921D01*
X194116555Y-55935954D01*
X194201919Y-55921003D01*
X194449944Y-55853659D01*
X194695465Y-55740279D01*
X194934772Y-55583522D01*
X195164156Y-55386042D01*
X195379907Y-55150496D01*
X195503350Y-54989097D01*
X195555443Y-54922986D01*
X195601090Y-54876797D01*
X195628117Y-54861245D01*
X195667460Y-54880890D01*
X195697236Y-54941436D01*
X195718191Y-55045297D01*
X195731067Y-55194888D01*
X195731089Y-55195296D01*
X195731494Y-55401033D01*
X195707042Y-55578788D01*
X195654529Y-55744208D01*
X195591949Y-55874885D01*
X195501908Y-56041242D01*
X195710415Y-56160261D01*
X195878673Y-56263517D01*
X196075679Y-56397011D01*
X196295707Y-56556578D01*
X196533030Y-56738051D01*
X196781920Y-56937265D01*
X196807801Y-56958475D01*
X196914398Y-57043722D01*
X197052228Y-57150422D01*
X197212640Y-57272077D01*
X197386980Y-57402187D01*
X197566597Y-57534253D01*
X197742839Y-57661776D01*
X197769738Y-57681033D01*
X197928993Y-57795599D01*
X198079197Y-57905057D01*
X198214714Y-58005192D01*
X198329906Y-58091788D01*
X198419137Y-58160631D01*
X198476771Y-58207506D01*
X198490961Y-58220373D01*
X198540155Y-58275159D01*
X198572452Y-58332139D01*
X198595500Y-58408259D01*
X198610993Y-58486277D01*
X198627465Y-58603063D01*
X198627315Y-58677828D01*
X198618485Y-58705452D01*
X198576918Y-58745176D01*
X198498041Y-58795912D01*
X198390674Y-58853034D01*
X198263634Y-58911921D01*
X198125740Y-58967947D01*
X198098501Y-58978085D01*
X198023657Y-59002562D01*
X197908996Y-59036227D01*
X197762094Y-59077035D01*
X197590526Y-59122942D01*
X197401870Y-59171906D01*
X197203699Y-59221881D01*
X197100035Y-59247437D01*
X196479893Y-59399830D01*
X195903635Y-59543172D01*
X195367510Y-59678580D01*
X194867769Y-59807171D01*
X194400663Y-59930061D01*
X193962442Y-60048368D01*
X193549357Y-60163208D01*
X193157659Y-60275699D01*
X192783598Y-60386958D01*
X192423425Y-60498102D01*
X192073390Y-60610247D01*
X191729745Y-60724511D01*
X191388738Y-60842011D01*
X191046622Y-60963864D01*
X190699647Y-61091186D01*
X190344063Y-61225095D01*
X189976121Y-61366708D01*
X189942504Y-61379778D01*
X189629820Y-61500526D01*
X189361637Y-61602102D01*
X189137721Y-61684592D01*
X188957835Y-61748078D01*
X188821744Y-61792644D01*
X188729210Y-61818373D01*
X188683049Y-61825495D01*
X188638662Y-61815934D01*
X188565490Y-61791450D01*
X188479089Y-61757269D01*
X188476076Y-61755987D01*
X188358752Y-61699620D01*
X188206956Y-61616572D01*
X188024993Y-61509630D01*
X187817167Y-61381585D01*
X187587783Y-61235226D01*
X187341146Y-61073342D01*
X187081559Y-60898724D01*
X186813329Y-60714161D01*
X186540760Y-60522442D01*
X186268156Y-60326357D01*
X186253786Y-60315894D01*
X186070382Y-60181815D01*
X185922605Y-60072154D01*
X185806444Y-59983028D01*
X185717890Y-59910550D01*
X185652932Y-59850838D01*
X185607557Y-59800006D01*
X185577757Y-59754171D01*
X185559519Y-59709449D01*
X185548833Y-59661954D01*
X185544145Y-59628630D01*
X185536511Y-59527698D01*
X185534885Y-59443517D01*
X185658186Y-59443517D01*
X185661865Y-59518179D01*
X185669835Y-59597762D01*
X185680959Y-59667874D01*
X185694102Y-59714124D01*
X185695966Y-59717750D01*
X185728833Y-59753831D01*
X185798083Y-59813772D01*
X185899474Y-59894567D01*
X186028760Y-59993215D01*
X186181698Y-60106709D01*
X186354044Y-60232048D01*
X186541553Y-60366227D01*
X186739982Y-60506243D01*
X186945086Y-60649091D01*
X187152622Y-60791769D01*
X187358344Y-60931271D01*
X187558010Y-61064596D01*
X187747374Y-61188738D01*
X187922194Y-61300694D01*
X188011223Y-61356368D01*
X188104103Y-61411890D01*
X188212370Y-61473545D01*
X188326786Y-61536439D01*
X188438115Y-61595676D01*
X188537118Y-61646359D01*
X188614558Y-61683593D01*
X188661197Y-61702482D01*
X188666611Y-61703719D01*
X188690350Y-61697250D01*
X188749654Y-61679394D01*
X188833651Y-61653448D01*
X188873610Y-61640953D01*
X188954451Y-61613960D01*
X189071395Y-61572703D01*
X189215149Y-61520572D01*
X189376422Y-61460958D01*
X189545923Y-61397250D01*
X189645722Y-61359231D01*
X190034804Y-61210806D01*
X190399920Y-61072951D01*
X190744896Y-60944514D01*
X191073558Y-60824343D01*
X191389732Y-60711289D01*
X191697242Y-60604199D01*
X191999915Y-60501924D01*
X192301575Y-60403311D01*
X192606049Y-60307209D01*
X192917162Y-60212469D01*
X193238740Y-60117937D01*
X193574608Y-60022464D01*
X193928592Y-59924898D01*
X194304517Y-59824088D01*
X194706208Y-59718883D01*
X195137492Y-59608133D01*
X195602194Y-59490685D01*
X196104140Y-59365388D01*
X196647154Y-59231093D01*
X197036965Y-59135234D01*
X197383528Y-59047835D01*
X197682146Y-58967532D01*
X197933050Y-58894252D01*
X198136470Y-58827923D01*
X198292637Y-58768472D01*
X198401781Y-58715827D01*
X198433352Y-58695940D01*
X198474659Y-58647719D01*
X198488146Y-58601657D01*
X198481518Y-58547377D01*
X198465335Y-58482996D01*
X198445153Y-58426129D01*
X198426527Y-58394393D01*
X198422163Y-58392405D01*
X198395468Y-58400426D01*
X198333582Y-58422040D01*
X198246858Y-58453571D01*
X198181644Y-58477803D01*
X198074269Y-58515022D01*
X197935039Y-58558933D01*
X197779461Y-58604866D01*
X197623043Y-58648150D01*
X197569454Y-58662200D01*
X197407105Y-58705367D01*
X197217625Y-58757861D01*
X197020285Y-58814222D01*
X196834361Y-58868989D01*
X196759096Y-58891799D01*
X196500694Y-58970435D01*
X196277132Y-59037105D01*
X196076974Y-59095033D01*
X195888781Y-59147445D01*
X195701119Y-59197564D01*
X195502549Y-59248617D01*
X195419690Y-59269475D01*
X195313859Y-59296837D01*
X195167876Y-59335848D01*
X194988391Y-59384668D01*
X194782054Y-59441459D01*
X194555514Y-59504383D01*
X194315421Y-59571602D01*
X194068424Y-59641276D01*
X193836756Y-59707120D01*
X193582083Y-59779333D01*
X193322068Y-59852229D01*
X193064362Y-59923720D01*
X192816617Y-59991715D01*
X192586484Y-60054123D01*
X192381613Y-60108856D01*
X192209656Y-60153822D01*
X192099462Y-60181721D01*
X191827923Y-60252282D01*
X191551241Y-60331225D01*
X191264246Y-60420360D01*
X190961765Y-60521495D01*
X190638630Y-60636440D01*
X190289668Y-60767004D01*
X189909710Y-60914996D01*
X189493583Y-61082225D01*
X189303725Y-61159889D01*
X188801087Y-61366456D01*
X188609669Y-61302574D01*
X188440761Y-61236866D01*
X188240924Y-61143434D01*
X188016238Y-61026215D01*
X187772785Y-60889149D01*
X187516643Y-60736174D01*
X187253895Y-60571228D01*
X186990619Y-60398251D01*
X186732897Y-60221180D01*
X186486809Y-60043955D01*
X186258435Y-59870513D01*
X186053855Y-59704794D01*
X185879151Y-59550736D01*
X185823969Y-59498134D01*
X185757413Y-59435568D01*
X185703144Y-59389123D01*
X185671124Y-59367214D01*
X185668243Y-59366518D01*
X185659933Y-59388166D01*
X185658186Y-59443517D01*
X185534885Y-59443517D01*
X185534190Y-59407505D01*
X185536770Y-59314418D01*
X185543222Y-59222696D01*
X185547818Y-59198659D01*
X185691968Y-59198659D01*
X185912317Y-59410979D01*
X186097527Y-59578117D01*
X186319674Y-59759752D01*
X186571089Y-59950823D01*
X186844102Y-60146269D01*
X187131045Y-60341030D01*
X187424248Y-60530044D01*
X187716042Y-60708252D01*
X187998757Y-60870591D01*
X188264725Y-61012002D01*
X188506275Y-61127423D01*
X188527840Y-61136925D01*
X188645643Y-61184626D01*
X188735855Y-61209111D01*
X188813139Y-61211384D01*
X188892162Y-61192450D01*
X188958083Y-61166371D01*
X189063996Y-61121655D01*
X189206725Y-61063064D01*
X189377562Y-60994038D01*
X189567799Y-60918018D01*
X189768729Y-60838442D01*
X189971642Y-60758752D01*
X190167831Y-60682386D01*
X190348588Y-60612784D01*
X190505205Y-60553386D01*
X190585654Y-60523455D01*
X190970234Y-60385409D01*
X191313919Y-60269607D01*
X191618798Y-60175387D01*
X191886959Y-60102086D01*
X192005190Y-60073696D01*
X192157954Y-60037845D01*
X192327819Y-59996289D01*
X192491217Y-59954867D01*
X192594762Y-59927561D01*
X192690867Y-59901250D01*
X192817433Y-59866071D01*
X192968681Y-59823674D01*
X193138833Y-59775710D01*
X193322110Y-59723828D01*
X193512735Y-59669679D01*
X193704928Y-59614912D01*
X193892912Y-59561179D01*
X194070908Y-59510128D01*
X194233138Y-59463409D01*
X194373824Y-59422674D01*
X194487187Y-59389572D01*
X194567450Y-59365753D01*
X194608833Y-59352867D01*
X194613173Y-59351172D01*
X194602530Y-59331186D01*
X194565913Y-59284941D01*
X194510719Y-59221657D01*
X194498566Y-59208275D01*
X194440378Y-59138787D01*
X194405065Y-59086460D01*
X194567776Y-59086460D01*
X194664121Y-59198927D01*
X194760466Y-59311393D01*
X194913520Y-59269497D01*
X194991686Y-59244662D01*
X195046845Y-59220572D01*
X195066574Y-59203250D01*
X195051361Y-59173121D01*
X195012091Y-59120809D01*
X194973358Y-59075721D01*
X194920099Y-59020644D01*
X194875374Y-58991741D01*
X194825729Y-58987595D01*
X194757709Y-59006788D01*
X194668047Y-59043534D01*
X194567776Y-59086460D01*
X194405065Y-59086460D01*
X194400644Y-59079909D01*
X194386706Y-59042771D01*
X194387330Y-59039670D01*
X194416794Y-59010166D01*
X194473622Y-58979011D01*
X194488421Y-58972990D01*
X194576839Y-58939338D01*
X194213608Y-58604989D01*
X194100995Y-58501331D01*
X194316859Y-58501331D01*
X194334309Y-58531230D01*
X194382464Y-58584837D01*
X194457946Y-58658447D01*
X194557375Y-58748352D01*
X194574673Y-58763472D01*
X194715946Y-58886436D01*
X194815195Y-58853681D01*
X194914445Y-58820925D01*
X195072065Y-58996310D01*
X195141627Y-59071472D01*
X195200119Y-59130530D01*
X195239458Y-59165539D01*
X195250431Y-59171695D01*
X195284320Y-59167043D01*
X195349035Y-59155099D01*
X195400227Y-59144742D01*
X195476305Y-59126233D01*
X195532401Y-59107796D01*
X195550087Y-59098362D01*
X195547024Y-59070826D01*
X195519144Y-59017053D01*
X195472437Y-58948531D01*
X195470940Y-58946544D01*
X195420397Y-58875710D01*
X195394015Y-58833285D01*
X195580777Y-58833285D01*
X195582286Y-58860421D01*
X195608322Y-58908495D01*
X195648755Y-58964230D01*
X195693452Y-59014344D01*
X195732280Y-59045559D01*
X195746079Y-59049931D01*
X195784937Y-59043360D01*
X195852733Y-59026468D01*
X195906046Y-59011354D01*
X196035950Y-58972776D01*
X195926329Y-58863155D01*
X195816707Y-58753533D01*
X195709522Y-58784073D01*
X195640169Y-58806410D01*
X195590909Y-58826939D01*
X195580777Y-58833285D01*
X195394015Y-58833285D01*
X195384454Y-58817909D01*
X195370984Y-58785995D01*
X195391294Y-58758646D01*
X195440851Y-58729433D01*
X195447446Y-58726637D01*
X195523907Y-58695438D01*
X195403194Y-58564157D01*
X195282481Y-58432876D01*
X195005120Y-58488847D01*
X194812252Y-58519464D01*
X194631649Y-58532296D01*
X194473740Y-58527190D01*
X194348958Y-58503989D01*
X194333493Y-58498850D01*
X194316859Y-58501331D01*
X194100995Y-58501331D01*
X193850377Y-58270641D01*
X193674455Y-58270641D01*
X193580034Y-58267448D01*
X193506793Y-58253686D01*
X193479388Y-58239382D01*
X194019402Y-58239382D01*
X194141166Y-58293729D01*
X194308152Y-58353777D01*
X194486600Y-58393343D01*
X194657339Y-58408921D01*
X194749987Y-58405095D01*
X194849556Y-58389703D01*
X195438149Y-58389703D01*
X195445464Y-58413446D01*
X195481191Y-58460996D01*
X195538084Y-58522980D01*
X195551674Y-58536589D01*
X195619798Y-58602258D01*
X195665508Y-58638805D01*
X195700371Y-58651999D01*
X195735955Y-58647610D01*
X195759165Y-58640093D01*
X195812492Y-58625264D01*
X195856296Y-58627200D01*
X195900634Y-58651275D01*
X195955563Y-58702867D01*
X196028103Y-58783857D01*
X196090502Y-58852037D01*
X196142905Y-58902846D01*
X196175822Y-58927242D01*
X196179563Y-58928167D01*
X196217732Y-58921921D01*
X196281821Y-58906300D01*
X196305743Y-58899709D01*
X196373001Y-58877857D01*
X196419854Y-58857662D01*
X196427524Y-58852594D01*
X196423441Y-58826649D01*
X196392496Y-58775827D01*
X196341227Y-58710701D01*
X196336201Y-58704912D01*
X196280222Y-58638293D01*
X196244477Y-58591320D01*
X196418156Y-58591320D01*
X196435037Y-58628418D01*
X196477133Y-58679620D01*
X196531626Y-58732782D01*
X196585697Y-58775761D01*
X196626527Y-58796414D01*
X196634598Y-58796356D01*
X196681799Y-58782839D01*
X196752353Y-58762583D01*
X196777360Y-58755395D01*
X196839645Y-58734525D01*
X196876248Y-58716529D01*
X196880359Y-58711225D01*
X196865244Y-58686905D01*
X196826178Y-58637263D01*
X196773790Y-58575562D01*
X196667722Y-58454309D01*
X196542939Y-58512755D01*
X196475019Y-58547830D01*
X196429698Y-58577487D01*
X196418156Y-58591320D01*
X196244477Y-58591320D01*
X196239838Y-58585224D01*
X196223379Y-58556690D01*
X196223333Y-58556072D01*
X196242397Y-58531899D01*
X196289016Y-58498978D01*
X196296238Y-58494772D01*
X196345146Y-58463588D01*
X196368877Y-58441876D01*
X196369296Y-58440278D01*
X196353291Y-58418129D01*
X196310870Y-58371568D01*
X196250667Y-58310004D01*
X196240442Y-58299864D01*
X196111434Y-58172459D01*
X195971943Y-58220451D01*
X195875955Y-58251756D01*
X195758321Y-58287722D01*
X195644485Y-58320569D01*
X195644336Y-58320610D01*
X195553927Y-58347085D01*
X195482221Y-58370691D01*
X195441851Y-58387196D01*
X195438149Y-58389703D01*
X194849556Y-58389703D01*
X194885853Y-58384092D01*
X195060629Y-58346737D01*
X195267942Y-58294612D01*
X195501418Y-58229297D01*
X195699747Y-58169543D01*
X195822977Y-58131352D01*
X195935179Y-58096640D01*
X196025187Y-58068856D01*
X196081837Y-58051451D01*
X196087580Y-58049701D01*
X196121645Y-58042227D01*
X196152576Y-58046928D01*
X196188825Y-58069453D01*
X196238845Y-58115450D01*
X196311090Y-58190567D01*
X196332448Y-58213313D01*
X196506070Y-58398567D01*
X196582668Y-58358956D01*
X196643321Y-58332072D01*
X196688802Y-58319477D01*
X196691687Y-58319346D01*
X196720858Y-58336897D01*
X196771799Y-58383906D01*
X196835718Y-58451906D01*
X196868683Y-58489816D01*
X196936536Y-58565073D01*
X196996743Y-58623346D01*
X197040132Y-58656116D01*
X197052226Y-58660286D01*
X197096324Y-58653663D01*
X197168199Y-58636631D01*
X197223467Y-58621260D01*
X197297434Y-58598280D01*
X197349992Y-58579788D01*
X197366448Y-58571993D01*
X197356165Y-58551027D01*
X197318973Y-58505703D01*
X197262822Y-58445677D01*
X197260609Y-58443426D01*
X197194925Y-58368964D01*
X197167194Y-58324614D01*
X197343563Y-58324614D01*
X197358766Y-58352140D01*
X197396504Y-58400125D01*
X197444972Y-58455374D01*
X197492367Y-58504694D01*
X197526883Y-58534890D01*
X197535132Y-58538726D01*
X197564826Y-58533189D01*
X197628156Y-58518448D01*
X197711640Y-58497649D01*
X197714944Y-58496803D01*
X197796314Y-58473913D01*
X197855097Y-58453492D01*
X197879242Y-58439761D01*
X197879326Y-58439245D01*
X197860819Y-58418729D01*
X197812158Y-58379360D01*
X197743631Y-58329430D01*
X197739297Y-58326408D01*
X197599268Y-58229002D01*
X197471416Y-58267336D01*
X197401008Y-58291599D01*
X197354571Y-58313645D01*
X197343563Y-58324614D01*
X197167194Y-58324614D01*
X197158051Y-58309992D01*
X197152489Y-58281801D01*
X197176829Y-58251374D01*
X197241105Y-58216551D01*
X197349071Y-58175364D01*
X197366815Y-58169337D01*
X197462778Y-58138295D01*
X197543215Y-58114465D01*
X197595503Y-58101499D01*
X197605933Y-58100171D01*
X197638662Y-58113609D01*
X197700712Y-58149885D01*
X197782197Y-58202943D01*
X197846497Y-58247529D01*
X198053841Y-58394888D01*
X198162201Y-58353505D01*
X198228603Y-58325259D01*
X198273412Y-58300825D01*
X198282552Y-58292721D01*
X198266612Y-58274379D01*
X198215339Y-58233660D01*
X198134329Y-58174590D01*
X198029176Y-58101196D01*
X197905476Y-58017504D01*
X197837317Y-57972329D01*
X197606288Y-57819133D01*
X197408279Y-57685022D01*
X197234731Y-57563714D01*
X197077086Y-57448927D01*
X196926785Y-57334379D01*
X196775269Y-57213789D01*
X196613980Y-57080874D01*
X196552096Y-57028984D01*
X196326716Y-56840972D01*
X196120722Y-56672477D01*
X195936581Y-56525378D01*
X195776759Y-56401552D01*
X195643721Y-56302878D01*
X195539933Y-56231234D01*
X195467860Y-56188500D01*
X195432755Y-56176297D01*
X195404909Y-56195278D01*
X195361026Y-56245082D01*
X195310520Y-56315005D01*
X195309644Y-56316326D01*
X195206162Y-56455564D01*
X195079165Y-56599696D01*
X194938823Y-56739137D01*
X194795310Y-56864300D01*
X194658797Y-56965600D01*
X194557959Y-57024754D01*
X194475849Y-57065176D01*
X194562816Y-57354675D01*
X194649784Y-57644173D01*
X194883125Y-57628882D01*
X195029577Y-57613787D01*
X195178742Y-57588753D01*
X195323432Y-57556097D01*
X195456457Y-57518140D01*
X195570628Y-57477198D01*
X195658755Y-57435592D01*
X195713650Y-57395640D01*
X195728122Y-57359661D01*
X195727177Y-57356647D01*
X195726274Y-57319300D01*
X195860177Y-57319300D01*
X195872172Y-57360554D01*
X195883877Y-57370503D01*
X195934179Y-57380522D01*
X195969151Y-57352946D01*
X195975004Y-57311692D01*
X195949902Y-57268140D01*
X195919256Y-57259998D01*
X195878211Y-57278476D01*
X195860177Y-57319300D01*
X195726274Y-57319300D01*
X195725808Y-57300023D01*
X195748186Y-57230525D01*
X195785080Y-57171118D01*
X195810296Y-57149896D01*
X195896851Y-57127352D01*
X195990161Y-57138423D01*
X196055036Y-57171626D01*
X196102940Y-57236806D01*
X196113833Y-57314000D01*
X196093230Y-57391479D01*
X196046646Y-57457514D01*
X195979598Y-57500376D01*
X195897600Y-57508337D01*
X195896753Y-57508205D01*
X195818703Y-57512764D01*
X195714342Y-57548810D01*
X195675395Y-57566754D01*
X195475708Y-57645472D01*
X195246612Y-57706053D01*
X195005366Y-57744301D01*
X194912493Y-57752209D01*
X194806118Y-57759900D01*
X194740004Y-57768078D01*
X194705738Y-57778998D01*
X194694907Y-57794916D01*
X194696714Y-57810051D01*
X194688318Y-57873744D01*
X194633084Y-57948158D01*
X194536748Y-58028833D01*
X194438269Y-58100171D01*
X194610250Y-58100171D01*
X194797226Y-58088152D01*
X195017606Y-58053429D01*
X195262820Y-57997998D01*
X195524296Y-57923859D01*
X195793463Y-57833008D01*
X195856128Y-57809744D01*
X195962118Y-57768487D01*
X196031112Y-57737140D01*
X196072184Y-57709812D01*
X196094409Y-57680614D01*
X196098112Y-57669950D01*
X196225244Y-57669950D01*
X196232766Y-57724333D01*
X196268239Y-57753072D01*
X196314518Y-57754774D01*
X196364747Y-57739309D01*
X196381168Y-57699934D01*
X196381627Y-57686173D01*
X196370948Y-57639376D01*
X196329628Y-57619726D01*
X196314518Y-57617571D01*
X196253190Y-57627776D01*
X196225244Y-57669950D01*
X196098112Y-57669950D01*
X196105852Y-57647663D01*
X196151017Y-57554760D01*
X196226443Y-57498079D01*
X196312935Y-57481609D01*
X196401860Y-57502387D01*
X196467885Y-57556881D01*
X196505552Y-57633332D01*
X196509405Y-57719980D01*
X196473985Y-57805065D01*
X196467247Y-57814092D01*
X196391306Y-57876993D01*
X196302079Y-57893889D01*
X196217953Y-57869785D01*
X196179949Y-57853225D01*
X196144047Y-57847717D01*
X196098388Y-57855155D01*
X196031109Y-57877431D01*
X195933567Y-57915167D01*
X195743499Y-57984322D01*
X195524990Y-58054147D01*
X195297866Y-58118771D01*
X195081950Y-58172327D01*
X195017868Y-58186292D01*
X194898867Y-58206141D01*
X194765518Y-58220292D01*
X194628997Y-58228471D01*
X194500475Y-58230403D01*
X194391127Y-58225814D01*
X194312124Y-58214428D01*
X194284109Y-58204320D01*
X194238078Y-58188038D01*
X194180032Y-58192516D01*
X194125815Y-58207008D01*
X194019402Y-58239382D01*
X193479388Y-58239382D01*
X193448149Y-58223077D01*
X193397517Y-58169344D01*
X193348317Y-58086210D01*
X193293963Y-57967396D01*
X193253061Y-57868819D01*
X193207163Y-57759762D01*
X193166281Y-57669331D01*
X193134435Y-57605948D01*
X193115644Y-57578037D01*
X193114017Y-57577426D01*
X193083081Y-57584949D01*
X193018023Y-57604266D01*
X192930920Y-57631741D01*
X192897089Y-57642734D01*
X192780620Y-57676246D01*
X192657448Y-57704397D01*
X192552477Y-57721567D01*
X192543973Y-57722460D01*
X192452207Y-57732390D01*
X192372634Y-57742668D01*
X192330267Y-57749618D01*
X192272771Y-57761515D01*
X192289749Y-58119578D01*
X192306727Y-58477640D01*
X192225390Y-58555751D01*
X192108385Y-58636730D01*
X191956215Y-58692524D01*
X191776130Y-58721890D01*
X191575376Y-58723590D01*
X191381488Y-58700164D01*
X191263399Y-58677103D01*
X191177133Y-58651792D01*
X191116190Y-58616395D01*
X191074072Y-58563077D01*
X191044280Y-58484001D01*
X191020316Y-58371331D01*
X190999012Y-58238981D01*
X190990587Y-58192756D01*
X190976869Y-58166636D01*
X190949269Y-58160518D01*
X190899194Y-58174295D01*
X190818057Y-58207862D01*
X190754225Y-58235984D01*
X190693612Y-58264609D01*
X190649316Y-58293842D01*
X190612539Y-58333849D01*
X190574484Y-58394799D01*
X190526351Y-58486860D01*
X190511332Y-58516684D01*
X190402066Y-58721881D01*
X190303585Y-58880972D01*
X190216179Y-58993519D01*
X190158679Y-59046672D01*
X190102574Y-59095864D01*
X190090357Y-59130414D01*
X190121048Y-59154624D01*
X190133074Y-59158868D01*
X190182687Y-59153385D01*
X190263316Y-59114400D01*
X190342523Y-59064494D01*
X190465333Y-58988943D01*
X190561090Y-58946668D01*
X190636248Y-58935597D01*
X190693813Y-58951755D01*
X190736339Y-58988756D01*
X190737342Y-59034332D01*
X190695559Y-59091279D01*
X190609725Y-59162393D01*
X190593254Y-59174255D01*
X190518823Y-59227217D01*
X190460181Y-59269127D01*
X190428403Y-59292066D01*
X190426534Y-59293459D01*
X190409136Y-59324142D01*
X190395573Y-59366805D01*
X190391963Y-59402982D01*
X190407829Y-59432417D01*
X190451880Y-59464812D01*
X190515803Y-59500745D01*
X190590618Y-59545367D01*
X190648195Y-59587644D01*
X190672640Y-59613665D01*
X190704812Y-59649360D01*
X190767334Y-59702008D01*
X190848858Y-59763397D01*
X190938035Y-59825311D01*
X191023515Y-59879538D01*
X191091024Y-59916481D01*
X191136005Y-59936157D01*
X191173824Y-59943355D01*
X191218261Y-59936369D01*
X191283096Y-59913498D01*
X191356350Y-59883674D01*
X191455023Y-59846706D01*
X191582847Y-59804148D01*
X191721630Y-59761845D01*
X191826582Y-59732574D01*
X191940040Y-59701918D01*
X192036527Y-59674737D01*
X192106146Y-59653897D01*
X192139000Y-59642264D01*
X192139494Y-59641979D01*
X192133436Y-59624375D01*
X192092652Y-59593254D01*
X192027353Y-59553889D01*
X191947750Y-59511548D01*
X191864054Y-59471503D01*
X191786477Y-59439024D01*
X191725229Y-59419380D01*
X191701563Y-59415947D01*
X191629252Y-59396629D01*
X191570386Y-59349065D01*
X191537183Y-59286739D01*
X191537303Y-59263018D01*
X191651090Y-59263018D01*
X191662392Y-59287460D01*
X191693707Y-59293459D01*
X191732332Y-59282238D01*
X191736325Y-59263018D01*
X191706414Y-59234739D01*
X191693707Y-59232577D01*
X191657141Y-59251781D01*
X191651090Y-59263018D01*
X191537303Y-59263018D01*
X191537446Y-59234839D01*
X191576924Y-59167910D01*
X191637843Y-59131911D01*
X191707398Y-59125436D01*
X191772784Y-59147080D01*
X191821193Y-59195437D01*
X191839824Y-59268028D01*
X191849669Y-59314465D01*
X191886488Y-59352333D01*
X191943324Y-59385074D01*
X192023002Y-59426627D01*
X192119885Y-59478583D01*
X192186574Y-59515106D01*
X192326324Y-59592523D01*
X192436190Y-59550565D01*
X192499926Y-59523119D01*
X192539180Y-59500223D01*
X192545285Y-59492356D01*
X192525318Y-59468804D01*
X192474790Y-59429672D01*
X192405882Y-59382731D01*
X192330778Y-59335751D01*
X192261659Y-59296501D01*
X192210710Y-59272752D01*
X192195250Y-59269107D01*
X192115252Y-59250864D01*
X192059090Y-59204131D01*
X192029804Y-59140900D01*
X192030084Y-59110813D01*
X192132058Y-59110813D01*
X192149565Y-59141520D01*
X192174676Y-59142706D01*
X192209964Y-59124458D01*
X192215561Y-59110480D01*
X192196294Y-59083682D01*
X192160849Y-59079851D01*
X192134474Y-59098887D01*
X192132058Y-59110813D01*
X192030084Y-59110813D01*
X192030435Y-59073162D01*
X192064023Y-59012911D01*
X192121039Y-58976432D01*
X192203287Y-58966826D01*
X192271544Y-58998250D01*
X192315564Y-59063172D01*
X192326508Y-59127472D01*
X192333919Y-59164626D01*
X192360469Y-59203556D01*
X192413293Y-59251904D01*
X192499527Y-59317312D01*
X192512641Y-59326801D01*
X192698400Y-59460764D01*
X192823139Y-59411602D01*
X192905228Y-59378161D01*
X192949244Y-59356605D01*
X192962983Y-59342441D01*
X192958025Y-59333898D01*
X192821933Y-59230244D01*
X192710301Y-59160559D01*
X192625755Y-59126384D01*
X192598637Y-59122990D01*
X192527754Y-59106907D01*
X192465585Y-59066824D01*
X192428475Y-59014989D01*
X192424292Y-58992333D01*
X192433565Y-58965637D01*
X192550587Y-58965637D01*
X192558233Y-59001225D01*
X192592956Y-59024619D01*
X192627824Y-59006658D01*
X192629586Y-59003985D01*
X192625051Y-58972703D01*
X192608838Y-58954097D01*
X192571820Y-58943171D01*
X192550587Y-58965637D01*
X192433565Y-58965637D01*
X192443958Y-58935717D01*
X192491494Y-58878877D01*
X192549713Y-58839167D01*
X192584353Y-58830756D01*
X192654277Y-58851888D01*
X192711721Y-58904440D01*
X192740127Y-58972144D01*
X192740879Y-58984530D01*
X192751702Y-59019735D01*
X192787923Y-59063619D01*
X192855166Y-59121819D01*
X192947878Y-59191837D01*
X193033201Y-59255938D01*
X193101431Y-59310783D01*
X193144314Y-59349512D01*
X193154877Y-59363843D01*
X193137988Y-59395760D01*
X193124436Y-59408463D01*
X193087694Y-59426914D01*
X193012640Y-59457352D01*
X192907368Y-59496970D01*
X192779971Y-59542961D01*
X192638540Y-59592517D01*
X192491170Y-59642832D01*
X192345953Y-59691099D01*
X192210981Y-59734509D01*
X192094349Y-59770257D01*
X192022470Y-59790703D01*
X191823416Y-59847462D01*
X191611265Y-59913261D01*
X191407843Y-59981135D01*
X191269158Y-60031082D01*
X191206714Y-60049164D01*
X191147430Y-60050872D01*
X191082055Y-60033113D01*
X191001341Y-59992791D01*
X190896037Y-59926813D01*
X190835176Y-59885894D01*
X190718112Y-59812361D01*
X190627261Y-59768454D01*
X190573693Y-59756163D01*
X190518996Y-59744961D01*
X190437642Y-59715258D01*
X190345154Y-59672912D01*
X190323497Y-59661766D01*
X190233966Y-59615838D01*
X190175012Y-59590699D01*
X190134676Y-59583413D01*
X190100998Y-59591042D01*
X190078811Y-59601662D01*
X190032683Y-59629775D01*
X190013363Y-59649388D01*
X190013362Y-59649449D01*
X190029796Y-59671445D01*
X190073260Y-59717320D01*
X190134999Y-59777910D01*
X190147303Y-59789602D01*
X190229470Y-59876718D01*
X190274454Y-59946172D01*
X190281388Y-59995146D01*
X190249408Y-60020822D01*
X190219391Y-60024044D01*
X190144096Y-60008401D01*
X190041532Y-59964261D01*
X189920543Y-59895811D01*
X189847361Y-59847958D01*
X189781950Y-59806346D01*
X189737192Y-59790521D01*
X189695397Y-59796234D01*
X189670803Y-59805539D01*
X189617895Y-59832405D01*
X189604822Y-59859117D01*
X189632155Y-59895107D01*
X189678511Y-59933091D01*
X189742213Y-59992469D01*
X189794417Y-60057965D01*
X189799516Y-60066306D01*
X189825578Y-60121539D01*
X189823040Y-60159835D01*
X189809502Y-60182163D01*
X189758654Y-60213332D01*
X189682434Y-60206032D01*
X189584060Y-60161231D01*
X189466746Y-60079892D01*
X189465423Y-60078846D01*
X189389385Y-60020220D01*
X189333125Y-59985664D01*
X189278487Y-59968699D01*
X189207315Y-59962846D01*
X189137702Y-59961890D01*
X189037324Y-59963525D01*
X188965356Y-59973537D01*
X188901613Y-59997035D01*
X188825909Y-60039127D01*
X188821115Y-60042012D01*
X188708189Y-60104643D01*
X188626543Y-60136440D01*
X188571057Y-60138926D01*
X188545105Y-60124109D01*
X188536949Y-60085161D01*
X188550909Y-60040149D01*
X188637391Y-60040149D01*
X188657189Y-60041045D01*
X188715610Y-60014656D01*
X188774160Y-59983645D01*
X188851436Y-59938159D01*
X188870909Y-59920810D01*
X189416000Y-59920810D01*
X189433067Y-59950722D01*
X189477130Y-59991588D01*
X189578483Y-60071990D01*
X189659311Y-60124301D01*
X189715586Y-60146522D01*
X189743282Y-60136654D01*
X189745481Y-60124788D01*
X189728704Y-60098339D01*
X189686043Y-60051552D01*
X189629003Y-59995303D01*
X189569090Y-59940470D01*
X189517809Y-59897927D01*
X189486665Y-59878551D01*
X189484731Y-59878300D01*
X189449173Y-59890338D01*
X189430718Y-59900637D01*
X189416000Y-59920810D01*
X188870909Y-59920810D01*
X188886477Y-59906940D01*
X188882071Y-59885668D01*
X188846590Y-59871437D01*
X188797639Y-59880443D01*
X188731460Y-59930482D01*
X188707707Y-59953831D01*
X188654726Y-60011300D01*
X188637391Y-60040149D01*
X188550909Y-60040149D01*
X188555366Y-60025778D01*
X188592977Y-59960448D01*
X188642404Y-59903660D01*
X188667239Y-59884288D01*
X188714184Y-59844061D01*
X188714332Y-59813830D01*
X188674339Y-59792814D01*
X188622115Y-59796035D01*
X188535305Y-59825648D01*
X188445529Y-59866679D01*
X188323963Y-59919481D01*
X188237349Y-59939984D01*
X188184210Y-59928220D01*
X188163069Y-59884217D01*
X188162547Y-59872515D01*
X188164804Y-59866616D01*
X188243376Y-59866616D01*
X188251060Y-59874383D01*
X188281547Y-59864962D01*
X188342969Y-59836563D01*
X188393359Y-59811972D01*
X188475986Y-59768828D01*
X188517278Y-59738797D01*
X188521183Y-59717066D01*
X188491652Y-59698820D01*
X188487524Y-59697198D01*
X188444370Y-59701540D01*
X188382492Y-59729596D01*
X188318239Y-59771286D01*
X188267960Y-59816527D01*
X188250364Y-59843450D01*
X188243376Y-59866616D01*
X188164804Y-59866616D01*
X188179411Y-59828436D01*
X188222848Y-59768653D01*
X188263544Y-59725604D01*
X188319867Y-59667946D01*
X188342037Y-59632240D01*
X188334480Y-59610705D01*
X188330514Y-59607867D01*
X188280035Y-59597275D01*
X188259958Y-59602088D01*
X188169979Y-59637835D01*
X188068284Y-59673144D01*
X187969524Y-59703481D01*
X187888348Y-59724312D01*
X187842854Y-59731182D01*
X187782816Y-59718438D01*
X187748363Y-59695056D01*
X187735627Y-59667233D01*
X187746017Y-59642688D01*
X187833897Y-59642688D01*
X187840600Y-59656144D01*
X187886881Y-59651414D01*
X187974891Y-59628444D01*
X188046184Y-59606655D01*
X188145318Y-59571558D01*
X188198354Y-59542676D01*
X188207253Y-59518320D01*
X188173975Y-59496802D01*
X188173805Y-59496736D01*
X188125293Y-59496762D01*
X188051738Y-59516194D01*
X187969598Y-59548943D01*
X187895331Y-59588921D01*
X187864623Y-59611098D01*
X187833897Y-59642688D01*
X187746017Y-59642688D01*
X187749517Y-59634420D01*
X187795561Y-59585102D01*
X187805850Y-59575317D01*
X187877726Y-59518583D01*
X187954143Y-59474296D01*
X187979488Y-59464066D01*
X188045225Y-59431515D01*
X188063172Y-59392290D01*
X188035305Y-59346428D01*
X188023912Y-59322086D01*
X188174724Y-59322086D01*
X188272135Y-59407483D01*
X188327521Y-59447639D01*
X188416888Y-59502799D01*
X188530176Y-59567163D01*
X188657324Y-59634931D01*
X188734319Y-59673939D01*
X188871666Y-59741959D01*
X188975040Y-59790536D01*
X189054417Y-59821215D01*
X189119773Y-59835543D01*
X189181087Y-59835065D01*
X189248336Y-59821328D01*
X189331496Y-59795876D01*
X189392365Y-59775891D01*
X189485396Y-59741178D01*
X189513824Y-59729051D01*
X189856774Y-59729051D01*
X189861179Y-59760446D01*
X189876672Y-59778234D01*
X189923229Y-59810607D01*
X189989161Y-59849307D01*
X190061250Y-59887533D01*
X190126280Y-59918485D01*
X190171034Y-59935364D01*
X190182827Y-59935755D01*
X190172458Y-59914783D01*
X190133267Y-59871817D01*
X190073896Y-59816300D01*
X189979120Y-59742454D01*
X189909478Y-59710124D01*
X189864767Y-59719228D01*
X189856774Y-59729051D01*
X189513824Y-59729051D01*
X189601548Y-59691629D01*
X189729694Y-59632688D01*
X189858704Y-59569799D01*
X189977451Y-59508405D01*
X189992521Y-59499976D01*
X190235821Y-59499976D01*
X190245766Y-59525639D01*
X190295777Y-59561691D01*
X190382544Y-59608145D01*
X190481624Y-59653360D01*
X190555851Y-59678659D01*
X190600220Y-59683190D01*
X190609725Y-59666099D01*
X190596181Y-59644588D01*
X190555079Y-59610606D01*
X190488619Y-59570255D01*
X190411261Y-59530609D01*
X190337464Y-59498743D01*
X190281690Y-59481731D01*
X190262979Y-59481566D01*
X190235821Y-59499976D01*
X189992521Y-59499976D01*
X190074806Y-59453952D01*
X190139641Y-59411882D01*
X190144942Y-59407736D01*
X190215639Y-59350547D01*
X190000037Y-59231254D01*
X190266353Y-59231254D01*
X190281362Y-59245342D01*
X190303543Y-59259373D01*
X190322201Y-59264160D01*
X190347344Y-59255484D01*
X190388981Y-59229124D01*
X190457120Y-59180861D01*
X190489967Y-59157381D01*
X190582523Y-59085709D01*
X190635123Y-59033526D01*
X190648617Y-59003566D01*
X190623860Y-58998561D01*
X190561704Y-59021244D01*
X190463889Y-59073821D01*
X190362376Y-59135623D01*
X190298937Y-59179341D01*
X190268591Y-59209657D01*
X190266353Y-59231254D01*
X190000037Y-59231254D01*
X189828355Y-59136262D01*
X189698601Y-59064281D01*
X189623680Y-59022501D01*
X189919389Y-59022501D01*
X189932520Y-59045096D01*
X189941870Y-59051414D01*
X189972275Y-59067817D01*
X189999263Y-59068010D01*
X190034769Y-59046983D01*
X190090731Y-58999729D01*
X190113730Y-58979301D01*
X190167981Y-58926170D01*
X190200148Y-58885049D01*
X190204120Y-58867678D01*
X190173037Y-58866231D01*
X190116197Y-58884180D01*
X190048826Y-58914600D01*
X189986151Y-58950566D01*
X189943397Y-58985155D01*
X189941870Y-58986947D01*
X189919389Y-59022501D01*
X189623680Y-59022501D01*
X189578777Y-58997461D01*
X189505791Y-58956508D01*
X189765912Y-58956508D01*
X189782268Y-58975317D01*
X189798832Y-58976873D01*
X189828587Y-58964004D01*
X189884752Y-58930576D01*
X189942442Y-58892450D01*
X190024396Y-58843186D01*
X190105572Y-58805658D01*
X190150147Y-58792086D01*
X190185881Y-58783067D01*
X190215678Y-58766339D01*
X190245044Y-58734579D01*
X190279487Y-58680466D01*
X190324514Y-58596678D01*
X190380972Y-58485192D01*
X190442248Y-58365003D01*
X190488582Y-58281019D01*
X190525670Y-58225332D01*
X190559209Y-58190030D01*
X190594895Y-58167203D01*
X190617120Y-58157255D01*
X190690468Y-58126421D01*
X190783628Y-58086226D01*
X190847219Y-58058291D01*
X190987020Y-57996312D01*
X190971682Y-57896036D01*
X190960256Y-57831439D01*
X190950189Y-57790921D01*
X190947756Y-57785813D01*
X190923139Y-57790269D01*
X190862519Y-57809780D01*
X190775069Y-57841194D01*
X190671926Y-57880589D01*
X190404683Y-57985313D01*
X190217806Y-58316711D01*
X190142408Y-58449754D01*
X190084322Y-58549321D01*
X190037195Y-58624506D01*
X189994675Y-58684401D01*
X189950408Y-58738102D01*
X189898040Y-58794700D01*
X189847648Y-58846542D01*
X189787397Y-58914406D01*
X189765912Y-58956508D01*
X189505791Y-58956508D01*
X189477393Y-58940574D01*
X189402959Y-58898392D01*
X189367351Y-58877734D01*
X189318208Y-58848241D01*
X189585140Y-58848241D01*
X189611973Y-58870613D01*
X189647198Y-58894218D01*
X189674878Y-58898532D01*
X189708648Y-58879323D01*
X189762141Y-58832357D01*
X189775922Y-58819704D01*
X189828331Y-58766844D01*
X189861361Y-58724441D01*
X189867245Y-58709906D01*
X189848113Y-58702186D01*
X189798909Y-58713983D01*
X189731924Y-58740776D01*
X189659446Y-58778045D01*
X189625583Y-58798804D01*
X189586123Y-58827960D01*
X189585140Y-58848241D01*
X189318208Y-58848241D01*
X189293631Y-58833491D01*
X188795059Y-59053424D01*
X188646863Y-59118689D01*
X188510620Y-59178484D01*
X188393699Y-59229592D01*
X188303472Y-59268795D01*
X188247306Y-59292875D01*
X188235606Y-59297721D01*
X188174724Y-59322086D01*
X188023912Y-59322086D01*
X188018020Y-59309496D01*
X188033021Y-59272486D01*
X188044071Y-59239562D01*
X188031773Y-59200034D01*
X187991395Y-59141183D01*
X187977617Y-59123549D01*
X187931010Y-59057136D01*
X187900917Y-58999826D01*
X187894666Y-58975515D01*
X187885794Y-58955899D01*
X187966075Y-58955899D01*
X187973488Y-58989431D01*
X188016713Y-59052849D01*
X188055793Y-59098567D01*
X188111663Y-59158398D01*
X188147395Y-59187285D01*
X188174649Y-59191182D01*
X188205081Y-59176041D01*
X188206171Y-59175351D01*
X188213817Y-59153699D01*
X188188284Y-59114557D01*
X188127568Y-59053960D01*
X188046228Y-58986229D01*
X187991359Y-58954187D01*
X187966075Y-58955899D01*
X187885794Y-58955899D01*
X187877355Y-58937241D01*
X187832454Y-58882043D01*
X187782989Y-58834004D01*
X187671312Y-58735702D01*
X187546471Y-58784910D01*
X187454921Y-58822047D01*
X187397018Y-58850709D01*
X187360841Y-58879619D01*
X187334470Y-58917499D01*
X187315512Y-58953921D01*
X187263980Y-59020112D01*
X187203530Y-59047007D01*
X187145789Y-59036734D01*
X187102383Y-58991421D01*
X187091181Y-58941186D01*
X187165380Y-58941186D01*
X187184951Y-58969983D01*
X187204681Y-58972570D01*
X187244115Y-58953156D01*
X187252990Y-58940343D01*
X187249120Y-58899720D01*
X187223394Y-58868363D01*
X187191588Y-58865341D01*
X187191157Y-58865602D01*
X187166571Y-58899452D01*
X187165380Y-58941186D01*
X187091181Y-58941186D01*
X187084939Y-58913195D01*
X187084934Y-58911727D01*
X187105613Y-58842121D01*
X187159291Y-58799474D01*
X187233434Y-58793461D01*
X187237170Y-58794233D01*
X187283442Y-58791812D01*
X187363688Y-58770621D01*
X187480837Y-58729710D01*
X187536196Y-58707993D01*
X187772902Y-58707993D01*
X187793046Y-58743140D01*
X187845446Y-58789329D01*
X187918055Y-58837370D01*
X187992077Y-58875185D01*
X188074955Y-58921980D01*
X188161705Y-58986964D01*
X188199076Y-59021334D01*
X188255397Y-59075303D01*
X188298975Y-59111734D01*
X188315962Y-59121381D01*
X188349055Y-59112224D01*
X188403491Y-59087765D01*
X188408995Y-59084951D01*
X188482554Y-59046912D01*
X188383433Y-58939378D01*
X188329950Y-58873854D01*
X188293961Y-58815399D01*
X188284311Y-58784701D01*
X188278217Y-58772195D01*
X188358072Y-58772195D01*
X188369944Y-58812720D01*
X188415961Y-58874821D01*
X188447547Y-58908876D01*
X188509999Y-58962813D01*
X188567093Y-58995381D01*
X188608840Y-59002582D01*
X188625248Y-58980419D01*
X188625251Y-58979974D01*
X188608104Y-58951927D01*
X188564915Y-58905261D01*
X188508057Y-58851299D01*
X188449906Y-58801360D01*
X188402837Y-58766764D01*
X188382267Y-58757697D01*
X188358072Y-58772195D01*
X188278217Y-58772195D01*
X188265621Y-58746348D01*
X188218961Y-58695454D01*
X188158452Y-58643991D01*
X188098213Y-58603929D01*
X188052363Y-58587242D01*
X188051409Y-58587227D01*
X188011459Y-58596099D01*
X187949211Y-58618367D01*
X187879708Y-58647506D01*
X187817993Y-58676995D01*
X187779110Y-58700310D01*
X187772902Y-58707993D01*
X187536196Y-58707993D01*
X187637815Y-58668129D01*
X187685627Y-58648568D01*
X188072223Y-58489316D01*
X188201575Y-58586977D01*
X188274700Y-58637296D01*
X188338316Y-58672554D01*
X188375946Y-58684639D01*
X188431832Y-58701923D01*
X188505531Y-58747528D01*
X188584011Y-58812082D01*
X188651328Y-58882669D01*
X188693311Y-58929934D01*
X188724507Y-58944562D01*
X188764933Y-58931637D01*
X188791357Y-58918247D01*
X188842375Y-58889107D01*
X188868052Y-58869042D01*
X188868779Y-58867154D01*
X188855186Y-58843605D01*
X188819607Y-58792696D01*
X188771473Y-58727750D01*
X188721300Y-58655829D01*
X188686474Y-58595046D01*
X188779785Y-58595046D01*
X188786489Y-58619552D01*
X188817959Y-58669118D01*
X188857676Y-58720888D01*
X188920696Y-58786069D01*
X188974417Y-58820272D01*
X189012109Y-58821013D01*
X189027043Y-58785810D01*
X189027073Y-58783380D01*
X189009636Y-58753813D01*
X188965757Y-58710778D01*
X188908080Y-58663907D01*
X188849252Y-58622831D01*
X188801918Y-58597181D01*
X188779785Y-58595046D01*
X188686474Y-58595046D01*
X188686127Y-58594441D01*
X188674061Y-58559392D01*
X188690589Y-58514716D01*
X188736597Y-58501828D01*
X188806241Y-58518984D01*
X188893678Y-58564438D01*
X188993063Y-58636447D01*
X189026076Y-58664496D01*
X189089031Y-58717693D01*
X189131528Y-58743112D01*
X189168778Y-58746139D01*
X189215995Y-58732162D01*
X189216570Y-58731954D01*
X189276640Y-58716345D01*
X189329575Y-58723360D01*
X189390829Y-58750768D01*
X189484384Y-58798764D01*
X189619588Y-58717349D01*
X189726279Y-58660249D01*
X189809324Y-58633632D01*
X189871614Y-58632476D01*
X189888442Y-58613147D01*
X189924979Y-58558069D01*
X189977062Y-58473951D01*
X190040525Y-58367497D01*
X190102966Y-58259823D01*
X190317772Y-57884859D01*
X190640447Y-57757189D01*
X190963122Y-57629518D01*
X190962749Y-57542170D01*
X190962119Y-57494559D01*
X190957182Y-57458675D01*
X190942691Y-57434584D01*
X190913396Y-57422351D01*
X190864045Y-57422042D01*
X190789391Y-57433722D01*
X190684182Y-57457458D01*
X190543170Y-57493315D01*
X190361105Y-57541358D01*
X190328076Y-57550111D01*
X189857791Y-57676793D01*
X189394931Y-57805533D01*
X188944253Y-57934866D01*
X188510511Y-58063323D01*
X188098463Y-58189439D01*
X187712863Y-58311746D01*
X187358469Y-58428778D01*
X187040036Y-58539067D01*
X186762319Y-58641147D01*
X186652672Y-58683707D01*
X186495212Y-58748697D01*
X186334813Y-58819628D01*
X186179201Y-58892628D01*
X186036105Y-58963826D01*
X185913252Y-59029347D01*
X185818371Y-59085321D01*
X185759189Y-59127873D01*
X185751504Y-59135286D01*
X185691968Y-59198659D01*
X185547818Y-59198659D01*
X185554577Y-59163314D01*
X185578037Y-59119960D01*
X185620808Y-59076322D01*
X185655212Y-59046256D01*
X185756379Y-58972869D01*
X185900362Y-58889076D01*
X186082847Y-58796762D01*
X186299521Y-58697808D01*
X186546068Y-58594097D01*
X186818176Y-58487512D01*
X187111530Y-58379936D01*
X187421815Y-58273252D01*
X187441410Y-58266743D01*
X187758158Y-58164083D01*
X188112641Y-58053313D01*
X188495130Y-57937254D01*
X188895895Y-57818729D01*
X189305207Y-57700557D01*
X189713338Y-57585561D01*
X190110559Y-57476561D01*
X190487140Y-57376378D01*
X190710876Y-57318687D01*
X190933509Y-57262094D01*
X190945368Y-56566991D01*
X190950222Y-56328882D01*
X190956528Y-56130093D01*
X190965255Y-55961240D01*
X190977371Y-55812940D01*
X190993846Y-55675809D01*
X191015647Y-55540463D01*
X191043745Y-55397520D01*
X191079107Y-55237595D01*
X191085480Y-55209911D01*
X191109299Y-55108475D01*
X191130472Y-55021223D01*
X191145616Y-54961980D01*
X191149293Y-54949012D01*
X191153222Y-54920172D01*
X191133000Y-54910804D01*
X191077509Y-54916605D01*
X191069009Y-54917947D01*
X191021395Y-54929181D01*
X190934431Y-54953305D01*
X190815112Y-54988232D01*
X190670435Y-55031879D01*
X190507397Y-55082160D01*
X190332992Y-55136991D01*
X190317390Y-55141946D01*
X190039019Y-55229712D01*
X189801644Y-55302798D01*
X189600248Y-55362494D01*
X189429811Y-55410087D01*
X189285316Y-55446867D01*
X189161746Y-55474124D01*
X189054083Y-55493145D01*
X188957308Y-55505220D01*
X188880956Y-55510927D01*
X188770719Y-55515221D01*
X188693823Y-55512782D01*
X188635123Y-55501533D01*
X188579477Y-55479396D01*
X188552389Y-55465842D01*
X188442857Y-55388174D01*
X188365026Y-55282024D01*
X188314030Y-55140327D01*
X188307193Y-55109864D01*
X188292605Y-54979031D01*
X188447473Y-54979031D01*
X188463818Y-55105126D01*
X188498877Y-55211672D01*
X188517755Y-55245324D01*
X188564466Y-55291959D01*
X188633336Y-55337015D01*
X188701746Y-55366840D01*
X188727109Y-55371701D01*
X188746435Y-55352365D01*
X188761451Y-55317860D01*
X188772950Y-55249342D01*
X188777580Y-55146301D01*
X188775859Y-55022356D01*
X188768307Y-54891126D01*
X188755440Y-54766230D01*
X188737778Y-54661287D01*
X188736193Y-54654246D01*
X188709176Y-54543849D01*
X188686687Y-54474581D01*
X188664446Y-54439667D01*
X188638173Y-54432334D01*
X188604247Y-54445454D01*
X188545110Y-54502092D01*
X188498658Y-54594916D01*
X188466098Y-54712778D01*
X188448634Y-54844533D01*
X188447473Y-54979031D01*
X188292605Y-54979031D01*
X188291478Y-54968926D01*
X188296975Y-54816466D01*
X188321140Y-54665419D01*
X188361431Y-54528721D01*
X188415307Y-54419307D01*
X188422307Y-54410513D01*
X188816218Y-54410513D01*
X188816381Y-54438059D01*
X188827753Y-54499940D01*
X188847968Y-54583714D01*
X188852117Y-54599248D01*
X188878336Y-54720227D01*
X188894161Y-54857026D01*
X188901083Y-55023961D01*
X188901610Y-55074332D01*
X188903536Y-55188408D01*
X188907608Y-55282345D01*
X188913241Y-55346830D01*
X188919853Y-55372546D01*
X188920314Y-55372654D01*
X188965633Y-55365739D01*
X189050371Y-55346318D01*
X189167448Y-55316381D01*
X189309785Y-55277915D01*
X189470302Y-55232908D01*
X189641919Y-55183349D01*
X189817556Y-55131225D01*
X189990133Y-55078524D01*
X190152570Y-55027235D01*
X190167151Y-55022530D01*
X190410657Y-54944119D01*
X190612383Y-54880186D01*
X190776734Y-54829751D01*
X190908119Y-54791835D01*
X191010944Y-54765459D01*
X191089616Y-54749643D01*
X191148542Y-54743409D01*
X191192129Y-54745776D01*
X191224784Y-54755767D01*
X191250914Y-54772400D01*
X191259527Y-54779784D01*
X191288862Y-54821727D01*
X191301382Y-54884014D01*
X191297031Y-54973751D01*
X191275757Y-55098046D01*
X191256465Y-55185252D01*
X191207044Y-55414437D01*
X191168769Y-55634508D01*
X191140606Y-55856233D01*
X191121522Y-56090374D01*
X191110484Y-56347698D01*
X191106460Y-56638968D01*
X191106506Y-56747892D01*
X191109062Y-57038538D01*
X191114543Y-57317252D01*
X191122678Y-57578944D01*
X191133198Y-57818525D01*
X191145833Y-58030907D01*
X191160313Y-58210999D01*
X191176370Y-58353713D01*
X191193732Y-58453960D01*
X191197771Y-58470067D01*
X191231669Y-58503935D01*
X191312148Y-58531661D01*
X191335673Y-58536797D01*
X191417926Y-58553670D01*
X191486677Y-58568204D01*
X191511061Y-58573598D01*
X191557475Y-58577684D01*
X191637295Y-58578550D01*
X191735323Y-58576117D01*
X191762006Y-58574929D01*
X191887387Y-58564486D01*
X191980456Y-58545153D01*
X192057308Y-58513420D01*
X192066417Y-58508494D01*
X192168587Y-58451930D01*
X192159164Y-58054285D01*
X192156288Y-57900450D01*
X192156306Y-57788708D01*
X192159598Y-57712513D01*
X192166545Y-57665318D01*
X192177527Y-57640574D01*
X192183517Y-57635250D01*
X192225006Y-57623580D01*
X192297456Y-57615486D01*
X192363410Y-57613064D01*
X192563774Y-57596466D01*
X192770126Y-57552292D01*
X192959208Y-57485878D01*
X192999572Y-57467154D01*
X193078478Y-57430142D01*
X193141341Y-57403816D01*
X193174240Y-57393939D01*
X193192971Y-57415269D01*
X193223488Y-57472904D01*
X193261114Y-57557311D01*
X193290773Y-57631379D01*
X193337931Y-57750203D01*
X193388098Y-57869723D01*
X193433341Y-57971290D01*
X193451307Y-58008848D01*
X193520870Y-58148876D01*
X193648372Y-58148557D01*
X193818649Y-58136344D01*
X193999725Y-58103210D01*
X194178172Y-58053198D01*
X194340564Y-57990354D01*
X194473475Y-57918724D01*
X194517728Y-57886627D01*
X194577238Y-57838438D01*
X194401640Y-57256984D01*
X194249696Y-56762287D01*
X194105278Y-56309254D01*
X194027055Y-56074133D01*
X194162537Y-56074133D01*
X194162735Y-56075401D01*
X194172739Y-56102715D01*
X194194776Y-56168559D01*
X194226254Y-56265008D01*
X194264581Y-56384133D01*
X194297576Y-56487732D01*
X194423369Y-56884402D01*
X194549063Y-56816495D01*
X194616368Y-56772588D01*
X194706081Y-56703587D01*
X194806376Y-56619041D01*
X194903188Y-56530632D01*
X195044376Y-56387563D01*
X195180908Y-56233772D01*
X195306119Y-56077944D01*
X195413344Y-55928761D01*
X195495917Y-55794908D01*
X195542442Y-55697872D01*
X195566391Y-55618657D01*
X195586578Y-55520171D01*
X195602103Y-55412959D01*
X195612066Y-55307567D01*
X195615567Y-55214538D01*
X195611706Y-55144418D01*
X195599583Y-55107752D01*
X195593065Y-55104773D01*
X195567095Y-55118920D01*
X195565807Y-55125076D01*
X195548729Y-55157056D01*
X195502188Y-55214237D01*
X195433219Y-55289570D01*
X195348861Y-55376008D01*
X195256149Y-55466502D01*
X195162122Y-55554006D01*
X195073815Y-55631471D01*
X195004696Y-55687046D01*
X194776628Y-55839979D01*
X194553772Y-55949788D01*
X194328362Y-56020292D01*
X194326249Y-56020771D01*
X194243967Y-56041573D01*
X194185708Y-56060592D01*
X194162537Y-56074133D01*
X194027055Y-56074133D01*
X193968647Y-55898570D01*
X193840065Y-55530916D01*
X193719793Y-55206977D01*
X193608091Y-54927436D01*
X193505221Y-54692977D01*
X193411444Y-54504283D01*
X193327021Y-54362036D01*
X193263853Y-54279306D01*
X193214103Y-54215072D01*
X193183787Y-54157872D01*
X193177220Y-54118262D01*
X193193151Y-54106307D01*
X193220028Y-54101699D01*
X193287691Y-54088785D01*
X193389190Y-54068930D01*
X193517573Y-54043498D01*
X193665893Y-54013855D01*
X193747177Y-53997514D01*
X194177642Y-53907298D01*
X194573531Y-53817144D01*
X194931818Y-53727829D01*
X195249476Y-53640132D01*
X195523479Y-53554829D01*
X195670809Y-53503227D01*
X195836693Y-53442024D01*
X195763626Y-53366255D01*
X195711455Y-53303455D01*
X195673234Y-53242225D01*
X195667725Y-53229605D01*
X195641691Y-53124192D01*
X195627448Y-52987370D01*
X195626596Y-52905023D01*
X195760630Y-52905023D01*
X195768423Y-53065996D01*
X195793297Y-53184593D01*
X195837487Y-53264824D01*
X195903230Y-53310702D01*
X195992765Y-53326239D01*
X195995535Y-53326276D01*
X196072147Y-53327016D01*
X196088128Y-53138282D01*
X196091737Y-52960569D01*
X196073292Y-52796703D01*
X196034639Y-52660252D01*
X196018212Y-52624416D01*
X195969256Y-52558237D01*
X195904092Y-52504290D01*
X195840116Y-52476106D01*
X195825679Y-52474667D01*
X195799516Y-52498554D01*
X195779857Y-52569158D01*
X195766944Y-52684895D01*
X195761013Y-52844181D01*
X195760630Y-52905023D01*
X195626596Y-52905023D01*
X195625874Y-52835196D01*
X195637847Y-52683728D01*
X195637861Y-52683622D01*
X195648764Y-52592840D01*
X195655332Y-52523020D01*
X195656494Y-52486167D01*
X195655734Y-52483419D01*
X195629189Y-52487610D01*
X195560620Y-52508179D01*
X195453421Y-52543905D01*
X195310985Y-52593570D01*
X195136704Y-52655957D01*
X194933973Y-52729846D01*
X194706185Y-52814020D01*
X194456732Y-52907259D01*
X194189007Y-53008346D01*
X194104637Y-53040399D01*
X193851464Y-53136661D01*
X193639776Y-53216884D01*
X193465552Y-53282387D01*
X193324772Y-53334489D01*
X193213413Y-53374509D01*
X193127455Y-53403768D01*
X193062875Y-53423584D01*
X193015654Y-53435277D01*
X192981768Y-53440167D01*
X192957197Y-53439573D01*
X192937919Y-53434813D01*
X192922335Y-53428317D01*
X192872603Y-53398394D01*
X192835522Y-53355362D01*
X192808447Y-53291496D01*
X192788734Y-53199072D01*
X192773737Y-53070363D01*
X192765803Y-52971131D01*
X192735545Y-52706035D01*
X192683994Y-52479059D01*
X192608288Y-52283238D01*
X192505565Y-52111608D01*
X192372963Y-51957205D01*
X192333523Y-51919285D01*
X192139743Y-51770441D01*
X191920176Y-51660275D01*
X191672909Y-51588126D01*
X191396025Y-51553328D01*
X191266561Y-51549683D01*
X190996273Y-51567600D01*
X190754972Y-51623190D01*
X190539283Y-51717728D01*
X190345827Y-51852490D01*
X190262979Y-51928733D01*
X190194756Y-51999605D01*
X190142348Y-52059455D01*
X190113756Y-52098907D01*
X190110773Y-52107120D01*
X190132904Y-52123598D01*
X190190775Y-52132782D01*
X190221962Y-52133728D01*
X190349274Y-52149928D01*
X190440289Y-52198505D01*
X190467476Y-52228292D01*
X190512070Y-52255075D01*
X190593421Y-52259110D01*
X190596729Y-52258880D01*
X190656655Y-52249456D01*
X190708780Y-52225479D01*
X190767053Y-52178562D01*
X190824494Y-52121933D01*
X190916397Y-52038277D01*
X191006553Y-51983713D01*
X191109289Y-51952826D01*
X191238932Y-51940203D01*
X191308565Y-51939041D01*
X191444651Y-51946016D01*
X191547110Y-51969930D01*
X191629292Y-52014875D01*
X191670644Y-52050001D01*
X191732815Y-52109292D01*
X191938525Y-52036755D01*
X192061411Y-51995510D01*
X192148572Y-51972685D01*
X192209068Y-51967557D01*
X192251959Y-51979405D01*
X192286308Y-52007507D01*
X192287618Y-52008943D01*
X192325416Y-52078173D01*
X192346344Y-52171663D01*
X192346093Y-52266615D01*
X192341168Y-52292280D01*
X192318259Y-52339610D01*
X192275965Y-52348994D01*
X192271226Y-52348396D01*
X192237435Y-52336222D01*
X192219431Y-52303400D01*
X192210665Y-52236765D01*
X192209870Y-52225051D01*
X192199499Y-52151967D01*
X192181698Y-52112865D01*
X192173341Y-52109091D01*
X192137902Y-52116528D01*
X192069672Y-52136531D01*
X191981698Y-52165203D01*
X191956408Y-52173872D01*
X191768581Y-52238937D01*
X191752315Y-52347402D01*
X191711193Y-52468809D01*
X191632371Y-52573988D01*
X191524843Y-52659944D01*
X191397605Y-52723683D01*
X191259653Y-52762213D01*
X191119982Y-52772538D01*
X190987588Y-52751666D01*
X190871465Y-52696603D01*
X190823513Y-52656515D01*
X190773890Y-52592351D01*
X191231597Y-52592351D01*
X191241592Y-52618705D01*
X191252374Y-52620784D01*
X191283834Y-52604087D01*
X191305631Y-52582365D01*
X191343067Y-52531214D01*
X191391090Y-52457309D01*
X191443752Y-52370954D01*
X191495101Y-52282451D01*
X191539189Y-52202104D01*
X191570067Y-52140216D01*
X191581783Y-52107090D01*
X191581349Y-52104892D01*
X191558274Y-52086412D01*
X191526882Y-52098403D01*
X191483595Y-52144408D01*
X191424838Y-52227970D01*
X191371032Y-52313239D01*
X191295503Y-52441728D01*
X191249296Y-52534062D01*
X191231597Y-52592351D01*
X190773890Y-52592351D01*
X190763150Y-52578464D01*
X190743951Y-52502598D01*
X190743947Y-52501456D01*
X190737790Y-52448032D01*
X190711697Y-52428010D01*
X190684650Y-52425962D01*
X190605956Y-52436118D01*
X190540821Y-52462039D01*
X190503956Y-52496901D01*
X190500419Y-52511403D01*
X190485366Y-52573574D01*
X190446529Y-52655464D01*
X190393390Y-52741221D01*
X190335432Y-52814987D01*
X190297516Y-52850663D01*
X190239015Y-52884580D01*
X190162885Y-52915298D01*
X190084244Y-52938425D01*
X190018214Y-52949573D01*
X189979912Y-52944349D01*
X189978654Y-52943251D01*
X189948832Y-52940191D01*
X189930152Y-52945401D01*
X189910580Y-52958777D01*
X189906418Y-52986274D01*
X189917776Y-53040303D01*
X189931446Y-53088438D01*
X189989066Y-53232202D01*
X190070381Y-53341307D01*
X190181549Y-53420775D01*
X190328726Y-53475625D01*
X190434046Y-53498317D01*
X190640177Y-53511053D01*
X190852900Y-53482533D01*
X191062739Y-53416986D01*
X191260219Y-53318640D01*
X191435865Y-53191722D01*
X191580199Y-53040461D01*
X191634055Y-52962921D01*
X191698706Y-52869877D01*
X191749469Y-52823049D01*
X191786834Y-52822117D01*
X191806216Y-52850966D01*
X191802893Y-52899875D01*
X191771548Y-52973300D01*
X191718438Y-53061155D01*
X191649819Y-53153356D01*
X191571949Y-53239820D01*
X191554275Y-53256998D01*
X191422870Y-53381275D01*
X191485230Y-53537048D01*
X191530585Y-53665869D01*
X191546139Y-53762035D01*
X191528701Y-53833685D01*
X191475083Y-53888955D01*
X191382095Y-53935984D01*
X191319879Y-53958937D01*
X191228472Y-53986187D01*
X191098015Y-54019182D01*
X190935314Y-54056646D01*
X190747176Y-54097300D01*
X190540409Y-54139866D01*
X190321819Y-54183066D01*
X190098213Y-54225623D01*
X189876398Y-54266257D01*
X189663181Y-54303692D01*
X189465369Y-54336648D01*
X189289769Y-54363849D01*
X189143188Y-54384015D01*
X189032432Y-54395870D01*
X188978492Y-54398541D01*
X188897772Y-54400336D01*
X188838669Y-54405008D01*
X188816218Y-54410513D01*
X188422307Y-54410513D01*
X188451961Y-54373262D01*
X188540533Y-54315405D01*
X188670137Y-54275631D01*
X188836131Y-54255105D01*
X188932829Y-54252424D01*
X188994538Y-54248290D01*
X189097336Y-54236551D01*
X189234374Y-54218195D01*
X189398799Y-54194213D01*
X189583762Y-54165597D01*
X189782412Y-54133337D01*
X189936351Y-54107330D01*
X190201489Y-54061547D01*
X190423938Y-54022532D01*
X190609074Y-53989191D01*
X190762276Y-53960428D01*
X190888920Y-53935149D01*
X190994385Y-53912260D01*
X191084046Y-53890667D01*
X191163283Y-53869276D01*
X191237472Y-53846991D01*
X191275598Y-53834765D01*
X191354368Y-53807083D01*
X191400718Y-53779878D01*
X191417426Y-53742992D01*
X191407265Y-53686266D01*
X191373011Y-53599540D01*
X191352616Y-53552879D01*
X191307331Y-53449979D01*
X191173661Y-53511175D01*
X190974775Y-53583729D01*
X190769467Y-53625118D01*
X190566187Y-53635806D01*
X190373390Y-53616259D01*
X190199526Y-53566943D01*
X190053047Y-53488324D01*
X190001631Y-53446591D01*
X189895430Y-53317698D01*
X189818614Y-53158235D01*
X189782640Y-53017534D01*
X189760028Y-52938873D01*
X189723150Y-52901691D01*
X189718510Y-52900011D01*
X189659089Y-52857886D01*
X189610591Y-52780424D01*
X189581746Y-52694363D01*
X190139522Y-52694363D01*
X190148070Y-52713039D01*
X190175338Y-52717899D01*
X190177744Y-52717897D01*
X190213973Y-52695667D01*
X190265453Y-52631680D01*
X190326277Y-52534759D01*
X190374642Y-52444314D01*
X190407016Y-52369635D01*
X190407511Y-52367630D01*
X191195736Y-52367630D01*
X191197575Y-52382273D01*
X191231085Y-52400701D01*
X191278202Y-52375387D01*
X191305436Y-52346815D01*
X191340905Y-52288832D01*
X191350497Y-52238713D01*
X191332972Y-52209604D01*
X191318630Y-52206786D01*
X191285862Y-52225319D01*
X191246658Y-52269610D01*
X191212717Y-52322700D01*
X191195736Y-52367630D01*
X190407511Y-52367630D01*
X190418845Y-52321696D01*
X190417772Y-52314339D01*
X190403247Y-52291468D01*
X190382774Y-52293723D01*
X190351936Y-52325581D01*
X190306318Y-52391518D01*
X190246237Y-52488204D01*
X190186600Y-52588669D01*
X190151697Y-52655148D01*
X190139522Y-52694363D01*
X189581746Y-52694363D01*
X189577104Y-52680512D01*
X189562716Y-52571035D01*
X189562838Y-52569566D01*
X190024123Y-52569566D01*
X190024888Y-52571026D01*
X190054114Y-52594609D01*
X190091160Y-52576579D01*
X190133468Y-52525702D01*
X190174632Y-52456996D01*
X190180379Y-52412753D01*
X190161066Y-52390414D01*
X190133818Y-52398515D01*
X190095397Y-52435206D01*
X190056906Y-52485762D01*
X190029447Y-52535457D01*
X190024123Y-52569566D01*
X189562838Y-52569566D01*
X189571515Y-52464881D01*
X189575401Y-52448868D01*
X189621737Y-52356051D01*
X189702522Y-52268914D01*
X189804108Y-52200794D01*
X189849415Y-52181162D01*
X189933270Y-52126949D01*
X189999217Y-52045320D01*
X190081470Y-51938630D01*
X190193789Y-51824369D01*
X190321882Y-51715080D01*
X190451458Y-51623311D01*
X190531427Y-51578148D01*
X190683470Y-51510997D01*
X190828970Y-51465381D01*
X190983360Y-51438078D01*
X191162069Y-51425865D01*
X191267533Y-51424409D01*
X191565289Y-51442099D01*
G37*
D19*
%TO.C,J1*%
X204359000Y-49953000D02*
X204359000Y-61953000D01*
X204359000Y-61953000D02*
X242359000Y-61953000D01*
X207859000Y-49953000D02*
X207859000Y-61953000D01*
X237359000Y-49953000D02*
X237359000Y-61953000D01*
X242359000Y-49953000D02*
X204359000Y-49953000D01*
X242359000Y-61953000D02*
X242359000Y-49953000D01*
D14*
%TO.C,SW2*%
X161334000Y-74708000D02*
X175304000Y-74708000D01*
X161334000Y-88678000D02*
X161334000Y-74708000D01*
X175304000Y-74708000D02*
X175304000Y-88678000D01*
X175304000Y-88678000D02*
X161334000Y-88678000D01*
%TD*%
M02*
